<svg width="14" height="15" viewBox="0 0 14 15" fill="none" xmlns="http://www.w3.org/2000/svg">
<path d="M6.99967 0.833374C3.32634 0.833374 0.333008 3.82671 0.333008 7.50004C0.333008 11.1734 3.32634 14.1667 6.99967 14.1667C10.673 14.1667 13.6663 11.1734 13.6663 7.50004C13.6663 3.82671 10.673 0.833374 6.99967 0.833374ZM10.1863 5.96671L6.40634 9.74671C6.31301 9.84004 6.18634 9.89337 6.05301 9.89337C5.91967 9.89337 5.79301 9.84004 5.69967 9.74671L3.81301 7.86004C3.61967 7.66671 3.61967 7.34671 3.81301 7.15337C4.00634 6.96004 4.32634 6.96004 4.51967 7.15337L6.05301 8.68671L9.47968 5.26004C9.67301 5.06671 9.99301 5.06671 10.1863 5.26004C10.3797 5.45337 10.3797 5.76671 10.1863 5.96671Z" fill="#306CB5"/>
</svg>
