<svg width="24" height="25" viewBox="0 0 24 25" fill="none" xmlns="http://www.w3.org/2000/svg">
<path d="M23 0.52002H1C0.447715 0.52002 0 0.967735 0 1.52002V23.52C0 24.0723 0.447715 24.52 1 24.52H12.8191V15.226H9.6915V11.6039H12.8191V8.93271C12.8191 5.83282 14.7125 4.14488 17.4778 4.14488C18.8024 4.14488 19.9408 4.2435 20.2726 4.28758V7.52714L18.3547 7.52801C16.8508 7.52801 16.5596 8.24265 16.5596 9.29135V11.6039H20.1463L19.6793 15.226H16.5596V24.52H23C23.5523 24.52 24 24.0723 24 23.52V1.52002C24 0.967735 23.5523 0.52002 23 0.52002Z" fill="#306CB5"/>
</svg>
