<svg viewBox="0 0 40 31" fill="none" xmlns="http://www.w3.org/2000/svg">
<path d="M20 7.43843C14.878 7.43843 10.7317 11.7829 10.7317 17.1495C10.7317 22.5162 14.878 26.8607 20 26.8607C25.122 26.8607 29.2683 22.5162 29.2683 17.1495C29.2683 11.834 25.122 7.43843 20 7.43843ZM20 24.8162C15.9512 24.8162 12.6829 21.3918 12.6829 17.1495C12.6829 12.9073 15.9512 9.48287 20 9.48287C24.0488 9.48287 27.3171 12.9073 27.3171 17.1495C27.3171 21.3918 24.0488 24.8162 20 24.8162ZM36.0976 5.39398L28.7805 5.4451L25.7073 0.742873C25.5122 0.487317 25.2195 0.333984 24.9268 0.333984H15.0732C14.7805 0.333984 14.4878 0.487317 14.2927 0.742873L11.2195 5.4451H3.90244C1.7561 5.4451 0 7.23398 0 9.48287V26.9118C0 29.1607 1.7561 31.0006 3.90244 31.0006H36.0976C38.2439 31.0006 40 29.1607 40 26.9118V9.02287C40 6.77398 38.2439 5.39398 36.0976 5.39398ZM38.0488 26.9118C38.0488 28.0362 37.1707 28.9562 36.0976 28.9562H3.90244C2.82927 28.9562 1.95122 28.0362 1.95122 26.9118V9.48287C1.95122 8.35843 2.82927 7.48954 3.90244 7.48954H11.7073C12 7.48954 12.2927 7.33621 12.4878 7.08065L15.561 2.37843H24.439L27.5122 7.08065C27.7073 7.33621 28 7.48954 28.2927 7.48954L36.0976 7.43843C37.1707 7.43843 38.0488 7.89843 38.0488 9.02287V26.9118Z" fill="#306CB5"/>
</svg>
