<svg width="24" height="25" viewBox="0 0 24 25" fill="none" xmlns="http://www.w3.org/2000/svg">
<path fill-rule="evenodd" clip-rule="evenodd" d="M1 0.52002H23C23.55 0.52002 24 0.97002 24 1.52002V23.52C24 24.07 23.55 24.52 23 24.52H1C0.45 24.52 0 24.07 0 23.52V1.52002C0 0.97002 0.45 0.52002 1 0.52002ZM3.54997 20.97H7.09997V9.52002H3.54997V20.97ZM5.34997 7.96898C4.19997 7.96898 3.29997 7.06898 3.29997 5.91898C3.29997 4.76898 4.19997 3.86898 5.34997 3.86898C6.49997 3.86898 7.39997 4.76898 7.39997 5.91898C7.39997 7.01898 6.49997 7.96898 5.34997 7.96898ZM16.8999 20.9705H20.3999V14.6705C20.3999 11.5705 19.7499 9.22054 16.1499 9.22054C14.4499 9.22054 13.2499 10.1705 12.7999 11.0705H12.7499V9.52054H9.34993V20.9705H12.8999V15.3205C12.8999 13.8205 13.1999 12.3705 15.0499 12.3705C16.8999 12.3705 16.8999 14.0705 16.8999 15.4205V20.9705Z" fill="#306CB5"/>
</svg>
