<svg width="20" height="20" viewBox="0 0 20 20" fill="currentColor" xmlns="http://www.w3.org/2000/svg">
<path d="M16.8418 6.51686L10.4252 10.2335C10.1668 10.3835 9.84185 10.3835 9.57518 10.2335L3.15851 6.51686C2.70018 6.2502 2.58351 5.6252 2.93351 5.23353C3.17518 4.95853 3.45018 4.73353 3.74185 4.5752L8.25851 2.0752C9.22518 1.53353 10.7918 1.53353 11.7585 2.0752L16.2752 4.5752C16.5668 4.73353 16.8418 4.96686 17.0835 5.23353C17.4168 5.6252 17.3002 6.2502 16.8418 6.51686Z" fill="currentColor"/>
<path d="M9.52507 11.7831V17.4664C9.52507 18.0997 8.8834 18.5164 8.31673 18.2414C6.60006 17.3997 3.7084 15.8247 3.7084 15.8247C2.69173 15.2497 1.8584 13.7997 1.8584 12.6081V8.30807C1.8584 7.64974 2.55007 7.23307 3.11673 7.55807L9.1084 11.0331C9.3584 11.1914 9.52507 11.4747 9.52507 11.7831Z" fill="currentColor"/>
<path d="M10.4751 11.7831V17.4664C10.4751 18.0997 11.1168 18.5164 11.6834 18.2414C13.4001 17.3997 16.2918 15.8247 16.2918 15.8247C17.3084 15.2497 18.1418 13.7997 18.1418 12.6081V8.30807C18.1418 7.64974 17.4501 7.23307 16.8834 7.55807L10.8918 11.0331C10.6418 11.1914 10.4751 11.4747 10.4751 11.7831Z" fill="currentColor"/>
</svg>
