<svg width="18" height="18" viewBox="0 0 18 18" fill="currentColor" xmlns="http://www.w3.org/2000/svg">
<path d="M13.1665 0.666992H4.83317C2.53317 0.666992 0.666504 2.52533 0.666504 4.81699V9.80033V10.6337C0.666504 12.9253 2.53317 14.7837 4.83317 14.7837H6.08317C6.30817 14.7837 6.60817 14.9337 6.74984 15.117L7.99984 16.7753C8.54984 17.5087 9.44984 17.5087 9.99984 16.7753L11.2498 15.117C11.4082 14.9087 11.6582 14.7837 11.9165 14.7837H13.1665C15.4665 14.7837 17.3332 12.9253 17.3332 10.6337V4.81699C17.3332 2.52533 15.4665 0.666992 13.1665 0.666992ZM9.83317 10.4587H4.83317C4.4915 10.4587 4.20817 10.1753 4.20817 9.83366C4.20817 9.49199 4.4915 9.20866 4.83317 9.20866H9.83317C10.1748 9.20866 10.4582 9.49199 10.4582 9.83366C10.4582 10.1753 10.1748 10.4587 9.83317 10.4587ZM13.1665 6.29199H4.83317C4.4915 6.29199 4.20817 6.00866 4.20817 5.66699C4.20817 5.32533 4.4915 5.04199 4.83317 5.04199H13.1665C13.5082 5.04199 13.7915 5.32533 13.7915 5.66699C13.7915 6.00866 13.5082 6.29199 13.1665 6.29199Z" fill="cuurrentColor"/>
</svg>
