
<svg width="242" height="325" viewBox="0 0 242 325" fill="none" xmlns="http://www.w3.org/2000/svg">
<path d="M121 262.18C187.374 262.18 241.181 208.373 241.181 141.999C241.181 75.6251 187.374 21.8184 121 21.8184C54.6261 21.8184 0.819336 75.6251 0.819336 141.999C0.819336 208.373 54.6261 262.18 121 262.18Z" fill="url(#paint0_linear_1326_24444)"/>
<g filter="url(#filter0_d_1326_24444)">
<path d="M189.904 90.7227H52.0964C47.6715 90.7227 44.0844 94.3098 44.0844 98.7347V266.988C44.0844 271.413 47.6715 275 52.0964 275H189.904C194.329 275 197.916 271.413 197.916 266.988V98.7347C197.916 94.3098 194.329 90.7227 189.904 90.7227Z" fill="white"/>
</g>
<path d="M104.976 114.758H63.3134C60.6584 114.758 58.5062 116.91 58.5062 119.565C58.5062 122.22 60.6584 124.372 63.3134 124.372H104.976C107.631 124.372 109.783 122.22 109.783 119.565C109.783 116.91 107.631 114.758 104.976 114.758Z" fill="#B4DAFF"/>
<path d="M133.819 135.59H63.3134C60.6584 135.59 58.5062 137.742 58.5062 140.397C58.5062 143.052 60.6584 145.204 63.3134 145.204H133.819C136.474 145.204 138.627 143.052 138.627 140.397C138.627 137.742 136.474 135.59 133.819 135.59Z" fill="#DFEAFB"/>
<path d="M104.976 158.023H63.3133C60.6583 158.023 58.506 160.176 58.506 162.831C58.506 165.486 60.6583 167.638 63.3133 167.638H104.976C107.631 167.638 109.783 165.486 109.783 162.831C109.783 160.176 107.631 158.023 104.976 158.023Z" fill="#B4DAFF"/>
<path d="M133.819 178.855H63.3135C60.6585 178.855 58.5062 181.008 58.5062 183.663C58.5062 186.318 60.6585 188.47 63.3135 188.47H133.819C136.474 188.47 138.627 186.318 138.627 183.663C138.627 181.008 136.474 178.855 133.819 178.855Z" fill="#DFEAFB"/>
<path d="M104.976 201.289H63.3133C60.6583 201.289 58.506 203.441 58.506 206.096C58.506 208.751 60.6583 210.904 63.3133 210.904H104.976C107.631 210.904 109.783 208.751 109.783 206.096C109.783 203.441 107.631 201.289 104.976 201.289Z" fill="#B4DAFF"/>
<path d="M133.819 222.121H63.3135C60.6585 222.121 58.5062 224.273 58.5062 226.928C58.5062 229.583 60.6585 231.736 63.3135 231.736H133.819C136.474 231.736 138.627 229.583 138.627 226.928C138.627 224.273 136.474 222.121 133.819 222.121Z" fill="#DFEAFB"/>
<g filter="url(#filter1_d_1326_24444)">
<path d="M189.904 9H52.0965C47.6715 9 44.0844 12.5871 44.0844 17.012V65.0843C44.0844 69.5093 47.6715 73.0964 52.0965 73.0964H189.904C194.329 73.0964 197.916 69.5093 197.916 65.0843V17.012C197.916 12.5871 194.329 9 189.904 9Z" fill="#306CB5"/>
</g>
<path d="M104.976 26.627H63.3132C60.6583 26.627 58.506 28.7792 58.506 31.4342C58.506 34.0891 60.6583 36.2414 63.3132 36.2414H104.976C107.631 36.2414 109.783 34.0891 109.783 31.4342C109.783 28.7792 107.631 26.627 104.976 26.627Z" fill="#B4DAFF"/>
<path d="M133.819 47.459H63.3134C60.6584 47.459 58.5062 49.6113 58.5062 52.2662C58.5062 54.9212 60.6584 57.0734 63.3134 57.0734H133.819C136.474 57.0734 138.627 54.9212 138.627 52.2662C138.627 49.6113 136.474 47.459 133.819 47.459Z" fill="white"/>
<path d="M66.8881 307.4V320H64.9621L58.0141 311.468V320H55.6921V307.4H57.6181L64.5661 315.932V307.4H66.8881ZM74.3683 320.126C73.3963 320.126 72.5203 319.916 71.7403 319.496C70.9603 319.076 70.3483 318.494 69.9043 317.75C69.4723 316.994 69.2563 316.142 69.2563 315.194C69.2563 314.246 69.4723 313.4 69.9043 312.656C70.3483 311.912 70.9603 311.33 71.7403 310.91C72.5203 310.49 73.3963 310.28 74.3683 310.28C75.3523 310.28 76.2343 310.49 77.0143 310.91C77.7943 311.33 78.4003 311.912 78.8323 312.656C79.2763 313.4 79.4983 314.246 79.4983 315.194C79.4983 316.142 79.2763 316.994 78.8323 317.75C78.4003 318.494 77.7943 319.076 77.0143 319.496C76.2343 319.916 75.3523 320.126 74.3683 320.126ZM74.3683 318.2C75.1963 318.2 75.8803 317.924 76.4203 317.372C76.9603 316.82 77.2303 316.094 77.2303 315.194C77.2303 314.294 76.9603 313.568 76.4203 313.016C75.8803 312.464 75.1963 312.188 74.3683 312.188C73.5403 312.188 72.8563 312.464 72.3163 313.016C71.7883 313.568 71.5243 314.294 71.5243 315.194C71.5243 316.094 71.7883 316.82 72.3163 317.372C72.8563 317.924 73.5403 318.2 74.3683 318.2ZM96.0385 306.644V320H93.8785V318.758C93.5065 319.214 93.0445 319.556 92.4925 319.784C91.9525 320.012 91.3525 320.126 90.6925 320.126C89.7685 320.126 88.9345 319.922 88.1905 319.514C87.4585 319.106 86.8825 318.53 86.4625 317.786C86.0425 317.03 85.8325 316.166 85.8325 315.194C85.8325 314.222 86.0425 313.364 86.4625 312.62C86.8825 311.876 87.4585 311.3 88.1905 310.892C88.9345 310.484 89.7685 310.28 90.6925 310.28C91.3285 310.28 91.9105 310.388 92.4385 310.604C92.9665 310.82 93.4165 311.144 93.7885 311.576V306.644H96.0385ZM90.9625 318.2C91.5025 318.2 91.9885 318.08 92.4205 317.84C92.8525 317.588 93.1945 317.234 93.4465 316.778C93.6985 316.322 93.8245 315.794 93.8245 315.194C93.8245 314.594 93.6985 314.066 93.4465 313.61C93.1945 313.154 92.8525 312.806 92.4205 312.566C91.9885 312.314 91.5025 312.188 90.9625 312.188C90.4225 312.188 89.9365 312.314 89.5045 312.566C89.0725 312.806 88.7305 313.154 88.4785 313.61C88.2265 314.066 88.1005 314.594 88.1005 315.194C88.1005 315.794 88.2265 316.322 88.4785 316.778C88.7305 317.234 89.0725 317.588 89.5045 317.84C89.9365 318.08 90.4225 318.2 90.9625 318.2ZM102.654 310.28C104.07 310.28 105.15 310.622 105.894 311.306C106.65 311.978 107.028 312.998 107.028 314.366V320H104.904V318.83C104.628 319.25 104.232 319.574 103.716 319.802C103.212 320.018 102.6 320.126 101.88 320.126C101.16 320.126 100.53 320.006 99.9899 319.766C99.4499 319.514 99.0299 319.172 98.7299 318.74C98.4419 318.296 98.2979 317.798 98.2979 317.246C98.2979 316.382 98.6159 315.692 99.2519 315.176C99.8999 314.648 100.914 314.384 102.294 314.384H104.778V314.24C104.778 313.568 104.574 313.052 104.166 312.692C103.77 312.332 103.176 312.152 102.384 312.152C101.844 312.152 101.31 312.236 100.782 312.404C100.266 312.572 99.8279 312.806 99.4679 313.106L98.5859 311.468C99.0899 311.084 99.6959 310.79 100.404 310.586C101.112 310.382 101.862 310.28 102.654 310.28ZM102.348 318.488C102.912 318.488 103.41 318.362 103.842 318.11C104.286 317.846 104.598 317.474 104.778 316.994V315.878H102.456C101.16 315.878 100.512 316.304 100.512 317.156C100.512 317.564 100.674 317.888 100.998 318.128C101.322 318.368 101.772 318.488 102.348 318.488ZM115.694 319.478C115.43 319.694 115.106 319.856 114.722 319.964C114.35 320.072 113.954 320.126 113.534 320.126C112.478 320.126 111.662 319.85 111.086 319.298C110.51 318.746 110.222 317.942 110.222 316.886V312.26H108.638V310.46H110.222V308.264H112.472V310.46H115.046V312.26H112.472V316.832C112.472 317.3 112.586 317.66 112.814 317.912C113.042 318.152 113.372 318.272 113.804 318.272C114.308 318.272 114.728 318.14 115.064 317.876L115.694 319.478ZM121.216 310.28C122.632 310.28 123.712 310.622 124.456 311.306C125.212 311.978 125.59 312.998 125.59 314.366V320H123.466V318.83C123.19 319.25 122.794 319.574 122.278 319.802C121.774 320.018 121.162 320.126 120.442 320.126C119.722 320.126 119.092 320.006 118.552 319.766C118.012 319.514 117.592 319.172 117.292 318.74C117.004 318.296 116.86 317.798 116.86 317.246C116.86 316.382 117.178 315.692 117.814 315.176C118.462 314.648 119.476 314.384 120.856 314.384H123.34V314.24C123.34 313.568 123.136 313.052 122.728 312.692C122.332 312.332 121.738 312.152 120.946 312.152C120.406 312.152 119.872 312.236 119.344 312.404C118.828 312.572 118.39 312.806 118.03 313.106L117.148 311.468C117.652 311.084 118.258 310.79 118.966 310.586C119.674 310.382 120.424 310.28 121.216 310.28ZM120.91 318.488C121.474 318.488 121.972 318.362 122.404 318.11C122.848 317.846 123.16 317.474 123.34 316.994V315.878H121.018C119.722 315.878 119.074 316.304 119.074 317.156C119.074 317.564 119.236 317.888 119.56 318.128C119.884 318.368 120.334 318.488 120.91 318.488ZM137.359 308.336C136.411 308.336 135.937 308.852 135.937 309.884V310.46H138.583V312.26H136.009V320H133.759V312.26H132.175V310.46H133.759V309.848C133.759 308.816 134.059 308.006 134.659 307.418C135.259 306.818 136.105 306.518 137.197 306.518C138.061 306.518 138.739 306.692 139.231 307.04L138.601 308.732C138.217 308.468 137.803 308.336 137.359 308.336ZM144.277 320.126C143.305 320.126 142.429 319.916 141.649 319.496C140.869 319.076 140.257 318.494 139.813 317.75C139.381 316.994 139.165 316.142 139.165 315.194C139.165 314.246 139.381 313.4 139.813 312.656C140.257 311.912 140.869 311.33 141.649 310.91C142.429 310.49 143.305 310.28 144.277 310.28C145.261 310.28 146.143 310.49 146.923 310.91C147.703 311.33 148.309 311.912 148.741 312.656C149.185 313.4 149.407 314.246 149.407 315.194C149.407 316.142 149.185 316.994 148.741 317.75C148.309 318.494 147.703 319.076 146.923 319.496C146.143 319.916 145.261 320.126 144.277 320.126ZM144.277 318.2C145.105 318.2 145.789 317.924 146.329 317.372C146.869 316.82 147.139 316.094 147.139 315.194C147.139 314.294 146.869 313.568 146.329 313.016C145.789 312.464 145.105 312.188 144.277 312.188C143.449 312.188 142.765 312.464 142.225 313.016C141.697 313.568 141.433 314.294 141.433 315.194C141.433 316.094 141.697 316.82 142.225 317.372C142.765 317.924 143.449 318.2 144.277 318.2ZM160.864 310.388V320H158.722V318.776C158.362 319.208 157.912 319.544 157.372 319.784C156.832 320.012 156.25 320.126 155.626 320.126C154.342 320.126 153.328 319.772 152.584 319.064C151.852 318.344 151.486 317.282 151.486 315.878V310.388H153.736V315.572C153.736 316.436 153.928 317.084 154.312 317.516C154.708 317.936 155.266 318.146 155.986 318.146C156.79 318.146 157.426 317.9 157.894 317.408C158.374 316.904 158.614 316.184 158.614 315.248V310.388H160.864ZM169.264 310.28C170.476 310.28 171.448 310.634 172.18 311.342C172.912 312.05 173.278 313.1 173.278 314.492V320H171.028V314.78C171.028 313.94 170.83 313.31 170.434 312.89C170.038 312.458 169.474 312.242 168.742 312.242C167.914 312.242 167.26 312.494 166.78 312.998C166.3 313.49 166.06 314.204 166.06 315.14V320H163.81V310.388H165.952V311.63C166.324 311.186 166.792 310.85 167.356 310.622C167.92 310.394 168.556 310.28 169.264 310.28ZM185.634 306.644V320H183.474V318.758C183.102 319.214 182.64 319.556 182.088 319.784C181.548 320.012 180.948 320.126 180.288 320.126C179.364 320.126 178.53 319.922 177.786 319.514C177.054 319.106 176.478 318.53 176.058 317.786C175.638 317.03 175.428 316.166 175.428 315.194C175.428 314.222 175.638 313.364 176.058 312.62C176.478 311.876 177.054 311.3 177.786 310.892C178.53 310.484 179.364 310.28 180.288 310.28C180.924 310.28 181.506 310.388 182.034 310.604C182.562 310.82 183.012 311.144 183.384 311.576V306.644H185.634ZM180.558 318.2C181.098 318.2 181.584 318.08 182.016 317.84C182.448 317.588 182.79 317.234 183.042 316.778C183.294 316.322 183.42 315.794 183.42 315.194C183.42 314.594 183.294 314.066 183.042 313.61C182.79 313.154 182.448 312.806 182.016 312.566C181.584 312.314 181.098 312.188 180.558 312.188C180.018 312.188 179.532 312.314 179.1 312.566C178.668 312.806 178.326 313.154 178.074 313.61C177.822 314.066 177.696 314.594 177.696 315.194C177.696 315.794 177.822 316.322 178.074 316.778C178.326 317.234 178.668 317.588 179.1 317.84C179.532 318.08 180.018 318.2 180.558 318.2Z" fill="#34343F"/>
<defs>
<filter id="filter0_d_1326_24444" x="38.0844" y="81.7227" width="165.831" height="196.277" filterUnits="userSpaceOnUse" color-interpolation-filters="sRGB">
<feFlood flood-opacity="0" result="BackgroundImageFix"/>
<feColorMatrix in="SourceAlpha" type="matrix" values="0 0 0 0 0 0 0 0 0 0 0 0 0 0 0 0 0 0 127 0" result="hardAlpha"/>
<feOffset dy="-3"/>
<feGaussianBlur stdDeviation="3"/>
<feColorMatrix type="matrix" values="0 0 0 0 0.788235 0 0 0 0 0.803922 0 0 0 0 0.85098 0 0 0 0.349 0"/>
<feBlend mode="normal" in2="BackgroundImageFix" result="effect1_dropShadow_1326_24444"/>
<feBlend mode="normal" in="SourceGraphic" in2="effect1_dropShadow_1326_24444" result="shape"/>
</filter>
<filter id="filter1_d_1326_24444" x="38.0844" y="0" width="165.831" height="76.0957" filterUnits="userSpaceOnUse" color-interpolation-filters="sRGB">
<feFlood flood-opacity="0" result="BackgroundImageFix"/>
<feColorMatrix in="SourceAlpha" type="matrix" values="0 0 0 0 0 0 0 0 0 0 0 0 0 0 0 0 0 0 127 0" result="hardAlpha"/>
<feOffset dy="-3"/>
<feGaussianBlur stdDeviation="3"/>
<feColorMatrix type="matrix" values="0 0 0 0 0.788235 0 0 0 0 0.803922 0 0 0 0 0.85098 0 0 0 0.349 0"/>
<feBlend mode="normal" in2="BackgroundImageFix" result="effect1_dropShadow_1326_24444"/>
<feBlend mode="normal" in="SourceGraphic" in2="effect1_dropShadow_1326_24444" result="shape"/>
</filter>
<linearGradient id="paint0_linear_1326_24444" x1="121" y1="21.8184" x2="121" y2="262.18" gradientUnits="userSpaceOnUse">
<stop stop-color="#E3ECFA"/>
<stop offset="1" stop-color="#DAE7FF"/>
</linearGradient>
</defs>
</svg>
