<svg width="188" height="150" viewBox="0 0 188 150" fill="none" xmlns="http://www.w3.org/2000/svg">
<rect width="188" height="150" fill="white"/>
<path fill-rule="evenodd" clip-rule="evenodd" d="M47.3762 100.5H115.808C116.195 100.5 116.573 100.458 116.936 100.379C117.3 100.458 117.677 100.5 118.064 100.5H157.168C160.075 100.5 162.432 98.1495 162.432 95.25C162.432 92.3505 160.075 90 157.168 90H152.656C149.749 90 147.392 87.6495 147.392 84.75C147.392 81.8505 149.749 79.5 152.656 79.5H166.944C169.851 79.5 172.208 77.1495 172.208 74.25C172.208 71.3505 169.851 69 166.944 69H150.4C153.307 69 155.664 66.6495 155.664 63.75C155.664 60.8505 153.307 58.5 150.4 58.5H102.272C105.179 58.5 107.536 56.1495 107.536 53.25C107.536 50.3505 105.179 48 102.272 48H59.4082C56.5009 48 54.1442 50.3505 54.1442 53.25C54.1442 56.1495 56.5009 58.5 59.4082 58.5H29.3282C26.421 58.5 24.0642 60.8505 24.0642 63.75C24.0642 66.6495 26.421 69 29.3282 69H48.1282C51.0354 69 53.3922 71.3505 53.3922 74.25C53.3922 77.1495 51.0354 79.5 48.1282 79.5H18.0482C15.141 79.5 12.7842 81.8505 12.7842 84.75C12.7842 87.6495 15.141 90 18.0482 90H47.3762C44.469 90 42.1122 92.3505 42.1122 95.25C42.1122 98.1495 44.469 100.5 47.3762 100.5ZM169.952 100.5C172.859 100.5 175.216 98.1495 175.216 95.25C175.216 92.3505 172.859 90 169.952 90C167.045 90 164.688 92.3505 164.688 95.25C164.688 98.1495 167.045 100.5 169.952 100.5Z" fill="#F3F7FF"/>
<path fill-rule="evenodd" clip-rule="evenodd" d="M126.77 94.5561C124.832 96 122.943 97.3573 120.805 98.5302L120.928 109.093C120.938 109.921 120.273 110.601 119.442 110.61C119.104 110.614 118.775 110.505 118.507 110.299L108.985 102.992C105.416 103.812 101.651 104.25 97.7604 104.25C74.9179 104.25 56.4004 89.1396 56.4004 70.5C56.4004 51.8604 74.9179 36.75 97.7604 36.75C120.603 36.75 139.12 51.8604 139.12 70.5C139.12 75.6591 137.702 80.5478 135.166 84.9205C134.698 85.727 134.192 86.5159 133.65 87.2858C133.65 87.2858 132.591 88.875 130.472 91.125C128.354 93.375 126.77 94.5561 126.77 94.5561Z" fill="white"/>
<path fill-rule="evenodd" clip-rule="evenodd" d="M126.77 94.5561C124.832 96 122.943 97.3573 120.805 98.5302L120.928 109.093C120.938 109.921 120.273 110.601 119.442 110.61C119.104 110.614 118.775 110.505 118.507 110.299L108.985 102.992C105.416 103.812 101.651 104.25 97.7604 104.25C74.9179 104.25 56.4004 89.1396 56.4004 70.5C56.4004 51.8604 74.9179 36.75 97.7604 36.75C120.603 36.75 139.12 51.8604 139.12 70.5C139.12 75.6591 137.702 80.5478 135.166 84.9205C134.698 85.727 134.192 86.5159 133.65 87.2858C133.65 87.2858 132.591 88.875 130.472 91.125C128.354 93.375 126.77 94.5561 126.77 94.5561Z" stroke="#557EFF" stroke-width="2.5" stroke-linecap="round"/>
<path fill-rule="evenodd" clip-rule="evenodd" d="M122.466 61.1921C126.455 61.1921 130.296 60.7177 133.895 59.8401C135.331 63.1023 136.112 66.6174 136.112 70.2805C136.112 75.0324 134.797 79.5352 132.445 83.5628C132.011 84.3057 131.542 85.0323 131.04 85.7414C130.246 86.861 129.681 87.6515 129.183 88.2854C128.005 89.7851 127.204 90.4083 124.66 92.4379C122.963 93.7915 121.112 95.018 119.129 96.0983L119.243 105.827C119.252 106.59 119.485 107.991 118.715 108C118.402 108.003 117.247 107.128 116.998 106.938L109.321 100.1C106.011 100.855 101.368 101.367 97.7602 101.367C76.579 101.367 59.4082 87.4489 59.4082 70.2805C59.4082 56.2208 70.9238 44.3411 86.7271 40.5C90.866 52.4059 105.298 61.1921 122.466 61.1921ZM82.939 66.1112C80.4536 66.1112 78.4388 68.1336 78.4388 70.6283C78.4388 73.1231 80.4536 75.1454 82.939 75.1454C85.4244 75.1454 87.4392 73.1231 87.4392 70.6283C87.4392 68.1336 85.4244 66.1112 82.939 66.1112ZM97.1896 66.1112C94.7042 66.1112 92.6894 68.1336 92.6894 70.6283C92.6894 73.1231 94.7042 75.1454 97.1896 75.1454C99.6749 75.1454 101.69 73.1231 101.69 70.6283C101.69 68.1336 99.6749 66.1112 97.1896 66.1112ZM111.44 66.1112C108.955 66.1112 106.94 68.1336 106.94 70.6283C106.94 73.1231 108.955 75.1454 111.44 75.1454C113.925 75.1454 115.94 73.1231 115.94 70.6283C115.94 68.1336 113.925 66.1112 111.44 66.1112Z" fill="#E8F0FE"/>
<path fill-rule="evenodd" clip-rule="evenodd" d="M82.72 66C85.2119 66 87.232 68.0147 87.232 70.5C87.232 72.9853 85.2119 75 82.72 75C80.2281 75 78.208 72.9853 78.208 70.5C78.208 68.0147 80.2281 66 82.72 66ZM97.008 66C99.4999 66 101.52 68.0147 101.52 70.5C101.52 72.9853 99.4999 75 97.008 75C94.5161 75 92.496 72.9853 92.496 70.5C92.496 68.0147 94.5161 66 97.008 66ZM111.296 66C113.788 66 115.808 68.0147 115.808 70.5C115.808 72.9853 113.788 75 111.296 75C108.804 75 106.784 72.9853 106.784 70.5C106.784 68.0147 108.804 66 111.296 66Z" fill="white" stroke="#557EFF" stroke-width="2.5"/>
<path d="M67.4257 59.4834C66.7428 60.6323 66.1511 61.8247 65.6582 63.0541" stroke="#75A4FE" stroke-width="2.5" stroke-linecap="round"/>
<path d="M81.2329 47.3049C76.3052 49.6504 72.145 52.9683 69.1387 56.9402" stroke="#75A4FE" stroke-width="2.5" stroke-linecap="round"/>
</svg>
