<svg width="34" height="10" viewBox="0 0 34 10" fill="none" xmlns="http://www.w3.org/2000/svg">
<path d="M6.30732 1.62896C6.19821 1.3864 6.02562 1.18634 5.81137 1.03611C5.58786 0.884418 5.32402 0.77816 5.02248 0.715138C4.71566 0.653582 4.36122 0.625735 3.95057 0.621338L2.05473 0.622804C1.85768 0.625735 1.66459 0.795747 1.6183 1.0068L0.342723 7.16391C0.296434 7.37203 0.420091 7.54644 0.617147 7.54644H1.52506C1.72212 7.54644 1.91719 7.37716 1.96083 7.16391L2.27229 5.66897C2.31395 5.46085 2.50836 5.28717 2.7074 5.28717H2.96728C4.07754 5.2857 4.93718 5.03435 5.5548 4.5309C6.17572 4.02673 6.48189 3.3606 6.48189 2.53545C6.48123 2.17417 6.42767 1.87079 6.30732 1.62896ZM4.34932 3.64053C4.07489 3.86331 3.69334 3.9747 3.20136 3.9747H2.97918C2.78146 3.9747 2.66045 3.80175 2.70343 3.5907L2.97653 2.28336C3.01489 2.07378 3.21393 1.9001 3.409 1.90156L3.70657 1.89937C4.05373 1.89937 4.3189 1.96605 4.49612 2.09503C4.67135 2.22254 4.7593 2.42553 4.75798 2.69447C4.76327 3.10338 4.62242 3.41776 4.34932 3.64053Z" fill="#306CB5"/>
<path d="M32.1895 1.10362L32.1326 1.12267L32.0566 1.1344L31.9633 1.11827L31.9157 1.06698L31.8939 0.986367L31.8926 0.865453V0.417704H32.1961V0.279201H31.8926V0H31.7425V0.279201H31.6406V0.417704H31.7425V0.938735L31.8126 1.19669L32.0189 1.27876L32.1055 1.2707L32.1974 1.25091V1.10362H32.1895Z" fill="#306CB5"/>
<path d="M33.597 0.350271L33.3801 0.251343L33.2201 0.287251L33.0574 0.408897L32.9629 0.29238L32.8094 0.252075L32.662 0.287983L32.5225 0.387645V0.279188H32.375V1.2575H32.5218V0.526881L32.6455 0.441873L32.7684 0.408164L32.869 0.42795L32.9186 0.484377L32.9404 0.578177L32.9477 0.699091V1.25823H33.0951V0.632405L33.0925 0.580376L33.0898 0.532743L33.2155 0.444072L33.3398 0.40963L33.437 0.429415L33.4899 0.485843L33.5084 0.580376L33.5183 0.699825V1.25896H33.6664V0.623612L33.597 0.350271Z" fill="#306CB5"/>
<path d="M10.686 2.50933C10.3435 2.29535 9.8026 2.18835 9.06331 2.18835C8.69763 2.18835 8.33327 2.21987 7.96495 2.28289C7.69317 2.32905 7.66672 2.33785 7.49942 2.37815C7.15424 2.46169 7.10002 2.84349 7.10002 2.84349L6.98893 3.34987C6.92611 3.67304 7.09407 3.66058 7.16416 3.63347C7.31493 3.58363 7.39891 3.53234 7.70706 3.45612C8.00132 3.38211 8.31145 3.32641 8.55744 3.33008C8.92048 3.33008 9.19821 3.37258 9.38336 3.45905C9.56587 3.54699 9.65712 3.69795 9.65712 3.91633L9.64125 4.0585L9.51032 4.1479C8.9952 4.18381 8.62291 4.23657 8.17126 4.30912C7.72954 4.37727 7.34204 4.49672 7.02001 4.66014C6.67416 4.82869 6.41759 5.05513 6.23839 5.34312C6.06514 5.63258 5.97852 5.9836 5.97852 6.39544C5.97852 6.7831 6.10416 7.10334 6.34816 7.35104C6.59349 7.59433 6.91751 7.71305 7.30501 7.71305C7.55034 7.71158 7.74012 7.69033 7.87502 7.65442L8.31476 7.48661L8.68705 7.25797L9.02958 7.00735L9.03421 7.01467L8.99983 7.17589L8.99784 7.18249V7.18395C8.96081 7.38035 9.06794 7.54157 9.24053 7.56062L9.24383 7.56502H9.2597H9.95601H10.0869L10.0988 7.55915C10.28 7.5357 10.45 7.37448 10.4897 7.18249L11.1516 4.0072L11.186 3.74852L11.2018 3.50596C11.2045 3.05601 11.0292 2.72258 10.686 2.50933ZM9.22201 6.0796L9.0805 6.28625L8.72342 6.49071C8.55546 6.56619 8.39609 6.6043 8.24863 6.6043C8.02513 6.6043 7.84989 6.56839 7.73152 6.49511L7.55629 6.11771C7.55629 5.91325 7.59861 5.7513 7.6892 5.62672L8.07406 5.33653C8.23871 5.27497 8.43974 5.22294 8.6725 5.18703C8.88014 5.15845 9.29012 5.10642 9.34368 5.10496L9.4065 5.22734C9.39394 5.29695 9.27756 5.83631 9.22201 6.0796Z" fill="#306CB5"/>
<path d="M27.1763 2.5136C26.8318 2.29962 26.2915 2.19189 25.5542 2.19189C25.1885 2.19189 24.8235 2.22341 24.4565 2.28863C24.1841 2.33259 24.157 2.34212 23.989 2.38169C23.6445 2.4645 23.5909 2.84776 23.5909 2.84776L23.4798 3.35341C23.4177 3.67658 23.5817 3.66192 23.6584 3.637C23.8098 3.58717 23.8911 3.53807 24.1966 3.45893C24.4896 3.38565 24.8023 3.33142 25.049 3.33289C25.4107 3.33289 25.6884 3.37612 25.8729 3.4626C26.0568 3.55053 26.1467 3.70296 26.1467 3.91914L26.1328 4.06057L26.0032 4.15217C25.4828 4.18662 25.1098 4.23938 24.6628 4.31193C24.2224 4.38008 23.8336 4.49879 23.5109 4.66295C23.1664 4.83223 22.9065 5.05866 22.7293 5.34739C22.5541 5.63686 22.4688 5.98714 22.4688 6.39532C22.4688 6.78591 22.5931 7.10615 22.8404 7.35237C23.087 7.59494 23.4077 7.71658 23.7952 7.71658C24.0392 7.71365 24.229 7.69606 24.3646 7.65723L24.803 7.49161L25.1786 7.26297L25.5185 7.00942L25.5244 7.01748L25.4934 7.18016L25.4901 7.18309L25.4914 7.18603C25.4504 7.38242 25.5582 7.5451 25.7327 7.56269L25.7341 7.56636H25.7499C25.8643 7.56636 26.2598 7.56636 26.4482 7.56636H26.5765L26.5904 7.56123C26.7696 7.53704 26.9389 7.37582 26.9766 7.18163L27.6405 4.01074L27.6755 3.75059L27.6947 3.5073C27.6954 3.05881 27.5221 2.72685 27.1763 2.5136ZM25.7156 6.08387L25.5681 6.29273L25.2143 6.49572C25.0464 6.57046 24.8863 6.6093 24.7415 6.6093C24.5107 6.6093 24.3401 6.57266 24.2251 6.49938L24.0478 6.12344C24.0478 5.91826 24.0908 5.75777 24.1775 5.63099C24.2654 5.51154 24.3996 5.41335 24.5663 5.34153C24.7289 5.27998 24.93 5.23014 25.1641 5.19277C25.3704 5.16419 25.779 5.1107 25.8319 5.10996L25.8961 5.23234C25.8868 5.30196 25.7698 5.83911 25.7156 6.08387Z" fill="#306CB5"/>
<path d="M22.7951 1.65179C22.6814 1.40776 22.5108 1.21063 22.2952 1.05674C22.0743 0.904314 21.8125 0.797323 21.5063 0.735767C21.2054 0.676409 20.8464 0.644165 20.4384 0.643433L18.5399 0.644897C18.3422 0.648562 18.1524 0.818575 18.1068 1.02743L16.8299 7.18747C16.7836 7.39632 16.9105 7.56926 17.1036 7.56926L18.0129 7.5678C18.2059 7.56926 18.4037 7.39778 18.4493 7.18673L18.7568 5.69106C18.8017 5.48294 18.9968 5.3078 19.1932 5.30926H19.4531C20.5647 5.30926 21.4263 5.05571 22.0466 4.55373C22.6596 4.04589 22.9697 3.38123 22.9697 2.55535C22.9664 2.19553 22.9102 1.89142 22.7951 1.65179ZM20.8371 3.66629C20.5633 3.88467 20.1811 3.99606 19.6918 3.99606H19.4657C19.2706 3.99826 19.1443 3.82238 19.1879 3.6128L19.463 2.30765C19.5033 2.0988 19.7004 1.92366 19.8968 1.92586L20.1911 1.92366C20.5402 1.92586 20.8021 1.98961 20.9806 2.11859C21.1585 2.24756 21.2425 2.44982 21.2445 2.71803C21.2464 3.12694 21.1096 3.44205 20.8371 3.66629Z" fill="#306CB5"/>
<path d="M30.5799 1.07641C30.6216 0.866094 30.5026 0.695348 30.3075 0.698279H29.4941C29.3275 0.698279 29.1774 0.835316 29.104 1.00386L29.059 1.08154L29.018 1.28087L27.8813 7.00708L27.8443 7.18296L27.8456 7.18735C27.8079 7.37568 27.9124 7.51785 28.0737 7.54497L28.0876 7.56622H28.9321C29.0974 7.56622 29.2528 7.42698 29.3235 7.2555L29.3672 7.18222L30.5826 1.07714L30.5799 1.07641Z" fill="#306CB5"/>
<path d="M16.8553 2.2651C16.6404 2.26803 15.7668 2.2651 15.7668 2.2651C15.5711 2.2651 15.3198 2.44024 15.1955 2.64909C15.1955 2.64909 13.8955 5.12161 13.7692 5.37003L13.6184 5.36783L13.2137 2.66595C13.1687 2.45343 12.9684 2.27169 12.7191 2.27169L11.9057 2.27316C11.71 2.27316 11.5896 2.4461 11.6339 2.65715C11.6339 2.65715 12.2516 6.55206 12.3752 7.46881C12.4327 7.97445 12.3679 8.06459 12.3679 8.06459L11.5638 9.61669C11.4448 9.82774 11.509 9.99995 11.704 9.99995L12.6443 9.99849C12.8401 9.99849 13.0973 9.82774 13.2137 9.61596L16.8308 2.83596C16.8308 2.83669 17.1786 2.25704 16.8553 2.2651Z" fill="#306CB5"/>
</svg>
