<svg width="61" height="61" viewBox="0 0 61 61" fill="none" xmlns="http://www.w3.org/2000/svg">
<rect x="0.5" y="0.601562" width="60" height="60" rx="30" fill="white"/>
<path d="M38 18.6016C37.6022 18.6016 37.2206 18.7596 36.9393 19.0409C36.658 19.3222 36.5 19.7037 36.5 20.1016V21.0391L18.2 26.7556C18.0677 26.5577 17.8894 26.3949 17.6804 26.281C17.4714 26.1671 17.238 26.1055 17 26.1016C16.6022 26.1016 16.2206 26.2596 15.9393 26.5409C15.658 26.8222 15.5 27.2037 15.5 27.6016V35.1016C15.5 35.4994 15.658 35.8809 15.9393 36.1622C16.2206 36.4435 16.6022 36.6016 17 36.6016C17.2694 36.5992 17.5331 36.5236 17.7627 36.3827C17.9923 36.2418 18.1793 36.0411 18.3035 35.8021L19.2695 36.0436C19.3075 37.1798 19.7145 38.2727 20.429 39.1569C21.1435 40.0412 22.1266 40.6687 23.2294 40.9445C24.3323 41.2202 25.495 41.1293 26.5416 40.6853C27.5882 40.2414 28.4617 39.4687 29.03 38.4841L36.5 40.3516V41.1016C36.5 41.4994 36.658 41.8809 36.9393 42.1622C37.2206 42.4435 37.6022 42.6016 38 42.6016C38.3978 42.6016 38.7794 42.4435 39.0607 42.1622C39.342 41.8809 39.5 41.4994 39.5 41.1016V20.1016C39.5 19.7037 39.342 19.3222 39.0607 19.0409C38.7794 18.7596 38.3978 18.6016 38 18.6016ZM24.5 39.6016C23.6065 39.5982 22.7434 39.2768 22.0653 38.6949C21.3872 38.113 20.9385 37.3087 20.7995 36.4261L27.467 38.0926C27.1234 38.5571 26.6765 38.9352 26.1615 39.1971C25.6466 39.459 25.0777 39.5975 24.5 39.6016ZM18.5 32.7586V29.8066L36.5 24.1816V37.2586L18.5 32.7586Z" fill="#222222"/>
<path d="M42.5 28.2891C42.6454 28.2892 42.7877 28.2469 42.9095 28.1676L47.4095 25.2306C47.5762 25.1218 47.6929 24.9512 47.7338 24.7564C47.7747 24.5616 47.7366 24.3585 47.6278 24.1919C47.519 24.0252 47.3484 23.9085 47.1536 23.8676C46.9588 23.8267 46.7557 23.8648 46.589 23.9736L42.089 26.9106C41.9534 26.9989 41.85 27.1287 41.7943 27.2806C41.7385 27.4325 41.7333 27.5983 41.7796 27.7534C41.8258 27.9085 41.9209 28.0444 42.0508 28.141C42.1806 28.2375 42.3382 28.2895 42.5 28.2891Z" fill="#222222"/>
<path d="M47.4096 35.9106L42.9096 32.9736C42.7429 32.8648 42.5398 32.8267 42.345 32.8676C42.1502 32.9085 41.9796 33.0252 41.8708 33.1919C41.762 33.3585 41.7239 33.5616 41.7648 33.7564C41.8057 33.9512 41.9224 34.1218 42.0891 34.2306L46.5891 37.1676C46.7558 37.2764 46.9589 37.3145 47.1537 37.2736C47.3485 37.2327 47.519 37.116 47.6278 36.9494C47.7366 36.7827 47.7748 36.5796 47.7338 36.3848C47.6929 36.19 47.5763 36.0194 47.4096 35.9106Z" fill="#222222"/>
</svg>
