<svg width="48" height="10" viewBox="0 0 48 10" fill="none" xmlns="http://www.w3.org/2000/svg">
<path d="M8.50906 0.612061C8.82068 1.12673 8.96116 1.65683 8.96116 2.32646C8.96116 4.46225 7.13795 7.23678 5.6582 9.18504H2.27836L0.922852 1.07968L3.88228 0.79871L4.59895 6.56619C5.26858 5.47526 6.09494 3.76085 6.09494 2.592C6.09494 1.95221 5.98534 1.51642 5.81405 1.15761L8.50906 0.612061ZM12.3446 4.18119C12.8892 4.18119 14.2602 3.93206 14.2602 3.15282C14.2602 2.77865 13.9956 2.592 13.6839 2.592C13.1384 2.592 12.4226 3.24611 12.3446 4.18119ZM12.2822 5.72447C12.2822 6.67596 12.8113 7.04925 13.5127 7.04925C14.2765 7.04925 15.0078 6.8626 15.9583 6.37954L15.6003 8.8107C14.9306 9.13792 13.8868 9.35625 12.8738 9.35625C10.3039 9.35625 9.38422 7.79777 9.38422 5.84944C9.38422 3.32419 10.8803 0.642862 13.9647 0.642862C15.6628 0.642862 16.6124 1.59427 16.6124 2.91905C16.6126 5.05476 13.8715 5.70903 12.2822 5.72447ZM25.1529 2.51407C25.1529 2.82577 25.1056 3.27787 25.0586 3.57332L24.1705 9.18496H21.2889L22.0989 4.04087C22.1143 3.90134 22.1615 3.62045 22.1615 3.4646C22.1615 3.09042 21.9277 2.99706 21.6467 2.99706C21.2734 2.99706 20.8992 3.16834 20.65 3.29339L19.7312 9.18504H16.8333L18.1572 0.783429H20.6653L20.6971 1.45402C21.2888 1.0644 22.068 0.643022 23.1735 0.643022C24.6381 0.642862 25.1529 1.3913 25.1529 2.51407ZM33.7077 1.56259C34.533 0.970878 35.3124 0.642862 36.3869 0.642862C37.8666 0.642862 38.3812 1.3913 38.3812 2.51407C38.3812 2.82577 38.3341 3.27787 38.2871 3.57332L37.4001 9.18496H34.5176L35.3431 3.93214C35.3583 3.79174 35.3902 3.62045 35.3902 3.5118C35.3902 3.0905 35.1564 2.99706 34.8754 2.99706C34.5174 2.99706 34.1597 3.1529 33.8941 3.29339L32.9755 9.18504H30.0937L30.9192 3.93222C30.9344 3.79182 30.9654 3.62053 30.9654 3.51188C30.9654 3.09058 30.7314 2.99714 30.4514 2.99714C30.0773 2.99714 29.7039 3.16842 29.4547 3.29347L28.5352 9.18512H25.6383L26.962 0.783509H29.4395L29.5174 1.4849C30.0937 1.06456 30.8722 0.643182 31.9159 0.643182C32.8195 0.642862 33.4112 1.03256 33.7077 1.56259ZM44.1162 4.01007C44.1162 3.32419 43.9447 2.85657 43.4311 2.85657C42.2938 2.85657 42.0603 4.86715 42.0603 5.89568C42.0603 6.67596 42.2786 7.15886 42.7921 7.15886C43.867 7.15886 44.1162 5.03852 44.1162 4.01007ZM39.1318 5.77151C39.1318 3.12202 40.5334 0.642862 43.7584 0.642862C46.1884 0.642862 47.0767 2.07725 47.0767 4.05711C47.0767 6.67588 45.6902 9.38785 42.3874 9.38785C39.9417 9.38785 39.1318 7.78217 39.1318 5.77151Z" fill="#306CB5"/>
</svg>
