<svg width="34" height="11" viewBox="0 0 34 11" fill="none" xmlns="http://www.w3.org/2000/svg">
<path d="M13.6794 0.170776L11.9854 10.1121H14.6947L16.3902 0.170776H13.6794Z" fill="#306CB5"/>
<path d="M9.71421 0.1819L7.06059 6.96159L6.77767 5.93791C6.25433 4.70448 4.76864 2.93308 3.02441 1.81672L5.45086 10.1072L8.31772 10.1023L12.5846 0.17981L9.71421 0.1819Z" fill="#306CB5"/>
<path d="M5.74896 0.893347C5.59147 0.287781 5.13503 0.107296 4.56849 0.0856934H0.367851L0.333008 0.2836C3.60195 1.07662 5.76499 2.98739 6.66253 5.28492L5.74896 0.893347Z" fill="#306CB5"/>
<path d="M21.8818 2.07662C22.7682 2.06269 23.4107 2.25641 23.9097 2.45711L24.1543 2.57209L24.5208 0.417415C23.9842 0.216024 23.1431 0 22.0937 0C19.4164 0 17.5293 1.34841 17.5147 3.28079C17.4972 4.70864 18.8589 5.50584 19.8874 5.98179C20.9432 6.46959 21.2972 6.77969 21.2923 7.21523C21.2839 7.88072 20.4505 8.18594 19.6721 8.18594C18.5871 8.18594 18.0108 8.03612 17.1209 7.66539L16.7718 7.50651L16.3906 9.73157C17.0248 10.0096 18.1948 10.2486 19.4094 10.2612C22.2574 10.2612 24.1083 8.92879 24.1278 6.86401C24.1396 5.73441 23.417 4.8724 21.8512 4.1651C20.9035 3.70378 20.3237 3.39716 20.3292 2.93166C20.3292 2.51843 20.8212 2.07662 21.8818 2.07662Z" fill="#306CB5"/>
<path d="M31.4743 0.181885H29.3809C28.7307 0.181885 28.2471 0.358886 27.9614 1.00696L23.9385 10.1176H26.7837C26.7837 10.1176 27.2478 8.89256 27.3531 8.62427C27.6646 8.62427 30.429 8.62845 30.8227 8.62845C30.9035 8.97549 31.153 10.1176 31.153 10.1176H33.6666L31.4743 0.181885ZM28.1328 6.58946C28.3558 6.01873 29.2123 3.8111 29.2123 3.8111C29.1976 3.83828 29.4332 3.23619 29.5732 2.86198L29.7558 3.71912C29.7558 3.71912 30.275 6.0926 30.3837 6.58946H28.1328Z" fill="#306CB5"/>
</svg>
