<svg width="15" height="14" viewBox="0 0 15 14" fill="none" xmlns="http://www.w3.org/2000/svg">
<path d="M7.15335 1.21253C7.18155 1.14375 7.22957 1.08491 7.2913 1.0435C7.35303 1.00209 7.42568 0.97998 7.50002 0.97998C7.57435 0.97998 7.64701 1.00209 7.70874 1.0435C7.77047 1.08491 7.81849 1.14375 7.84669 1.21253L9.26335 4.61986C9.28987 4.68362 9.33346 4.73883 9.38933 4.77941C9.4452 4.81998 9.51119 4.84437 9.58002 4.84986L13.2587 5.14453C13.5914 5.1712 13.726 5.58653 13.4727 5.8032L10.67 8.20453C10.6177 8.24932 10.5786 8.30767 10.5572 8.37317C10.5358 8.43867 10.5329 8.50879 10.5487 8.57586L11.4054 12.1659C11.4226 12.2379 11.4181 12.3134 11.3924 12.3829C11.3667 12.4523 11.321 12.5126 11.2611 12.5561C11.2012 12.5997 11.1297 12.6244 11.0557 12.6274C10.9817 12.6303 10.9085 12.6112 10.8454 12.5725L7.69535 10.6492C7.63651 10.6133 7.56893 10.5944 7.50002 10.5944C7.43111 10.5944 7.36353 10.6133 7.30469 10.6492L4.15469 12.5732C4.09152 12.6119 4.01832 12.6309 3.94432 12.628C3.87033 12.6251 3.79885 12.6003 3.73893 12.5568C3.67901 12.5133 3.63333 12.453 3.60765 12.3835C3.58198 12.3141 3.57747 12.2386 3.59469 12.1665L4.45135 8.57586C4.46724 8.5088 4.46432 8.43865 4.44291 8.37313C4.42151 8.30762 4.38244 8.24928 4.33002 8.20453L1.52735 5.8032C1.47123 5.75494 1.43063 5.69116 1.41065 5.61989C1.39068 5.54861 1.39222 5.47302 1.4151 5.40263C1.43797 5.33223 1.48114 5.27017 1.5392 5.22424C1.59725 5.17832 1.66758 5.15059 1.74135 5.14453L5.42002 4.84986C5.48885 4.84437 5.55483 4.81998 5.6107 4.77941C5.66657 4.73883 5.71017 4.68362 5.73669 4.61986L7.15335 1.21253Z" stroke="#D48D3B" stroke-width="1.5" stroke-linecap="round" stroke-linejoin="round"/>
</svg>
