<svg viewBox="0 0 156 46" fill="none" xmlns="http://www.w3.org/2000/svg">
<g clip-path="url(#clip0_706_29169)">
<g clip-path="url(#clip1_706_29169)">
<g clip-path="url(#clip2_706_29169)">
<path d="M150.205 0H6.76096C3.66866 0 1.16187 2.5068 1.16187 5.59909V39.5709C1.16187 42.6632 3.66866 45.17 6.76096 45.17H150.205C153.297 45.17 155.804 42.6632 155.804 39.5709V5.59909C155.804 2.5068 153.297 0 150.205 0Z" fill="black"/>
<path d="M25.0366 21.9082L12.5708 35.1381C12.572 35.1405 12.572 35.144 12.5731 35.1464C12.956 36.5829 14.2673 37.6401 15.8245 37.6401C16.4474 37.6401 17.0316 37.4715 17.5327 37.1765L17.5726 37.1531L31.6038 29.0571L25.0366 21.9082Z" fill="#EA4335"/>
<path d="M37.6434 19.6561L37.6317 19.6479L31.5738 16.1367L24.749 22.2096L31.5984 29.0564L37.6236 25.5803C38.6796 25.0089 39.3973 23.8956 39.3973 22.6124C39.3973 21.3362 38.6901 20.2287 37.6434 19.6561Z" fill="#FBBC04"/>
<path d="M12.5691 10.0293C12.4941 10.3056 12.4543 10.596 12.4543 10.8957V34.2741C12.4543 34.5738 12.4941 34.8641 12.5703 35.1393L25.4634 22.2477L12.5691 10.0293Z" fill="#4285F4"/>
<path d="M25.1291 22.5857L31.5804 16.1358L17.5655 8.01049C17.0562 7.70492 16.4615 7.5293 15.8257 7.5293C14.2685 7.5293 12.9548 8.58887 12.572 10.0266L12.5708 10.0301L25.1291 22.5857Z" fill="#34A853"/>
<path d="M57.7474 11.2675C57.7474 12.195 57.473 12.9331 56.9229 13.4842C56.2977 14.1394 55.4842 14.4669 54.4838 14.4669C53.5243 14.4669 52.7097 14.1349 52.0402 13.4699C51.3684 12.8059 51.0342 11.9813 51.0342 10.9987C51.0342 10.0148 51.3684 9.19153 52.0402 8.5264C52.7097 7.86241 53.5243 7.5293 54.4838 7.5293C54.9585 7.5293 55.4145 7.62226 55.8461 7.80818C56.2789 7.9941 56.6252 8.24088 56.8853 8.54963L56.301 9.13399C55.8616 8.60939 55.2562 8.34602 54.4838 8.34602C53.7843 8.34602 53.1801 8.59169 52.6699 9.08304C52.1597 9.57548 51.9051 10.2129 51.9051 10.9987C51.9051 11.7833 52.1597 12.4218 52.6699 12.9132C53.1801 13.4056 53.7843 13.6502 54.4838 13.6502C55.2252 13.6502 55.8428 13.4035 56.3386 12.9088C56.6596 12.5867 56.8443 12.1396 56.8942 11.5641H54.4838V10.7663H57.7009C57.7319 10.94 57.7474 11.1071 57.7474 11.2675Z" fill="white"/>
<path d="M57.7474 11.2675C57.7474 12.195 57.473 12.9331 56.9229 13.4842C56.2977 14.1394 55.4842 14.4669 54.4838 14.4669C53.5243 14.4669 52.7097 14.1349 52.0402 13.4699C51.3684 12.8059 51.0342 11.9813 51.0342 10.9987C51.0342 10.0148 51.3684 9.19153 52.0402 8.5264C52.7097 7.86241 53.5243 7.5293 54.4838 7.5293C54.9585 7.5293 55.4145 7.62226 55.8461 7.80818C56.2789 7.9941 56.6252 8.24088 56.8853 8.54963L56.301 9.13399C55.8616 8.60939 55.2562 8.34602 54.4838 8.34602C53.7843 8.34602 53.1801 8.59169 52.6699 9.08304C52.1597 9.57548 51.9051 10.2129 51.9051 10.9987C51.9051 11.7833 52.1597 12.4218 52.6699 12.9132C53.1801 13.4056 53.7843 13.6502 54.4838 13.6502C55.2252 13.6502 55.8428 13.4035 56.3386 12.9088C56.6596 12.5867 56.8443 12.1396 56.8942 11.5641H54.4838V10.7663H57.7009C57.7319 10.94 57.7474 11.1071 57.7474 11.2675Z" fill="white"/>
<path d="M62.8527 8.49334H59.8293V10.5982H62.5562V11.3961H59.8293V13.5009H62.8527V14.3177H58.9761V7.67773H62.8527V8.49334Z" fill="white"/>
<path d="M62.8527 8.49334H59.8293V10.5982H62.5562V11.3961H59.8293V13.5009H62.8527V14.3177H58.9761V7.67773H62.8527V8.49334Z" fill="white"/>
<path d="M66.4464 14.3177H65.5931V8.49334H63.7383V7.67773H68.3012V8.49334H66.4464V14.3177Z" fill="white"/>
<path d="M66.4464 14.3177H65.5931V8.49334H63.7383V7.67773H68.3012V8.49334H66.4464V14.3177Z" fill="white"/>
<path d="M71.6023 7.67773H72.4556V14.3177H71.6023V7.67773Z" fill="white"/>
<path d="M76.2425 14.3177H75.3892V8.49334H73.5344V7.67773H78.0973V8.49334H76.2425V14.3177Z" fill="white"/>
<path d="M76.2425 14.3177H75.3892V8.49334H73.5344V7.67773H78.0973V8.49334H76.2425V14.3177Z" fill="white"/>
<path d="M82.4967 12.9043C82.9881 13.4023 83.589 13.6502 84.3006 13.6502C85.0122 13.6502 85.6132 13.4023 86.1045 12.9043C86.5959 12.4063 86.8427 11.7711 86.8427 10.9987C86.8427 10.2262 86.5959 9.58993 86.1045 9.09297C85.6132 8.59501 85.0122 8.34602 84.3006 8.34602C83.589 8.34602 82.9881 8.59501 82.4967 9.09297C82.0065 9.58993 81.7596 10.2262 81.7596 10.9987C81.7596 11.7711 82.0065 12.4063 82.4967 12.9043ZM86.7353 13.4598C86.0824 14.1316 85.2712 14.4669 84.3006 14.4669C83.33 14.4669 82.5189 14.1316 81.867 13.4598C81.2141 12.7892 80.8887 11.9692 80.8887 10.9987C80.8887 10.0281 81.2141 9.20698 81.867 8.53635C82.5189 7.86572 83.33 7.5293 84.3006 7.5293C85.2656 7.5293 86.0746 7.86683 86.7309 8.54078C87.3861 9.21475 87.7137 10.0337 87.7137 10.9987C87.7137 11.9692 87.3872 12.7892 86.7353 13.4598Z" fill="white"/>
<path d="M82.4967 12.9043C82.9881 13.4023 83.589 13.6502 84.3006 13.6502C85.0122 13.6502 85.6132 13.4023 86.1045 12.9043C86.5959 12.4063 86.8427 11.7711 86.8427 10.9987C86.8427 10.2262 86.5959 9.58993 86.1045 9.09297C85.6132 8.59501 85.0122 8.34602 84.3006 8.34602C83.589 8.34602 82.9881 8.59501 82.4967 9.09297C82.0065 9.58993 81.7596 10.2262 81.7596 10.9987C81.7596 11.7711 82.0065 12.4063 82.4967 12.9043ZM86.7353 13.4598C86.0824 14.1316 85.2712 14.4669 84.3006 14.4669C83.33 14.4669 82.5189 14.1316 81.867 13.4598C81.2141 12.7892 80.8887 11.9692 80.8887 10.9987C80.8887 10.0281 81.2141 9.20698 81.867 8.53635C82.5189 7.86572 83.33 7.5293 84.3006 7.5293C85.2656 7.5293 86.0746 7.86683 86.7309 8.54078C87.3861 9.21475 87.7137 10.0337 87.7137 10.9987C87.7137 11.9692 87.3872 12.7892 86.7353 13.4598Z" fill="white"/>
<path d="M88.9065 14.3177V7.67773H89.9446L93.1721 12.8425H93.2091L93.1721 11.5632V7.67773H94.0258V14.3177H93.135L89.7587 8.9017H89.7222L89.7587 10.1821V14.3177H88.9065Z" fill="white"/>
<path d="M88.9065 14.3177V7.67773H89.9446L93.1721 12.8425H93.2091L93.1721 11.5632V7.67773H94.0258V14.3177H93.135L89.7587 8.9017H89.7222L89.7587 10.1821V14.3177H88.9065Z" fill="white"/>
<path d="M123.615 33.1313H125.68V19.297H123.615V33.1313ZM142.215 24.2803L139.847 30.2784H139.777L137.319 24.2803H135.095L138.779 32.6632L136.68 37.3266H138.833L144.511 24.2803H142.215ZM130.504 31.5598C129.827 31.5598 128.883 31.2223 128.883 30.3846C128.883 29.3178 130.058 28.9084 131.072 28.9084C131.98 28.9084 132.408 29.1042 132.96 29.3709C132.799 30.6524 131.696 31.5598 130.504 31.5598ZM130.753 23.9781C129.257 23.9781 127.708 24.6366 127.068 26.0963L128.901 26.861C129.293 26.0963 130.023 25.8462 130.788 25.8462C131.856 25.8462 132.941 26.487 132.96 27.6268V27.7685C132.586 27.5549 131.785 27.2351 130.806 27.2351C128.83 27.2351 126.818 28.3207 126.818 30.3492C126.818 32.2006 128.439 33.3936 130.254 33.3936C131.642 33.3936 132.408 32.7706 132.888 32.0402H132.96V33.1081H134.952V27.8039C134.952 25.3482 133.119 23.9781 130.753 23.9781ZM117.99 25.9646H115.053V21.2226H117.99C119.534 21.2226 120.41 22.5008 120.41 23.5931C120.41 24.6655 119.534 25.9646 117.99 25.9646ZM117.937 19.297H112.989V33.1313H115.053V27.8902H117.937C120.226 27.8902 122.476 26.2324 122.476 23.5931C122.476 20.9537 120.226 19.297 117.937 19.297ZM90.9551 31.5621C89.5284 31.5621 88.3343 30.368 88.3343 28.728C88.3343 27.0702 89.5284 25.8573 90.9551 25.8573C92.3635 25.8573 93.4683 27.0702 93.4683 28.728C93.4683 30.368 92.3635 31.5621 90.9551 31.5621ZM93.3265 25.055H93.2542C92.7908 24.5028 91.9 24.0036 90.7771 24.0036C88.4229 24.0036 86.2659 26.0709 86.2659 28.728C86.2659 31.3662 88.4229 33.4169 90.7771 33.4169C91.9 33.4169 92.7908 32.9177 93.2542 32.3467H93.3265V33.0251C93.3265 34.8256 92.3635 35.7884 90.8123 35.7884C89.5461 35.7884 88.7614 34.8787 88.4406 34.1119L86.6399 34.861C87.1567 36.1094 88.5302 37.6421 90.8123 37.6421C93.2371 37.6421 95.2878 36.2156 95.2878 32.7396V24.288H93.3265V25.055ZM96.7143 33.1313H98.7821V19.2959H96.7143V33.1313ZM101.83 28.5675C101.777 26.7492 103.24 25.8219 104.29 25.8219C105.111 25.8219 105.807 26.2313 106.038 26.8201L101.83 28.5675ZM108.249 26.9982C107.858 25.9469 106.662 24.0036 104.22 24.0036C101.795 24.0036 99.7804 25.9104 99.7804 28.7102C99.7804 31.3485 101.777 33.4169 104.451 33.4169C106.609 33.4169 107.858 32.0977 108.374 31.3308L106.77 30.2607C106.235 31.0453 105.503 31.5621 104.451 31.5621C103.399 31.5621 102.65 31.0807 102.169 30.1367L108.463 27.5328L108.249 26.9982ZM58.1072 25.4478V27.4442H62.8848C62.7421 28.5675 62.368 29.3875 61.798 29.9575C61.102 30.6536 60.0141 31.4204 58.1072 31.4204C55.1645 31.4204 52.8648 29.0488 52.8648 26.1074C52.8648 23.1648 55.1645 20.7944 58.1072 20.7944C59.6942 20.7944 60.8529 21.4185 61.7084 22.2209L63.1172 20.8121C61.922 19.6711 60.3361 18.7969 58.1072 18.7969C54.0778 18.7969 50.6902 22.078 50.6902 26.1074C50.6902 30.1367 54.0778 33.4169 58.1072 33.4169C60.2819 33.4169 61.922 32.703 63.2057 31.3662C64.526 30.0471 64.9355 28.1934 64.9355 26.695C64.9355 26.2313 64.9001 25.8042 64.8281 25.4478H58.1072ZM70.3682 31.5621C68.9418 31.5621 67.7111 30.3857 67.7111 28.7102C67.7111 27.0159 68.9418 25.8573 70.3682 25.8573C71.7937 25.8573 73.0243 27.0159 73.0243 28.7102C73.0243 30.3857 71.7937 31.5621 70.3682 31.5621ZM70.3682 24.0036C67.7642 24.0036 65.6427 25.9823 65.6427 28.7102C65.6427 31.4204 67.7642 33.4169 70.3682 33.4169C72.9712 33.4169 75.0927 31.4204 75.0927 28.7102C75.0927 25.9823 72.9712 24.0036 70.3682 24.0036ZM80.6748 31.5621C79.2484 31.5621 78.0177 30.3857 78.0177 28.7102C78.0177 27.0159 79.2484 25.8573 80.6748 25.8573C82.1014 25.8573 83.3309 27.0159 83.3309 28.7102C83.3309 30.3857 82.1014 31.5621 80.6748 31.5621ZM80.6748 24.0036C78.072 24.0036 75.9504 25.9823 75.9504 28.7102C75.9504 31.4204 78.072 33.4169 80.6748 33.4169C83.2778 33.4169 85.3994 31.4204 85.3994 28.7102C85.3994 25.9823 83.2778 24.0036 80.6748 24.0036Z" fill="white"/>
</g>
</g>
</g>
<defs>
<clipPath id="clip0_706_29169">
<rect width="155.41" height="45.17" fill="white" transform="translate(0.409912)"/>
</clipPath>
<clipPath id="clip1_706_29169">
<rect width="155.41" height="45.17" fill="white" transform="translate(0.409912)"/>
</clipPath>
<clipPath id="clip2_706_29169">
<rect width="155.385" height="45.17" fill="white" transform="translate(0.422607)"/>
</clipPath>
</defs>
</svg>
