<svg width="20" height="20" viewBox="0 0 20 20" fill="none" xmlns="http://www.w3.org/2000/svg">
<path d="M9.99984 1.66699C5.40817 1.66699 1.6665 5.40866 1.6665 10.0003C1.6665 14.592 5.40817 18.3337 9.99984 18.3337C14.5915 18.3337 18.3332 14.592 18.3332 10.0003C18.3332 5.40866 14.5915 1.66699 9.99984 1.66699ZM9.37484 6.66699C9.37484 6.32533 9.65817 6.04199 9.99984 6.04199C10.3415 6.04199 10.6248 6.32533 10.6248 6.66699V10.8337C10.6248 11.1753 10.3415 11.4587 9.99984 11.4587C9.65817 11.4587 9.37484 11.1753 9.37484 10.8337V6.66699ZM10.7665 13.6503C10.7248 13.7587 10.6665 13.842 10.5915 13.9253C10.5082 14.0003 10.4165 14.0587 10.3165 14.1003C10.2165 14.142 10.1082 14.167 9.99984 14.167C9.8915 14.167 9.78317 14.142 9.68317 14.1003C9.58317 14.0587 9.4915 14.0003 9.40817 13.9253C9.33317 13.842 9.27484 13.7587 9.23317 13.6503C9.1915 13.5503 9.1665 13.442 9.1665 13.3337C9.1665 13.2253 9.1915 13.117 9.23317 13.017C9.27484 12.917 9.33317 12.8253 9.40817 12.742C9.4915 12.667 9.58317 12.6087 9.68317 12.567C9.88317 12.4837 10.1165 12.4837 10.3165 12.567C10.4165 12.6087 10.5082 12.667 10.5915 12.742C10.6665 12.8253 10.7248 12.917 10.7665 13.017C10.8082 13.117 10.8332 13.2253 10.8332 13.3337C10.8332 13.442 10.8082 13.5503 10.7665 13.6503Z" fill="currentColor"/>
</svg>
