<svg width="34" height="20" viewBox="0 0 34 20" fill="none" xmlns="http://www.w3.org/2000/svg">
<path d="M23.6893 3.18789e-07C21.1144 0.000690045 18.7672 0.978722 16.9983 2.58509C15.228 0.980791 12.8822 0.00206968 10.31 0.00206968C10.2887 0.00206968 10.2667 0.00206968 10.246 0.00206968C4.76846 0.0379355 0.333008 4.50322 0.333008 9.99965C0.333008 15.5182 4.80287 19.9965 10.3093 19.9965C12.8815 19.9965 15.2273 19.0192 16.9969 17.4135C16.6273 17.079 16.2928 16.7086 15.9769 16.321H18.037C17.7265 16.7024 17.3879 17.0597 17.0238 17.3921H17.0224C17.0141 17.4011 17.0052 17.4066 16.9969 17.4142C18.7679 19.0213 21.1164 20.0007 23.6928 20C29.2027 19.9979 33.6677 15.5202 33.6663 9.99965C33.6663 9.99759 33.6663 9.99621 33.6663 9.99483C33.667 4.47426 29.1992 -0.00137913 23.6893 3.18789e-07ZM16.0911 3.61762H17.9874C18.2668 3.95696 18.5263 4.31424 18.7617 4.68807H15.3787C15.5969 4.33079 15.8364 3.96317 16.0911 3.61762ZM14.7895 5.73783H19.3372C19.4989 6.08408 19.6421 6.44204 19.7674 6.80898H14.2506C14.3056 6.70552 14.4984 6.28893 14.7895 5.73783ZM4.40572 12.5461L5.01074 8.72366L3.64583 12.5461H2.91416L2.81917 8.72366L2.17285 12.5461H1.14796L1.99733 7.47663H3.5474L3.60178 10.5873L4.64869 7.47663H6.33023L5.49256 12.5461H4.40572ZM8.02966 12.5378L8.06476 12.133C8.04824 12.135 7.72474 12.622 6.97517 12.622C6.58284 12.622 5.94959 12.4075 5.94959 11.475C5.94959 10.2893 6.9146 9.89619 7.83349 9.89619C7.97803 9.89619 8.28984 9.9224 8.28984 9.9224C8.28984 9.9224 8.32494 9.84998 8.32494 9.6541C8.32494 9.332 8.03585 9.28786 7.64008 9.28786C6.94282 9.28786 6.48234 9.47477 6.48234 9.47477L6.63652 8.55744C6.63652 8.55744 7.19543 8.32293 7.92297 8.32293C8.29947 8.32293 9.38218 8.36293 9.38218 9.60651L8.96507 12.5378H8.02966ZM11.9826 11.2467C11.9826 12.6613 10.6149 12.6006 10.3761 12.6006C9.48474 12.6006 9.20942 12.4772 9.18395 12.4703L9.32574 11.5391C9.32712 11.5308 9.77314 11.7012 10.2694 11.7012C10.5557 11.7012 10.9274 11.6729 10.9274 11.3301C10.9274 10.817 9.59762 10.9398 9.59762 9.721C9.59762 8.64572 10.3947 8.33121 11.1807 8.33121C11.7878 8.33121 12.1609 8.41466 12.1609 8.41466L12.0267 9.35407C12.0267 9.35407 11.4505 9.30648 11.3012 9.30648C10.9233 9.30648 10.7175 9.38925 10.7175 9.6541C10.7168 10.1866 11.9826 9.92585 11.9826 11.2467ZM13.6249 11.6178C13.7192 11.6178 13.8259 11.5853 13.8989 11.5853L13.766 12.4896C13.6593 12.5192 13.3572 12.6268 12.9696 12.6296C12.4747 12.6337 12.123 12.3564 12.123 11.7274C12.123 11.3053 12.7267 7.82702 12.7501 7.80425H13.8121L13.7041 8.42639H14.2341L14.0985 9.42856H13.5361L13.2374 11.275C13.2147 11.4219 13.2553 11.6178 13.6249 11.6178ZM15.961 8.30913C17.127 8.30913 17.476 9.1644 17.476 9.86585C17.476 10.1466 17.3356 10.8363 17.3356 10.8363H15.177C15.177 10.8363 14.9774 11.6881 16.118 11.6881C16.6528 11.6881 17.2461 11.426 17.2461 11.426L17.0589 12.4516C17.0589 12.4516 16.7161 12.6268 15.9369 12.6268C15.0924 12.6268 14.1019 12.2689 14.1019 10.7652C14.1026 9.46236 14.8928 8.30913 15.961 8.30913ZM18.7741 15.2912H15.2349C15.0194 14.9464 14.8184 14.5925 14.6457 14.2208H19.3557C19.1823 14.5905 18.9882 14.9478 18.7741 15.2912ZM18.5367 12.5537H17.4464L18.1092 8.42777H19.0983L19.0033 9.02576C19.0033 9.02576 19.3557 8.37535 19.8314 8.37535C19.9697 8.37535 20.0365 8.38914 20.0365 8.38914C19.8954 8.67745 19.7708 8.94161 19.6414 9.62375C18.9035 9.36166 18.8471 10.7915 18.5367 12.5537ZM22.6906 12.4896C22.6906 12.4896 22.1193 12.6358 21.7614 12.6358C20.4935 12.6358 19.85 11.7591 19.85 10.4314C19.85 8.42915 21.0428 7.36283 22.2687 7.36283C22.8228 7.36283 23.4649 7.62355 23.4649 7.62355L23.2915 8.75125C23.2915 8.75125 22.8572 8.44708 22.3168 8.44708C21.5941 8.44708 20.9457 9.13819 20.9457 10.3942C20.9457 11.0129 21.2479 11.5895 22.0023 11.5895C22.3609 11.5895 22.8806 11.3281 22.8806 11.3281L22.6906 12.4896ZM25.2477 12.5399L25.2835 12.1323C25.2662 12.1344 24.9427 12.6213 24.1939 12.6213C23.8015 12.6213 23.1683 12.4068 23.1683 11.4743C23.1683 10.2886 24.1333 9.8955 25.0515 9.8955C25.196 9.8955 25.5085 9.92171 25.5085 9.92171C25.5085 9.92171 25.5443 9.84998 25.5443 9.6541C25.5443 9.332 25.2552 9.28786 24.8588 9.28786C24.1615 9.28786 23.7017 9.47477 23.7017 9.47477L23.8559 8.55744C23.8559 8.55744 24.4148 8.32293 25.143 8.32293C25.5189 8.32293 26.6022 8.36293 26.6016 9.60651L26.1844 12.5378C26.1838 12.5399 25.2477 12.5399 25.2477 12.5399ZM27.4551 12.5537H26.3648L27.0276 8.42777H28.0174L27.9224 9.02576C27.9224 9.02576 28.2755 8.37535 28.7511 8.37535C28.8895 8.37535 28.9556 8.38914 28.9556 8.38914C28.8152 8.67745 28.6892 8.94161 28.5605 9.62375C27.8219 9.36166 27.7655 10.7915 27.4551 12.5537ZM30.7101 12.5427L30.7562 12.1626C30.7562 12.1626 30.4038 12.6082 29.7664 12.6082C28.8833 12.6082 28.4503 11.7536 28.4503 10.8804C28.4503 9.52995 29.2612 8.35259 30.2344 8.35259C30.8608 8.35397 31.2607 8.90782 31.2607 8.90782L31.4906 7.48353L32.5554 7.48146L31.7432 12.5427H30.7101ZM32.8108 12.3999C32.7826 12.4509 32.7426 12.4903 32.6917 12.5206C32.6415 12.5489 32.5878 12.5634 32.5313 12.5634C32.4763 12.5634 32.4233 12.5489 32.3723 12.5206C32.3214 12.4903 32.2815 12.4509 32.2532 12.3999C32.2243 12.3482 32.2106 12.2958 32.2106 12.2399C32.2106 12.1833 32.225 12.1295 32.2532 12.0785C32.2815 12.0274 32.3235 11.9861 32.3737 11.9585C32.426 11.9302 32.4776 11.9157 32.5313 11.9157C32.5864 11.9157 32.6387 11.9302 32.6896 11.9585C32.7419 11.9868 32.7819 12.0261 32.8108 12.0785C32.8404 12.1302 32.8535 12.184 32.8535 12.2399C32.8535 12.2958 32.8397 12.3489 32.8108 12.3999Z" fill="#306CB5"/>
<path d="M32.7259 15.4504C32.719 15.4456 32.7128 15.4381 32.7018 15.4339C32.6908 15.4298 32.6736 15.4277 32.6467 15.4277H32.582V15.531H32.6509C32.6832 15.531 32.7045 15.5282 32.7169 15.5165C32.7286 15.5069 32.7341 15.4952 32.7341 15.4787C32.7341 15.4677 32.7314 15.4601 32.7259 15.4504Z" fill="#306CB5"/>
<path d="M32.9473 15.3881C32.9177 15.3345 32.8771 15.2966 32.8255 15.2684C32.7738 15.2402 32.7215 15.2257 32.6678 15.2257C32.6128 15.2257 32.5605 15.2402 32.5095 15.2684C32.4586 15.2966 32.4166 15.3358 32.3884 15.3881C32.3588 15.4391 32.3457 15.4928 32.3457 15.5478C32.3457 15.6029 32.3602 15.6573 32.3884 15.7075C32.418 15.7585 32.4579 15.7998 32.5081 15.828C32.5591 15.8562 32.6128 15.8707 32.6692 15.8707C32.7243 15.8707 32.778 15.8562 32.8282 15.828C32.8785 15.7998 32.9191 15.7585 32.9473 15.7075C32.9762 15.6573 32.99 15.6036 32.99 15.5478C32.99 15.4921 32.9755 15.4384 32.9473 15.3881ZM32.7491 15.7268L32.7188 15.6724C32.6947 15.6297 32.6747 15.6015 32.6596 15.5905C32.6499 15.5836 32.6348 15.5781 32.6155 15.5781H32.5832V15.7261H32.5267V15.3785H32.6465C32.6878 15.3785 32.7174 15.382 32.7339 15.3888C32.7525 15.3957 32.7683 15.4054 32.778 15.4226C32.789 15.4384 32.7938 15.4556 32.7938 15.4735C32.7938 15.499 32.7842 15.5203 32.7669 15.5403C32.7491 15.5582 32.7243 15.5699 32.6947 15.5719C32.7071 15.5761 32.7167 15.5829 32.7243 15.5905C32.7387 15.6043 32.7552 15.627 32.7759 15.6587L32.8186 15.7268H32.7491Z" fill="#306CB5"/>
<path d="M7.9195 10.6873C7.14102 10.6873 6.9834 11.0376 6.9834 11.3294C6.9834 11.4798 7.06944 11.7308 7.39914 11.7308C8.03857 11.7308 8.17142 10.8907 8.15077 10.7121C8.12048 10.7059 8.10121 10.6879 7.9195 10.6873Z" fill="#306CB5"/>
<path d="M15.9648 9.2616C15.3859 9.2616 15.2744 9.92031 15.2744 9.98983H16.4535C16.4535 9.93683 16.5643 9.2616 15.9648 9.2616Z" fill="#306CB5"/>
<path d="M30.4183 9.37683C29.951 9.37683 29.5813 9.92033 29.582 10.7459C29.582 11.2494 29.761 11.5722 30.1437 11.5722C30.7191 11.5722 30.9965 10.8197 30.9965 10.259C30.9965 9.64031 30.8003 9.37683 30.4183 9.37683Z" fill="#306CB5"/>
<path d="M32.7631 12.1058C32.739 12.0631 32.7053 12.0301 32.6626 12.006C32.6199 11.9819 32.5766 11.9702 32.5311 11.9702C32.4871 11.9702 32.4423 11.9826 32.3997 12.006C32.357 12.028 32.3233 12.0624 32.2992 12.1058C32.2751 12.1492 32.2627 12.1953 32.2627 12.24C32.2627 12.2861 32.2751 12.3316 32.2978 12.3736C32.3233 12.4162 32.3556 12.4486 32.3983 12.4741C32.441 12.4975 32.485 12.5112 32.5311 12.5112C32.5773 12.5112 32.6227 12.4975 32.664 12.4741C32.7067 12.45 32.7397 12.4169 32.7645 12.3736C32.7886 12.3309 32.7996 12.2861 32.7996 12.24C32.7996 12.1946 32.7872 12.1492 32.7631 12.1058ZM32.6137 12.4169L32.5828 12.3632C32.5587 12.3199 32.5394 12.2923 32.5249 12.282C32.5132 12.2731 32.4995 12.2689 32.4795 12.2689H32.4479V12.4162H32.39V12.0693H32.5105C32.5511 12.0693 32.5814 12.0728 32.5986 12.0803C32.6158 12.0865 32.6309 12.0982 32.6426 12.1134C32.6543 12.1285 32.6585 12.1457 32.6585 12.1643C32.6585 12.1898 32.6488 12.2111 32.6309 12.2304C32.613 12.2504 32.5883 12.2586 32.5594 12.2621C32.5731 12.2676 32.5821 12.2738 32.589 12.28C32.6034 12.2944 32.6199 12.3151 32.6399 12.3481L32.6826 12.4169H32.6137Z" fill="#306CB5"/>
<path d="M25.1392 10.6873C24.3607 10.6873 24.2031 11.0376 24.2031 11.3294C24.2031 11.4798 24.2885 11.7308 24.6189 11.7308C25.2583 11.7308 25.3905 10.8907 25.3705 10.7121C25.3395 10.7059 25.3202 10.6879 25.1392 10.6873Z" fill="#306CB5"/>
<path d="M32.5897 12.1405C32.5842 12.1337 32.5767 12.1282 32.5663 12.1233C32.5546 12.1199 32.5374 12.1165 32.5099 12.1165V12.1171H32.4473V12.2218H32.5154C32.5478 12.2218 32.5691 12.2176 32.5822 12.2073C32.5925 12.197 32.5987 12.1839 32.5987 12.1688C32.5987 12.1571 32.5959 12.1502 32.5897 12.1405Z" fill="#306CB5"/>
</svg>
