<svg xmlns="http://www.w3.org/2000/svg" width="20" height="20" viewBox="0 0 20 20" fill="currentColor">
<path d="M10.5835 14.0662H11.1668C12.1252 14.0662 12.9085 13.2829 12.9085 12.3245V11.7412H10.5835V14.0662Z" fill="currentColor"/>
<path d="M7.0918 12.3245C7.0918 13.2829 7.87513 14.0662 8.83346 14.0662H9.4168V11.7412H7.0918V12.3245Z" fill="currentColor"/>
<path d="M7.0918 10.0005V10.5838H9.4168V8.25879H8.83346C7.87513 8.25879 7.0918 9.04212 7.0918 10.0005Z" fill="currentColor"/>
<path d="M16.6915 5.68373L11.8998 2.3254C10.5915 1.40873 8.5915 1.45873 7.33317 2.43373L3.15817 5.69206C2.3165 6.34206 1.6665 7.6754 1.6665 8.7254V14.4754C1.6665 16.6004 3.3915 18.3337 5.50817 18.3337H14.4832C16.5998 18.3337 18.3248 16.6087 18.3248 14.4837V8.83373C18.3332 7.70873 17.6082 6.3254 16.6915 5.68373ZM14.0665 12.3254C14.0665 13.9254 12.7582 15.2337 11.1582 15.2337H8.83317C7.23317 15.2337 5.92484 13.9337 5.92484 12.3254V10.0004C5.92484 8.4004 7.23317 7.09206 8.83317 7.09206H11.1582C12.7582 7.09206 14.0665 8.39206 14.0665 10.0004V12.3254Z" fill="currentColor"/>
<path d="M11.1668 8.25879H10.5835V10.5838H12.9085V10.0005C12.9085 9.04212 12.1252 8.25879 11.1668 8.25879Z" fill="currentColor"/>
</svg>