<svg width="242" height="278" viewBox="0 0 242 278" fill="none" xmlns="http://www.w3.org/2000/svg">
<path d="M121 262.181C187.374 262.181 241.181 208.374 241.181 142C241.181 75.6261 187.374 21.8193 121 21.8193C54.6261 21.8193 0.819336 75.6261 0.819336 142C0.819336 208.374 54.6261 262.181 121 262.181Z" fill="url(#paint0_linear_256_11243)"/>
<g filter="url(#filter0_d_256_11243)">
<path d="M189.903 90.7227H52.096C47.6711 90.7227 44.084 94.3098 44.084 98.7347V266.988C44.084 271.413 47.6711 275 52.096 275H189.903C194.328 275 197.915 271.413 197.915 266.988V98.7347C197.915 94.3098 194.328 90.7227 189.903 90.7227Z" fill="white"/>
</g>
<path d="M104.976 114.76H63.3131C60.6581 114.76 58.5059 116.912 58.5059 119.567C58.5059 122.222 60.6581 124.374 63.3131 124.374H104.976C107.631 124.374 109.783 122.222 109.783 119.567C109.783 116.912 107.631 114.76 104.976 114.76Z" fill="#B4DAFF"/>
<path d="M133.819 135.591H63.3131C60.6581 135.591 58.5059 137.743 58.5059 140.398C58.5059 143.053 60.6581 145.205 63.3131 145.205H133.819C136.474 145.205 138.626 143.053 138.626 140.398C138.626 137.743 136.474 135.591 133.819 135.591Z" fill="#DFEAFB"/>
<path d="M104.976 158.024H63.3131C60.6581 158.024 58.5059 160.177 58.5059 162.832C58.5059 165.487 60.6581 167.639 63.3131 167.639H104.976C107.631 167.639 109.783 165.487 109.783 162.832C109.783 160.177 107.631 158.024 104.976 158.024Z" fill="#B4DAFF"/>
<path d="M133.819 178.855H63.3131C60.6581 178.855 58.5059 181.008 58.5059 183.663C58.5059 186.318 60.6581 188.47 63.3131 188.47H133.819C136.474 188.47 138.626 186.318 138.626 183.663C138.626 181.008 136.474 178.855 133.819 178.855Z" fill="#DFEAFB"/>
<path d="M104.976 201.289H63.3131C60.6581 201.289 58.5059 203.441 58.5059 206.096C58.5059 208.751 60.6581 210.904 63.3131 210.904H104.976C107.631 210.904 109.783 208.751 109.783 206.096C109.783 203.441 107.631 201.289 104.976 201.289Z" fill="#B4DAFF"/>
<path d="M133.819 222.12H63.3131C60.6581 222.12 58.5059 224.272 58.5059 226.927C58.5059 229.582 60.6581 231.735 63.3131 231.735H133.819C136.474 231.735 138.626 229.582 138.626 226.927C138.626 224.272 136.474 222.12 133.819 222.12Z" fill="#DFEAFB"/>
<g filter="url(#filter1_d_256_11243)">
<path d="M189.903 9H52.096C47.6711 9 44.084 12.5871 44.084 17.012V65.0843C44.084 69.5093 47.6711 73.0964 52.096 73.0964H189.903C194.328 73.0964 197.915 69.5093 197.915 65.0843V17.012C197.915 12.5871 194.328 9 189.903 9Z" fill="#306CB5"/>
</g>
<path d="M104.976 26.627H63.3131C60.6581 26.627 58.5059 28.7792 58.5059 31.4342C58.5059 34.0891 60.6581 36.2414 63.3131 36.2414H104.976C107.631 36.2414 109.783 34.0891 109.783 31.4342C109.783 28.7792 107.631 26.627 104.976 26.627Z" fill="#B4DAFF"/>
<path d="M133.819 47.458H63.3131C60.6581 47.458 58.5059 49.6103 58.5059 52.2652C58.5059 54.9202 60.6581 57.0725 63.3131 57.0725H133.819C136.474 57.0725 138.626 54.9202 138.626 52.2652C138.626 49.6103 136.474 47.458 133.819 47.458Z" fill="white"/>
<defs>
<filter id="filter0_d_256_11243" x="38.084" y="81.7227" width="165.831" height="196.277" filterUnits="userSpaceOnUse" color-interpolation-filters="sRGB">
<feFlood flood-opacity="0" result="BackgroundImageFix"/>
<feColorMatrix in="SourceAlpha" type="matrix" values="0 0 0 0 0 0 0 0 0 0 0 0 0 0 0 0 0 0 127 0" result="hardAlpha"/>
<feOffset dy="-3"/>
<feGaussianBlur stdDeviation="3"/>
<feColorMatrix type="matrix" values="0 0 0 0 0.788235 0 0 0 0 0.803922 0 0 0 0 0.85098 0 0 0 0.349 0"/>
<feBlend mode="normal" in2="BackgroundImageFix" result="effect1_dropShadow_256_11243"/>
<feBlend mode="normal" in="SourceGraphic" in2="effect1_dropShadow_256_11243" result="shape"/>
</filter>
<filter id="filter1_d_256_11243" x="38.084" y="0" width="165.831" height="76.0967" filterUnits="userSpaceOnUse" color-interpolation-filters="sRGB">
<feFlood flood-opacity="0" result="BackgroundImageFix"/>
<feColorMatrix in="SourceAlpha" type="matrix" values="0 0 0 0 0 0 0 0 0 0 0 0 0 0 0 0 0 0 127 0" result="hardAlpha"/>
<feOffset dy="-3"/>
<feGaussianBlur stdDeviation="3"/>
<feColorMatrix type="matrix" values="0 0 0 0 0.788235 0 0 0 0 0.803922 0 0 0 0 0.85098 0 0 0 0.349 0"/>
<feBlend mode="normal" in2="BackgroundImageFix" result="effect1_dropShadow_256_11243"/>
<feBlend mode="normal" in="SourceGraphic" in2="effect1_dropShadow_256_11243" result="shape"/>
</filter>
<linearGradient id="paint0_linear_256_11243" x1="121" y1="21.8193" x2="121" y2="262.181" gradientUnits="userSpaceOnUse">
<stop stop-color="#E3ECFA"/>
<stop offset="1" stop-color="#DAE7FF"/>
</linearGradient>
</defs>
</svg>
