<svg width="18" height="18" viewBox="0 0 18 18" fill="none" xmlns="http://www.w3.org/2000/svg">
<path d="M8.99935 0.666687C4.40768 0.666687 0.666016 4.40835 0.666016 9.00002C0.666016 13.5917 4.40768 17.3334 8.99935 17.3334C13.591 17.3334 17.3327 13.5917 17.3327 9.00002C17.3327 4.40835 13.591 0.666687 8.99935 0.666687ZM12.3327 9.62502H9.62435V12.3334C9.62435 12.675 9.34102 12.9584 8.99935 12.9584C8.65768 12.9584 8.37435 12.675 8.37435 12.3334V9.62502H5.66602C5.32435 9.62502 5.04102 9.34169 5.04102 9.00002C5.04102 8.65835 5.32435 8.37502 5.66602 8.37502H8.37435V5.66669C8.37435 5.32502 8.65768 5.04169 8.99935 5.04169C9.34102 5.04169 9.62435 5.32502 9.62435 5.66669V8.37502H12.3327C12.6743 8.37502 12.9577 8.65835 12.9577 9.00002C12.9577 9.34169 12.6743 9.62502 12.3327 9.62502Z" fill="#306CB5"/>
</svg>
