<svg xmlns="http://www.w3.org/2000/svg" width="24" height="24" viewBox="0 0 20 20" fill="currentColor">
<path d="M18.3332 10.0003C18.3332 5.40866 14.5915 1.66699 9.99984 1.66699C5.40817 1.66699 1.6665 5.40866 1.6665 10.0003C1.6665 12.417 2.70817 14.592 4.35817 16.117C4.35817 16.1253 4.35817 16.1253 4.34984 16.1337C4.43317 16.217 4.53317 16.2837 4.6165 16.3587C4.6665 16.4003 4.70817 16.442 4.75817 16.4753C4.90817 16.6003 5.07484 16.717 5.23317 16.8337C5.2915 16.8753 5.3415 16.9087 5.39984 16.9503C5.55817 17.0587 5.72484 17.1587 5.89984 17.2503C5.95817 17.2837 6.02484 17.3253 6.08317 17.3587C6.24984 17.4503 6.42484 17.5337 6.60817 17.6087C6.67484 17.642 6.7415 17.6753 6.80817 17.7003C6.9915 17.7753 7.17484 17.842 7.35817 17.9003C7.42484 17.9253 7.4915 17.9503 7.55817 17.967C7.75817 18.0253 7.95817 18.0753 8.15817 18.1253C8.2165 18.142 8.27484 18.1587 8.3415 18.167C8.57484 18.217 8.80817 18.2503 9.04984 18.2753C9.08317 18.2753 9.1165 18.2837 9.14984 18.292C9.43317 18.317 9.7165 18.3337 9.99984 18.3337C10.2832 18.3337 10.5665 18.317 10.8415 18.292C10.8748 18.292 10.9082 18.2837 10.9415 18.2753C11.1832 18.2503 11.4165 18.217 11.6498 18.167C11.7082 18.1587 11.7665 18.1337 11.8332 18.1253C12.0332 18.0753 12.2415 18.0337 12.4332 17.967C12.4998 17.942 12.5665 17.917 12.6332 17.9003C12.8165 17.8337 13.0082 17.7753 13.1832 17.7003C13.2498 17.6753 13.3165 17.642 13.3832 17.6087C13.5582 17.5337 13.7332 17.4503 13.9082 17.3587C13.9748 17.3253 14.0332 17.2837 14.0915 17.2503C14.2582 17.1503 14.4248 17.0587 14.5915 16.9503C14.6498 16.917 14.6998 16.8753 14.7582 16.8337C14.9248 16.717 15.0832 16.6003 15.2332 16.4753C15.2832 16.4337 15.3248 16.392 15.3748 16.3587C15.4665 16.2837 15.5582 16.2087 15.6415 16.1337C15.6415 16.1253 15.6415 16.1253 15.6332 16.117C17.2915 14.592 18.3332 12.417 18.3332 10.0003ZM14.1165 14.142C11.8582 12.6253 8.15817 12.6253 5.88317 14.142C5.5165 14.3837 5.2165 14.667 4.9665 14.9753C3.69984 13.692 2.9165 11.9337 2.9165 10.0003C2.9165 6.09199 6.0915 2.91699 9.99984 2.91699C13.9082 2.91699 17.0832 6.09199 17.0832 10.0003C17.0832 11.9337 16.2998 13.692 15.0332 14.9753C14.7915 14.667 14.4832 14.3837 14.1165 14.142Z" fill="currentColor"/>
<path d="M10 5.77539C8.275 5.77539 6.875 7.17539 6.875 8.90039C6.875 10.5921 8.2 11.9671 9.95833 12.0171C9.98333 12.0171 10.0167 12.0171 10.0333 12.0171C10.05 12.0171 10.075 12.0171 10.0917 12.0171C10.1 12.0171 10.1083 12.0171 10.1083 12.0171C11.7917 11.9587 13.1167 10.5921 13.125 8.90039C13.125 7.17539 11.725 5.77539 10 5.77539Z" fill="currentColor"/>
</svg>