<svg width="61" height="61" viewBox="0 0 61 61" fill="none" xmlns="http://www.w3.org/2000/svg">
<rect x="0.5" y="0.101562" width="60" height="60" rx="30" fill="white"/>
<path d="M33.4866 18.1016C34.3772 18.0989 35.2485 18.3605 35.9903 18.8534C36.7321 19.3462 37.311 20.0481 37.6537 20.8701C37.9963 21.6921 38.0874 22.5974 37.9153 23.4712C37.7432 24.345 37.3157 25.1481 36.6869 25.7787C36.0581 26.4094 35.2563 26.8394 34.383 27.0141C33.5097 27.1888 32.6042 27.1005 31.7812 26.7603C30.9581 26.4201 30.2545 25.8433 29.7594 25.103C29.2644 24.3627 29.0001 23.4922 29.0001 22.6016C29.0001 21.4107 29.4721 20.2684 30.3128 19.4249C31.1535 18.5814 32.2942 18.1055 33.4851 18.1016M33.4851 15.1016C32.0018 15.1016 30.5517 15.5414 29.3183 16.3655C28.085 17.1897 27.1237 18.361 26.556 19.7314C25.9884 21.1019 25.8398 22.6099 26.1292 24.0647C26.4186 25.5196 27.1329 26.856 28.1818 27.9049C29.2307 28.9538 30.5671 29.6681 32.0219 29.9575C33.4768 30.2468 34.9848 30.0983 36.3552 29.5307C37.7257 28.963 38.897 28.0017 39.7211 26.7683C40.5452 25.535 40.9851 24.0849 40.9851 22.6016C40.9863 21.6163 40.7931 20.6405 40.4166 19.73C40.0401 18.8196 39.4877 17.9923 38.7911 17.2956C38.0944 16.599 37.2671 16.0465 36.3566 15.6701C35.4462 15.2936 34.4704 15.1004 33.4851 15.1016Z" fill="#222222"/>
<path d="M42.5 36.1016V42.1016H36.5V36.1016H42.5ZM45.5 33.1016H33.5V45.1016H45.5V33.1016Z" fill="#222222"/>
<path d="M23 31.7786L25.4 36.1016H20.6L23 31.7786ZM23 25.6016L15.5 39.1016H30.5L23 25.6016Z" fill="#222222"/>
</svg>
