<svg width="77" height="77" viewBox="0 0 77 77" fill="none" xmlns="http://www.w3.org/2000/svg">
<rect x="0.724609" y="0.551758" width="75.5517" height="75.5517" rx="37.7759" fill="white" stroke="#306CB5"/>
<path d="M45.1833 22.3794H31.8187C26.0135 22.3794 22.5527 25.8402 22.5527 31.6453V44.9941C22.5527 50.8152 26.0135 54.2759 31.8187 54.2759H45.1674C50.9726 54.2759 54.4333 50.8152 54.4333 45.01V31.6453C54.4493 25.8402 50.9885 22.3794 45.1833 22.3794ZM46.2838 42.0436C46.2838 42.1872 46.2519 42.3307 46.204 42.4742C46.0924 42.7453 45.8691 42.9686 45.598 43.0803C45.4545 43.1441 45.3109 43.16 45.1674 43.16H42.201C41.579 43.16 41.0846 42.6656 41.0846 42.0436C41.0846 41.4216 41.579 40.9272 42.201 40.9272H42.4881L39.123 37.5622L37.4963 39.9863C37.3049 40.2574 37.0178 40.4488 36.6829 40.4807C36.348 40.5126 36.029 40.4009 35.7898 40.1617L31.0372 35.4091C30.6066 34.9785 30.6066 34.2768 31.0372 33.8303C31.4678 33.3837 32.1695 33.3997 32.6161 33.8303L36.4118 37.6259L38.0385 35.2018C38.2299 34.9307 38.517 34.7393 38.8519 34.7074C39.2027 34.6755 39.5058 34.7872 39.745 35.0264L44.0829 39.3643V39.0772C44.0829 38.4553 44.5773 37.9609 45.1993 37.9609C45.8213 37.9609 46.3157 38.4553 46.3157 39.0772V42.0436H46.2838Z" fill="#306CB5"/>
</svg>
