<svg width="114" height="114" viewBox="0 0 114 114" fill="none" xmlns="http://www.w3.org/2000/svg">
<rect x="0.5" y="0.5" width="113" height="113" rx="4" fill="#DFEDFF"/>
<path d="M43.049 90.3572H70.9502C84.9706 90.3572 87.4817 84.742 88.2141 77.9062L90.8299 50.005C91.7715 41.4951 89.3302 34.5547 74.4379 34.5547H39.5613C24.6691 34.5547 22.2277 41.4951 23.1694 50.005L25.7851 77.9062C26.5175 84.742 29.0286 90.3572 43.049 90.3572Z" stroke="#306CB5" stroke-width="1.5" stroke-miterlimit="10" stroke-linecap="round" stroke-linejoin="round"/>
<path d="M43.0493 34.5561V31.766C43.0493 25.5928 43.0493 20.6055 54.2098 20.6055H59.7901C70.9506 20.6055 70.9506 25.5928 70.9506 31.766V34.5561" stroke="#306CB5" stroke-width="1.5" stroke-miterlimit="10" stroke-linecap="round" stroke-linejoin="round"/>
<path d="M63.975 58.9681V62.4558C63.975 62.4907 63.975 62.4907 63.975 62.5255C63.975 66.3271 63.9402 69.4311 56.9997 69.4311C50.0942 69.4311 50.0244 66.362 50.0244 62.5604V58.9681C50.0244 55.4805 50.0244 55.4805 53.5121 55.4805H60.4874C63.975 55.4805 63.975 55.4805 63.975 58.9681Z" stroke="#306CB5" stroke-width="1.5" stroke-miterlimit="10" stroke-linecap="round" stroke-linejoin="round"/>
<path d="M90.6557 51.9922C82.5992 57.8514 73.3918 61.3391 63.9751 62.5249" stroke="#306CB5" stroke-width="1.5" stroke-miterlimit="10" stroke-linecap="round" stroke-linejoin="round"/>
<path d="M24.2856 52.9336C32.1329 58.3046 40.9915 61.5481 50.0245 62.5595" stroke="#306CB5" stroke-width="1.5" stroke-miterlimit="10" stroke-linecap="round" stroke-linejoin="round"/>
</svg>
