<svg xmlns="http://www.w3.org/2000/svg" width="21" height="20" viewBox="0 0 21 20" fill="currentColor">
<path d="M13.9915 1.66699H7.00817C3.97484 1.66699 2.1665 3.47533 2.1665 6.50866V13.492C2.1665 15.8337 3.2415 17.442 5.13317 18.0503C5.68317 18.242 6.3165 18.3337 7.00817 18.3337H13.9915C14.6832 18.3337 15.3165 18.242 15.8665 18.0503C17.7582 17.442 18.8332 15.8337 18.8332 13.492V6.50866C18.8332 3.47533 17.0248 1.66699 13.9915 1.66699ZM17.5832 13.492C17.5832 15.2753 16.8832 16.4003 15.4748 16.867C14.6665 15.2753 12.7498 14.142 10.4998 14.142C8.24984 14.142 6.3415 15.267 5.52484 16.867H5.5165C4.12484 16.417 3.4165 15.2837 3.4165 13.5003V6.50866C3.4165 4.15866 4.65817 2.91699 7.00817 2.91699H13.9915C16.3415 2.91699 17.5832 4.15866 17.5832 6.50866V13.492Z" fill="currentColor"/>
<path d="M10.4999 6.66699C8.84993 6.66699 7.5166 8.00033 7.5166 9.65033C7.5166 11.3003 8.84993 12.642 10.4999 12.642C12.1499 12.642 13.4833 11.3003 13.4833 9.65033C13.4833 8.00033 12.1499 6.66699 10.4999 6.66699Z" fill="currentColor"/>
</svg>