<svg width="20" height="20" viewBox="0 0 20 20" fill="none" xmlns="http://www.w3.org/2000/svg">
<path d="M10 10.8333C11.3807 10.8333 12.5 9.71406 12.5 8.33334C12.5 6.95263 11.3807 5.83334 10 5.83334C8.61929 5.83334 7.5 6.95263 7.5 8.33334C7.5 9.71406 8.61929 10.8333 10 10.8333Z" stroke="#CC0000" stroke-width="2" stroke-linecap="round" stroke-linejoin="round"/>
<path d="M9.99967 1.66667C8.23156 1.66667 6.53587 2.36905 5.28563 3.61929C4.03539 4.86954 3.33301 6.56523 3.33301 8.33334C3.33301 9.91 3.66801 10.9417 4.58301 12.0833L9.99967 18.3333L15.4163 12.0833C16.3313 10.9417 16.6663 9.91 16.6663 8.33334C16.6663 6.56523 15.964 4.86954 14.7137 3.61929C13.4635 2.36905 11.7678 1.66667 9.99967 1.66667Z" stroke="#CC0000" stroke-width="2" stroke-linecap="round" stroke-linejoin="round"/>
</svg>
