<svg width="34" height="12" viewBox="0 0 34 12" fill="none" xmlns="http://www.w3.org/2000/svg">
<path d="M24.3777 1.25122L23.7646 2.73968H24.997L24.3777 1.25122Z" fill="#306CB5"/>
<path d="M3.18911 1.25122L2.58301 2.73968H3.80008L3.18911 1.25122Z" fill="#306CB5"/>
<path d="M17.256 1.46203C17.1502 1.40219 16.9873 1.39453 16.8329 1.39453H15.7334V2.22331H16.8183C16.9901 2.22331 17.1349 2.22052 17.2594 2.14676C17.3743 2.08622 17.4431 1.9547 17.4431 1.79187C17.4431 1.63182 17.3715 1.51631 17.256 1.46203Z" fill="#306CB5"/>
<path d="M21.081 7.88488C20.9724 7.82017 20.8124 7.81738 20.6551 7.81738H19.5557V8.6559H20.6405C20.8145 8.6559 20.9627 8.65033 21.0831 8.58005C21.1986 8.50907 21.2675 8.38173 21.2675 8.22098C21.2654 8.06024 21.1965 7.94473 21.081 7.88488Z" fill="#306CB5"/>
<path d="M16.7348 7.81604H15.5713V8.76729H16.7236C17.0667 8.76729 17.2803 8.5975 17.2803 8.27531C17.2796 7.94686 17.0577 7.81604 16.7348 7.81604Z" fill="#306CB5"/>
<path d="M33.2215 8.37685C33.2152 8.37059 33.2082 8.36363 33.202 8.35876C33.3711 8.24882 33.4838 8.05815 33.4838 7.84104V7.04566C33.4838 6.70399 33.2075 6.42843 32.8666 6.42843H31.0782C30.5208 6.42843 30.1005 6.59265 29.7943 6.84038C29.7087 6.601 29.4888 6.42843 29.2195 6.42843H27.4311C26.9392 6.42843 26.5516 6.55021 26.2565 6.75062C26.1494 6.55925 25.9566 6.42843 25.7256 6.42843H22.7473C22.5072 6.42843 22.3047 6.5683 22.2024 6.76801C22.16 6.73809 22.1286 6.7033 22.0841 6.67685C21.652 6.44583 21.1927 6.42843 20.7195 6.42843H18.6577C18.4176 6.42843 18.2144 6.56969 18.1128 6.7708C17.799 6.56691 17.3599 6.42843 16.7357 6.42843H13.884C13.7121 6.42843 13.5486 6.49802 13.431 6.62466L12.7553 7.35324L12.1068 6.63301C11.9906 6.5001 11.8243 6.42773 11.6482 6.42773H8.05892C7.71795 6.42773 7.44238 6.70399 7.44238 7.04497V10.7797C7.44238 11.1213 7.71864 11.3969 8.05892 11.3969H11.5946C11.7665 11.3969 11.93 11.3252 12.0469 11.1986L12.7282 10.4617L13.3746 11.1888C13.4915 11.3211 13.6599 11.3955 13.836 11.3955H15.5708C15.9125 11.3955 16.188 11.1193 16.188 10.7797V10.1423H16.6842C17.2875 10.1423 17.7238 10.0184 18.0411 9.82982V10.7797C18.0411 11.12 18.3174 11.3955 18.6584 11.3955H19.5553C19.897 11.3955 20.1726 11.1193 20.1726 10.7797V10.0309H20.5087C20.5908 10.0309 20.6485 10.0337 20.6903 10.0365C20.6931 10.1033 20.6931 10.1833 20.6917 10.2362V10.7797C20.6917 11.12 20.9693 11.3955 21.3089 11.3955H22.2045C22.3047 11.3955 22.3952 11.3684 22.4773 11.3259C22.5608 11.367 22.6505 11.3955 22.7494 11.3955H25.7284C25.8251 11.3955 25.9149 11.3684 25.9963 11.3287C26.0777 11.3684 26.1654 11.3955 26.2642 11.3955H28.0025C28.5557 11.3955 29.0066 11.2598 29.3441 11.0204C29.4366 11.2403 29.6551 11.3955 29.9105 11.3955H31.6488C32.9132 11.3955 33.6668 10.724 33.6668 9.60019C33.6668 9.07968 33.5262 8.69208 33.2215 8.37685ZM16.6849 9.52503H15.5715V10.7783H13.8367L12.7372 9.54243L11.5946 10.7783H8.05892V7.04288H11.6482L12.7477 8.2676L13.8833 7.04288H16.735C17.4427 7.04288 18.2394 7.2412 18.2394 8.27526C18.2394 9.3114 17.4656 9.52712 16.6849 9.52503ZM21.6207 9.04419C21.8183 9.11656 21.9804 9.24808 22.0556 9.35802C22.1829 9.54034 22.1996 9.71013 22.2038 10.0393V10.7797H21.3082V10.3121C21.3082 10.088 21.3298 9.75467 21.1628 9.5807C21.0347 9.44779 20.8364 9.41648 20.5094 9.41648H19.556V10.7797H18.6591V7.04497H20.7209C21.1718 7.04497 21.5003 7.06376 21.7946 7.22033C22.0758 7.39012 22.2532 7.62393 22.2532 8.0491C22.2532 8.64615 21.8545 8.95025 21.6207 9.04419ZM25.727 7.81668H23.6366V8.49654H25.6755V9.25921H23.6366V10.001L25.727 10.0052V10.7797H22.7487V7.04497H25.727V7.81668ZM28.0031 10.7755H26.2649V9.97317H27.9955C28.1639 9.97317 28.2843 9.95229 28.3594 9.88062C28.4207 9.82356 28.4638 9.73797 28.4638 9.63637C28.4638 9.52782 28.4179 9.44223 28.3553 9.39004C28.2857 9.33297 28.1938 9.30723 28.0372 9.30723C27.2036 9.28009 26.1577 9.33297 26.1577 8.15209C26.1577 7.60862 26.4973 7.0401 27.4339 7.0401H29.2223V7.83477H27.5849C27.4214 7.83477 27.3163 7.84173 27.2273 7.90297C27.1291 7.96421 27.0923 8.05397 27.0923 8.17227C27.0923 8.31353 27.1751 8.40747 27.2871 8.45062C27.3824 8.48332 27.4826 8.49306 27.635 8.49306L28.1145 8.50698C28.5981 8.5202 28.9314 8.60371 29.1325 8.8076C29.3079 8.98782 29.4004 9.21607 29.4004 9.59949C29.4004 10.4046 28.9001 10.7797 28.0031 10.7755ZM31.6502 10.7755H29.9119V9.97317H31.6432C31.8116 9.97317 31.932 9.95229 32.0065 9.88062C32.0677 9.82356 32.1108 9.73797 32.1108 9.63637C32.1108 9.52782 32.0649 9.44223 32.0023 9.39004C31.9334 9.33297 31.8415 9.30723 31.6843 9.30723C30.8499 9.28009 29.8047 9.33297 29.8047 8.15209C29.8047 7.60862 30.1443 7.0401 31.081 7.0401H32.8693V7.83477H31.2327C31.0684 7.83477 30.9627 7.84173 30.8743 7.90297C30.7762 7.96421 30.74 8.05397 30.74 8.17227C30.74 8.31353 30.8235 8.40747 30.9341 8.45062C31.0302 8.48332 31.1297 8.49306 31.2821 8.49306L31.7615 8.50698C32.2458 8.5202 32.5799 8.60371 32.781 8.8076C32.9549 8.98782 33.0489 9.21607 33.0489 9.59949C33.0489 10.4046 32.5472 10.7797 31.6502 10.7755Z" fill="#306CB5"/>
<path d="M30.4194 0H29.5057C29.1641 0 28.8885 0.276259 28.8885 0.616538V1.00205L28.4647 0.298527C28.352 0.114122 28.1523 0.000695484 27.9373 0.000695484H26.5768C26.2359 0.000695484 25.9603 0.276955 25.9603 0.617233V1.14122L25.6326 0.374375C25.5358 0.148219 25.3132 0.000695484 25.0668 0.000695484H23.7294C23.5937 0.000695484 23.4642 0.0452313 23.3612 0.123168C23.259 0.0459272 23.1302 0.000695484 22.9917 0.000695484H22.1296C21.3961 0.000695484 20.8533 0.178142 20.4539 0.524684C20.408 0.230332 20.1637 0.000695484 19.8562 0.000695484H18.9446C18.701 0.000695484 18.4971 0.14474 18.3955 0.347932C18.3573 0.320098 18.328 0.286697 18.2849 0.261646C17.866 0.0194845 17.4255 0.000695484 16.8946 0.000695484H14.8418C14.7262 0.000695484 14.6253 0.0410558 14.5321 0.0960292C14.4409 0.0410558 14.3386 0.000695484 14.2231 0.000695484H11.242C11.1161 0.000695484 11.0068 0.0473188 10.9094 0.111338C10.8113 0.0473188 10.702 0.000695484 10.5768 0.000695484H9.08903C8.84269 0.000695484 8.61932 0.148916 8.52259 0.37716L7.99234 1.62694L7.40851 0.359067C7.30691 0.140565 7.08772 0.000695484 6.84834 0.000695484H5.39119C5.05022 0.000695484 4.77466 0.276955 4.77466 0.617233V1.15375L4.43994 0.372984C4.34252 0.146828 4.11985 0 3.87281 0H2.54788C2.30085 0 2.07817 0.147523 1.98075 0.37368L0.383044 4.10839C0.300932 4.29976 0.321112 4.51687 0.434538 4.69083C0.54866 4.86341 0.742111 4.96779 0.949479 4.96779H1.91952C2.16725 4.96779 2.39201 4.81748 2.48734 4.58785L2.67592 4.13414H3.70998L3.89578 4.58506C3.99042 4.81609 4.21588 4.96709 4.46639 4.96709H6.2819C6.62288 4.96709 6.89844 4.69083 6.89844 4.35056V4.33594L7.01535 4.60107C7.11416 4.82375 7.33545 4.96779 7.579 4.96779L8.36324 4.96918C8.60818 4.96918 8.82808 4.82514 8.92689 4.60176L9.04519 4.33734V4.35264C9.04519 4.69292 9.32075 4.96849 9.66173 4.96849H10.5768C10.702 4.96849 10.8113 4.92117 10.9094 4.85784C11.0068 4.92117 11.1161 4.96849 11.242 4.96849H14.2231C14.3386 4.96849 14.4409 4.92812 14.5321 4.87315C14.6246 4.92812 14.7262 4.96849 14.8418 4.96849H15.7352C16.0762 4.96849 16.3518 4.69223 16.3518 4.35195V3.61015H16.6928C16.77 3.61015 16.825 3.61224 16.866 3.61503C16.8702 3.67835 16.8688 3.7535 16.8688 3.80361L16.8674 3.88572L16.8709 4.35682C16.8737 4.69501 17.1499 4.96849 17.4881 4.96849H18.3886C18.4895 4.96849 18.5806 4.93717 18.6648 4.89403C18.7504 4.93787 18.8423 4.96849 18.9439 4.96849H19.8555C20.1547 4.96849 20.3913 4.75277 20.449 4.47164C20.9549 4.89681 21.6675 4.96849 22.0642 4.96849H23.11C23.3592 4.96849 23.5846 4.81539 23.6786 4.58228L23.8602 4.13484H24.8887L25.0773 4.58854C25.1726 4.81748 25.3967 4.96779 25.6465 4.96779H27.4627C27.8037 4.96779 28.0792 4.69153 28.0792 4.35125V3.76185L28.6269 4.66996C28.7389 4.85436 28.9386 4.96779 29.1557 4.96779H30.4194C30.7604 4.96779 31.036 4.69153 31.036 4.35125V0.616538C31.036 0.276259 30.759 0 30.4194 0ZM10.5761 4.35056H9.66103L9.65755 1.42583L8.36324 4.35056H7.579L6.2826 1.42305V4.35056H4.46569L4.12263 3.5176H2.26467L1.91813 4.35056H0.948087L2.54649 0.615841H3.87142L5.3905 4.15223V0.615841H6.84764L8.016 3.14949L9.08833 0.615841H10.5761V4.35056ZM14.2224 1.39382H12.1334V2.06672H14.173V2.83218H12.1334V3.57814H14.2224V4.35056H11.2413V0.615841H14.2224V1.39382ZM17.7971 2.61785C17.9926 2.693 18.1596 2.82383 18.239 2.93238C18.3656 3.11818 18.3872 3.28379 18.3872 3.61711V4.34986H17.4867L17.4826 3.87876C17.4826 3.65469 17.5041 3.33181 17.342 3.15158C17.2119 3.02076 17.0129 2.99223 16.6914 2.99223H15.7346V4.35056H14.8411H14.8404V0.616538H16.8932C17.3497 0.616538 17.6858 0.628368 17.9739 0.795376C18.2564 0.962384 18.4255 1.20594 18.4255 1.62276C18.4255 2.21773 18.0281 2.52599 17.7971 2.61785ZM19.8562 4.35056H18.9446V0.615841H19.8562V4.35056ZM30.4194 4.35056H29.155L27.462 1.54761V4.35056H25.6458L25.2978 3.5176H23.4427L23.1073 4.35056H22.0621C21.6285 4.35056 21.0809 4.25453 20.7705 3.93791C20.4546 3.62059 20.2918 3.19055 20.2918 2.51208C20.2918 1.95817 20.3899 1.45158 20.7698 1.05076C21.0572 0.752927 21.5089 0.615841 22.1254 0.615841H22.9876V1.41609H22.1421C21.8171 1.41609 21.6327 1.4641 21.456 1.63737C21.3036 1.79464 21.1999 2.09177 21.1999 2.48355C21.1999 2.88297 21.2792 3.17106 21.4462 3.35964C21.5847 3.50786 21.8352 3.5524 22.0683 3.5524H22.4685L23.7294 0.615841H25.0668L26.5768 4.14806V0.615841H27.9373L29.5057 3.21699V0.615841H30.4194V4.35056ZM22.4531 2.03332L22.0655 2.93725C21.98 2.93725 21.9222 2.92751 21.8902 2.91916C21.8603 2.86349 21.8192 2.74032 21.8192 2.48424C21.8192 2.22538 21.8818 2.09108 21.8902 2.07925C21.9159 2.0542 21.9375 2.03263 22.147 2.03263L22.4531 2.03332Z" fill="#306CB5"/>
<path d="M13.3115 8.91817L14.6824 10.4407V7.44641L13.3115 8.91817Z" fill="#306CB5"/>
<path d="M11.1867 7.81738H8.9502V8.49585H10.9091V9.25852H8.9502V10.0017H11.1436L12.163 8.90433L11.1867 7.81738Z" fill="#306CB5"/>
</svg>
