<svg width="200" height="60" viewBox="0 0 156 47" fill="none" xmlns="http://www.w3.org/2000/svg">
<g clip-path="url(#clip0_706_29142)">
<g clip-path="url(#clip1_706_29142)">
<path d="M149.459 0H5.78303C2.59832 0 0.0166016 2.58172 0.0166016 5.76643V40.7536C0.0166016 43.9383 2.59832 46.52 5.78303 46.52H149.459C152.643 46.52 155.225 43.9383 155.225 40.7536V5.76643C155.225 2.58172 152.643 0 149.459 0Z" fill="black"/>
<path d="M32.7207 24.2459C32.736 23.0572 33.0518 21.8917 33.6386 20.8579C34.2254 19.824 35.0642 18.9554 36.0769 18.3327C35.4335 17.414 34.5848 16.6578 33.5981 16.1244C32.6114 15.591 31.5139 15.295 30.3927 15.2599C28.0011 15.0089 25.6827 16.691 24.4639 16.691C23.2217 16.691 21.3453 15.2849 19.3248 15.3264C18.0178 15.3686 16.744 15.7487 15.6277 16.4295C14.5113 17.1103 13.5903 18.0687 12.9544 19.2113C10.2001 23.9799 12.2546 30.9882 14.893 34.8428C16.2132 36.7303 17.756 38.8387 19.7746 38.7639C21.7501 38.682 22.4879 37.5043 24.8724 37.5043C27.2349 37.5043 27.927 38.7639 29.9867 38.7163C32.1064 38.682 33.4419 36.8204 34.7157 34.9151C35.6642 33.5702 36.3941 32.0838 36.8783 30.5109C35.6468 29.9901 34.5958 29.1182 33.8565 28.0042C33.1171 26.8901 32.7222 25.583 32.7207 24.2459Z" fill="white"/>
<path d="M28.8307 12.7251C29.9865 11.3376 30.5559 9.55434 30.418 7.75391C28.6523 7.93936 27.0212 8.78325 25.8498 10.1174C25.2771 10.7693 24.8385 11.5274 24.559 12.3489C24.2795 13.1702 24.1646 14.0387 24.221 14.9045C25.1041 14.9136 25.9779 14.7222 26.7764 14.3447C27.5749 13.9671 28.2773 13.4134 28.8307 12.7251Z" fill="white"/>
<path d="M58.4845 30.9059H52.4882L51.0481 35.0605H48.5083L54.1879 19.6895H56.8267L62.5064 35.0605H59.9233L58.4845 30.9059ZM53.1092 28.9887H57.8623L55.5191 22.2461H55.4536L53.1092 28.9887Z" fill="white"/>
<path d="M74.7745 29.4577C74.7745 32.9401 72.8669 35.1777 69.9881 35.1777C69.2588 35.2149 68.5336 35.0508 67.8954 34.704C67.2572 34.3572 66.7318 33.8419 66.3794 33.2169H66.3249V38.7677H63.9707V23.8537H66.2495V25.7176H66.2928C66.6614 25.0957 67.1957 24.583 67.8387 24.2341C68.4817 23.8853 69.2096 23.7133 69.9448 23.7364C72.8557 23.7364 74.7745 25.9848 74.7745 29.4577ZM72.3547 29.4577C72.3547 27.1888 71.1547 25.6971 69.3238 25.6971C67.5249 25.6971 66.315 27.2201 66.315 29.4577C66.315 31.7156 67.5249 33.2278 69.3238 33.2278C71.1547 33.2278 72.3547 31.7471 72.3547 29.4577Z" fill="white"/>
<path d="M87.3949 29.4577C87.3949 32.9401 85.4873 35.1777 82.6085 35.1777C81.8793 35.2149 81.154 35.0508 80.5158 34.704C79.8776 34.3572 79.3522 33.8419 78.9998 33.2169H78.9454V38.7677H76.5911V23.8537H78.8699V25.7176H78.9132C79.2818 25.0957 79.816 24.583 80.4591 24.2341C81.1021 23.8853 81.83 23.7133 82.5652 23.7364C85.4761 23.7364 87.3949 25.9848 87.3949 29.4577ZM84.9751 29.4577C84.9751 27.1888 83.7751 25.6971 81.9441 25.6971C80.1454 25.6971 78.9355 27.2201 78.9355 29.4577C78.9355 31.7156 80.1454 33.2278 81.9441 33.2278C83.7751 33.2278 84.9751 31.7471 84.9751 29.4577Z" fill="white"/>
<path d="M95.7408 30.7781C95.9157 32.3024 97.4304 33.3033 99.5015 33.3033C101.486 33.3033 102.914 32.3024 102.914 30.928C102.914 29.7349 102.053 29.0205 100.014 28.531L97.9756 28.0511C95.0867 27.3693 93.7451 26.0493 93.7451 23.9073C93.7451 21.2552 96.1111 19.4336 99.4698 19.4336C102.794 19.4336 105.073 21.2552 105.149 23.9073H102.773C102.63 22.3734 101.332 21.4474 99.4363 21.4474C97.5393 21.4474 96.2423 22.3843 96.2423 23.7478C96.2423 24.8345 97.0713 25.4739 99.0986 25.9634L100.832 26.3793C104.06 27.1251 105.4 28.392 105.4 30.6403C105.4 33.5159 103.056 35.3171 99.3275 35.3171C95.8385 35.3171 93.4827 33.5583 93.3311 30.7781L95.7408 30.7781Z" fill="white"/>
<path d="M110.48 21.2012V23.8533H112.661V25.6749H110.48V31.853C110.48 32.8128 110.917 33.2601 111.876 33.2601C112.134 33.2556 112.393 33.2378 112.651 33.2069V35.0176C112.219 35.0963 111.781 35.132 111.343 35.124C109.02 35.124 108.115 34.2718 108.115 32.0984V25.6749H106.448V23.8533H108.115V21.2012H110.48Z" fill="white"/>
<path d="M113.924 29.4586C113.924 25.9325 116.049 23.7168 119.363 23.7168C122.688 23.7168 124.804 25.9325 124.804 29.4586C124.804 32.9943 122.699 35.2004 119.363 35.2004C116.027 35.2004 113.924 32.9943 113.924 29.4586ZM122.405 29.4586C122.405 27.0398 121.271 25.6122 119.363 25.6122C117.455 25.6122 116.322 27.0507 116.322 29.4586C116.322 31.887 117.455 33.3037 119.363 33.3037C121.271 33.3037 122.405 31.887 122.405 29.4586Z" fill="white"/>
<path d="M126.745 23.8536H128.99V25.761H129.045C129.197 25.1652 129.554 24.6388 130.057 24.2701C130.559 23.9014 131.176 23.7129 131.804 23.7363C132.076 23.7354 132.345 23.7641 132.611 23.8221V25.9738C132.268 25.8715 131.911 25.8245 131.553 25.8347C131.21 25.8212 130.87 25.8802 130.553 26.0074C130.237 26.1348 129.952 26.3276 129.719 26.5726C129.486 26.8175 129.31 27.1088 129.203 27.4266C129.096 27.7442 129.061 28.0808 129.099 28.4131V35.0602H126.745V23.8536Z" fill="white"/>
<path d="M143.465 31.7698C143.147 33.8042 141.12 35.2004 138.526 35.2004C135.189 35.2004 133.119 33.0161 133.119 29.5118C133.119 25.9966 135.2 23.7168 138.427 23.7168C141.6 23.7168 143.596 25.8467 143.596 29.2446V30.0327H135.495V30.1717C135.458 30.5842 135.511 30.9997 135.65 31.3906C135.79 31.7816 136.012 32.1391 136.304 32.4393C136.596 32.7394 136.95 32.9756 137.343 33.132C137.734 33.2883 138.157 33.3612 138.58 33.3461C139.136 33.397 139.695 33.2711 140.172 32.9871C140.649 32.7031 141.02 32.2761 141.229 31.7698H143.465ZM135.506 28.4251H141.24C141.262 28.0542 141.204 27.6831 141.071 27.335C140.939 26.987 140.734 26.6694 140.47 26.4023C140.206 26.1353 139.887 25.9245 139.536 25.783C139.185 25.6417 138.807 25.5728 138.427 25.5808C138.043 25.5785 137.664 25.6505 137.308 25.7925C136.954 25.9346 136.631 26.1438 136.36 26.4083C136.088 26.6727 135.873 26.9871 135.727 27.3333C135.58 27.6794 135.505 28.0505 135.506 28.4251Z" fill="white"/>
<path d="M52.8143 8.11775C53.3079 8.08315 53.8032 8.15601 54.2645 8.33108C54.7257 8.50614 55.1415 8.77905 55.4817 9.13012C55.8219 9.48116 56.0782 9.9017 56.232 10.3612C56.3858 10.8208 56.4332 11.308 56.3711 11.7876C56.3711 14.1472 55.0659 15.5035 52.8143 15.5035H50.084V8.11775H52.8143ZM51.258 14.459H52.6831C53.0359 14.4796 53.3888 14.4231 53.7164 14.2937C54.0439 14.1641 54.3377 13.9649 54.5765 13.7105C54.8153 13.456 54.993 13.1527 55.0967 12.8227C55.2003 12.4927 55.2275 12.1442 55.176 11.8027C55.2237 11.4625 55.1939 11.1162 55.0886 10.7886C54.9833 10.461 54.8051 10.1602 54.5669 9.90775C54.3287 9.65533 54.0362 9.45753 53.7106 9.32848C53.3849 9.1995 53.0341 9.14246 52.6831 9.16149H51.258V14.459Z" fill="white"/>
<path d="M57.7015 12.7143C57.6656 12.348 57.7085 11.9784 57.8273 11.6293C57.9462 11.2801 58.1385 10.9591 58.3918 10.6868C58.6451 10.4146 58.9538 10.1969 59.2982 10.0481C59.6425 9.89921 60.015 9.82227 60.3916 9.82227C60.7681 9.82227 61.1406 9.89921 61.485 10.0481C61.8294 10.1969 62.1381 10.4146 62.3914 10.6868C62.6447 10.9591 62.8369 11.2801 62.9558 11.6293C63.0747 11.9784 63.1176 12.348 63.0817 12.7143C63.1182 13.0809 63.0759 13.451 62.9573 13.8007C62.8387 14.1504 62.6466 14.472 62.3933 14.7448C62.1399 15.0177 61.8309 15.2357 61.4862 15.3849C61.1415 15.5341 60.7686 15.6112 60.3916 15.6112C60.0145 15.6112 59.6417 15.5341 59.297 15.3849C58.9522 15.2357 58.6433 15.0177 58.3899 14.7448C58.1365 14.472 57.9444 14.1504 57.8258 13.8007C57.7073 13.451 57.6649 13.0809 57.7015 12.7143ZM61.9237 12.7143C61.9237 11.5061 61.3683 10.7996 60.3935 10.7996C59.4149 10.7996 58.8644 11.5061 58.8644 12.7143C58.8644 13.9321 59.4149 14.6333 60.3935 14.6333C61.3683 14.6333 61.9237 13.9273 61.9237 12.7143Z" fill="white"/>
<path d="M70.2296 15.5034H69.0618L67.8829 11.3983H67.7938L66.6198 15.5034H65.463L63.8906 9.92969H65.0325L66.0544 14.1827H66.1386L67.3113 9.92969H68.3913L69.5641 14.1827H69.6532L70.6701 9.92969H71.7959L70.2296 15.5034Z" fill="white"/>
<path d="M73.1184 9.92947H74.2021V10.8149H74.2862C74.429 10.4969 74.6697 10.2304 74.9748 10.0523C75.2799 9.87429 75.6343 9.79372 75.9885 9.82191C76.2661 9.80154 76.5448 9.84238 76.804 9.94156C77.0632 10.0406 77.2962 10.1956 77.4858 10.3947C77.6754 10.5937 77.8168 10.832 77.8994 11.0916C77.982 11.3514 78.0038 11.626 77.963 11.8949V15.5031H76.8372V12.1712C76.8372 11.2755 76.4388 10.83 75.6063 10.83C75.4178 10.8214 75.2297 10.8528 75.0549 10.9219C74.8799 10.9911 74.7224 11.0963 74.593 11.2304C74.4637 11.3646 74.3655 11.5245 74.3053 11.6992C74.245 11.8738 74.2243 12.0592 74.2442 12.2425V15.5032H73.1184V9.92947Z" fill="white"/>
<path d="M79.7566 7.75391H80.8824V15.5034H79.7566V7.75391Z" fill="white"/>
<path d="M82.4477 12.7144C82.4119 12.348 82.4548 11.9785 82.5737 11.6293C82.6926 11.2802 82.8849 10.9591 83.1383 10.6868C83.3915 10.4146 83.7003 10.1969 84.0448 10.0481C84.3891 9.89921 84.7615 9.82227 85.1382 9.82227C85.5148 9.82227 85.8872 9.89921 86.2317 10.0481C86.5761 10.1969 86.8848 10.4146 87.1382 10.6868C87.3914 10.9591 87.5837 11.2802 87.7026 11.6293C87.8215 11.9785 87.8644 12.348 87.8286 12.7144C87.8651 13.0811 87.8227 13.4511 87.7041 13.8008C87.5855 14.1506 87.3934 14.4721 87.1399 14.745C86.8866 15.0178 86.5776 15.2358 86.2329 15.385C85.8881 15.5342 85.5153 15.6112 85.1382 15.6112C84.7612 15.6112 84.3883 15.5342 84.0436 15.385C83.6987 15.2358 83.3898 15.0178 83.1364 14.745C82.8831 14.4721 82.6908 14.1506 82.5723 13.8008C82.4537 13.4511 82.4113 13.0811 82.4477 12.7144ZM86.6701 12.7144C86.6701 11.5062 86.1145 10.7997 85.1398 10.7997C84.1612 10.7997 83.6107 11.5062 83.6107 12.7144C83.6107 13.9322 84.1612 14.6334 85.1398 14.6334C86.1146 14.6334 86.6701 13.9274 86.6701 12.7144Z" fill="white"/>
<path d="M89.0151 13.9274C89.0151 12.924 89.7797 12.3456 91.1368 12.2634L92.682 12.1765V11.6953C92.682 11.1066 92.2836 10.7743 91.5142 10.7743C90.8857 10.7743 90.4503 10.9997 90.3253 11.3937H89.2354C89.3505 10.4363 90.2721 9.82227 91.5661 9.82227C92.9962 9.82227 93.8028 10.5179 93.8028 11.6953V15.5036H92.7192V14.7204H92.63C92.4492 15.0013 92.1954 15.2303 91.8944 15.3841C91.5934 15.5378 91.2559 15.6107 90.9166 15.5955C90.6772 15.6198 90.4351 15.5948 90.2061 15.5222C89.9772 15.4495 89.7663 15.3308 89.5872 15.1736C89.408 15.0164 89.2646 14.8244 89.166 14.6097C89.0675 14.395 89.0162 14.1626 89.0151 13.9274ZM92.682 13.4511V12.9851L91.289 13.0722C90.5034 13.1235 90.1472 13.3846 90.1472 13.8759C90.1472 14.3776 90.5925 14.6696 91.2049 14.6696C91.3844 14.6873 91.5656 14.6696 91.738 14.6175C91.9102 14.5654 92.07 14.4799 92.2078 14.3662C92.3456 14.2526 92.4586 14.113 92.5401 13.9558C92.6216 13.7985 92.6698 13.6269 92.682 13.4511Z" fill="white"/>
<path d="M95.2812 12.7142C95.2812 10.953 96.2079 9.83728 97.6491 9.83728C98.0055 9.82127 98.359 9.90464 98.6688 10.0778C98.9787 10.251 99.2317 10.5067 99.3983 10.8151H99.482V7.75391H100.608V15.5035H99.5295V14.6229H99.4401C99.2606 14.9292 98.9991 15.1818 98.6828 15.3532C98.3674 15.5245 98.0101 15.6084 97.6491 15.5953C96.1977 15.5953 95.2812 14.4796 95.2812 12.7142ZM96.4442 12.7142C96.4442 13.8964 97.0146 14.6078 97.9682 14.6078C98.9173 14.6078 99.5034 13.8861 99.5034 12.719C99.5034 11.5574 98.9107 10.8255 97.9682 10.8255C97.0202 10.8255 96.4442 11.5417 96.4442 12.7142Z" fill="white"/>
<path d="M105.268 12.7143C105.232 12.348 105.275 11.9784 105.394 11.6293C105.513 11.2801 105.705 10.9591 105.958 10.6868C106.211 10.4146 106.52 10.1969 106.865 10.0481C107.209 9.89921 107.582 9.82227 107.958 9.82227C108.335 9.82227 108.707 9.89921 109.052 10.0481C109.396 10.1969 109.705 10.4146 109.958 10.6868C110.211 10.9591 110.404 11.2801 110.522 11.6293C110.641 11.9784 110.684 12.348 110.649 12.7143C110.685 13.0809 110.642 13.451 110.524 13.8007C110.406 14.1504 110.213 14.472 109.96 14.7448C109.706 15.0177 109.397 15.2357 109.053 15.3849C108.708 15.5341 108.336 15.6112 107.958 15.6112C107.581 15.6112 107.208 15.5341 106.864 15.3849C106.518 15.2357 106.21 15.0177 105.957 14.7448C105.703 14.472 105.511 14.1504 105.393 13.8007C105.274 13.451 105.232 13.0809 105.268 12.7143ZM109.49 12.7143C109.49 11.5061 108.935 10.7996 107.96 10.7996C106.982 10.7996 106.431 11.5061 106.431 12.7143C106.431 13.9321 106.982 14.6333 107.96 14.6333C108.935 14.6333 109.49 13.9273 109.49 12.7143Z" fill="white"/>
<path d="M112.155 9.92947H113.239V10.8149H113.324C113.466 10.4969 113.707 10.2304 114.012 10.0523C114.317 9.87429 114.671 9.79372 115.025 9.82191C115.303 9.80154 115.582 9.84238 115.841 9.94156C116.1 10.0406 116.333 10.1956 116.522 10.3947C116.712 10.5937 116.854 10.832 116.936 11.0916C117.019 11.3514 117.041 11.626 117 11.8949V15.5031H115.874V12.1712C115.874 11.2755 115.476 10.83 114.643 10.83C114.455 10.8214 114.267 10.8528 114.092 10.9219C113.917 10.9911 113.759 11.0963 113.63 11.2304C113.5 11.3646 113.403 11.5245 113.342 11.6992C113.282 11.8738 113.261 12.0592 113.281 12.2425V15.5032H112.155V9.92947Z" fill="white"/>
<path d="M123.363 8.54297V9.95602H124.599V10.8826H123.363V13.7486C123.363 14.3324 123.609 14.5881 124.169 14.5881C124.312 14.5876 124.457 14.5792 124.599 14.5627V15.479C124.396 15.5143 124.192 15.5331 123.986 15.5352C122.735 15.5352 122.236 15.1049 122.236 14.0302V10.8825H121.331V9.95602H122.236V8.54297H123.363Z" fill="white"/>
<path d="M126.137 7.75391H127.253V10.8255H127.342C127.492 10.5045 127.738 10.2363 128.05 10.0577C128.361 9.87905 128.721 9.79848 129.081 9.82695C129.357 9.81234 129.633 9.85737 129.889 9.95888C130.146 10.0605 130.376 10.216 130.564 10.4145C130.751 10.613 130.891 10.8495 130.975 11.1071C131.058 11.3647 131.082 11.6371 131.046 11.9049V15.5035H129.919V12.1763C129.919 11.286 129.494 10.8351 128.698 10.8351C128.506 10.8196 128.31 10.8456 128.129 10.9112C127.947 10.9769 127.781 11.0807 127.644 11.2153C127.507 11.3499 127.402 11.5121 127.336 11.6904C127.27 11.8689 127.245 12.0593 127.263 12.2482V15.5034H126.137V7.75391Z" fill="white"/>
<path d="M137.608 13.9987C137.455 14.5081 137.124 14.9488 136.672 15.2436C136.22 15.5384 135.676 15.6685 135.136 15.6113C134.761 15.621 134.387 15.5506 134.042 15.4051C133.696 15.2597 133.388 15.0426 133.137 14.7688C132.886 14.4951 132.7 14.1713 132.59 13.82C132.48 13.4687 132.45 13.0983 132.501 12.7344C132.451 12.3693 132.482 11.9981 132.591 11.6458C132.701 11.2934 132.887 10.9681 133.136 10.692C133.386 10.4159 133.693 10.1954 134.037 10.0453C134.381 9.8953 134.754 9.81928 135.131 9.82236C136.718 9.82236 137.676 10.882 137.676 12.6322V13.016H133.648V13.0776C133.63 13.2822 133.656 13.4881 133.725 13.6821C133.794 13.8761 133.903 14.054 134.046 14.2044C134.19 14.3547 134.363 14.4742 134.556 14.5551C134.749 14.6361 134.957 14.6767 135.167 14.6744C135.436 14.706 135.709 14.6587 135.951 14.5384C136.193 14.418 136.392 14.2301 136.524 13.9987H137.608ZM133.648 12.2025H136.53C136.543 12.0154 136.517 11.8276 136.453 11.6509C136.388 11.4742 136.287 11.3127 136.155 11.1767C136.022 11.0407 135.862 10.9333 135.685 10.8613C135.508 10.7893 135.317 10.7543 135.125 10.7586C134.93 10.7562 134.738 10.7919 134.557 10.8637C134.377 10.9354 134.213 11.0416 134.075 11.1762C133.937 11.3108 133.829 11.4709 133.755 11.6471C133.682 11.8235 133.645 12.0122 133.648 12.2025Z" fill="white"/>
</g>
</g>
<defs>
<clipPath id="clip0_706_29142">
<rect width="155.41" height="46.52" fill="white"/>
</clipPath>
<clipPath id="clip1_706_29142">
<rect width="155.377" height="46.52" fill="white" transform="translate(0.0166016)"/>
</clipPath>
</defs>
</svg>
