<svg width="9" height="10" viewBox="0 0 9 10" fill="none" xmlns="http://www.w3.org/2000/svg">
<path d="M0.706299 6.91602C0.616455 6.82617 0.542236 6.74609 0.483643 6.67578C0.425049 6.60156 0.395752 6.53711 0.395752 6.48242C0.395752 6.42383 0.421143 6.37305 0.471924 6.33008C0.526611 6.2832 0.591064 6.24609 0.665283 6.21875C0.739502 6.1875 0.817627 6.16602 0.899658 6.1543C0.985596 6.13867 1.05786 6.13086 1.11646 6.13086C1.17896 6.13086 1.22974 6.14648 1.2688 6.17773C1.31177 6.20508 1.3606 6.24609 1.41528 6.30078C1.78247 6.66797 2.1145 7.0625 2.41138 7.48438C2.71216 7.90625 2.9895 8.32422 3.24341 8.73828C3.73169 7.38672 4.30005 6.07617 4.94849 4.80664C5.59692 3.53711 6.32739 2.34766 7.13989 1.23828C7.21802 1.12891 7.33911 1.04492 7.50317 0.986328C7.67114 0.927734 7.85864 0.898438 8.06567 0.898438C8.13208 0.898438 8.18481 0.912109 8.22388 0.939453C8.26294 0.962891 8.28247 0.998047 8.28247 1.04492C8.28247 1.0918 8.27661 1.13281 8.26489 1.16797C8.25317 1.19922 8.22583 1.24219 8.18286 1.29688C7.74927 1.87109 7.32739 2.47266 6.91724 3.10156C6.51099 3.73047 6.12231 4.39453 5.75122 5.09375C5.38013 5.78906 5.02856 6.51953 4.69653 7.28516C4.3645 8.05078 4.05981 8.85547 3.78247 9.69922C3.77466 9.72266 3.75317 9.74414 3.71802 9.76367C3.68286 9.7793 3.63989 9.79297 3.58911 9.80469C3.53833 9.81641 3.48169 9.82422 3.41919 9.82812C3.35669 9.83594 3.29419 9.83984 3.23169 9.83984C3.14185 9.83984 3.05981 9.83008 2.9856 9.81055C2.91138 9.79492 2.85669 9.75781 2.82153 9.69922C2.63403 9.37891 2.46021 9.09766 2.30005 8.85547C2.13989 8.60938 1.97778 8.38086 1.81372 8.16992C1.64966 7.95898 1.47778 7.75391 1.2981 7.55469C1.12231 7.35547 0.925049 7.14258 0.706299 6.91602Z" fill="#222222"/>
</svg>
