<svg width="24" height="22" viewBox="0 0 24 22" fill="none" xmlns="http://www.w3.org/2000/svg">
<path fill-rule="evenodd" clip-rule="evenodd" d="M24 2.97605C23.1 3.41268 22.15 3.68557 21.15 3.84931C22.15 3.19437 22.95 2.15738 23.3 0.902069C22.35 1.50243 21.3 1.93906 20.15 2.21195C19.25 1.17496 17.95 0.52002 16.55 0.52002C13.85 0.52002 11.65 2.92147 11.65 5.86872C11.65 6.30534 11.7 6.68739 11.8 7.06944C7.75 6.85113 4.1 4.72257 1.65 1.44785C1.25 2.26653 1 3.13979 1 4.1222C1 5.97787 1.85 7.61523 3.2 8.59764C2.4 8.54306 1.65 8.32475 0.95 7.9427V7.99728C0.95 10.617 2.65 12.8002 4.9 13.2914C4.5 13.4006 4.05 13.4551 3.6 13.4551C3.3 13.4551 2.95 13.4006 2.65 13.346C3.3 15.4745 5.1 17.0573 7.25 17.0573C5.55 18.4764 3.45 19.3496 1.15 19.3496C0.75 19.3496 0.35 19.3496 0 19.295C2.2 20.8232 4.75 21.6965 7.55 21.6965C16.6 21.6965 21.55 13.5097 21.55 6.4145C21.55 6.19619 21.55 5.92329 21.55 5.70498C22.5 4.99546 23.35 4.06762 24 2.97605Z" fill="#306CB5"/>
</svg>
