<svg width="24" height="25" viewBox="0 0 24 25" fill="none" xmlns="http://www.w3.org/2000/svg">
<path fill-rule="evenodd" clip-rule="evenodd" d="M7.0525 0.59202C8.3325 0.53402 8.741 0.52002 12 0.52002C15.259 0.52002 15.6675 0.53402 16.9475 0.59202C18.8985 0.68102 20.611 1.15902 21.986 2.53402C23.3615 3.90952 23.839 5.62252 23.928 7.57252C23.986 8.85252 24 9.26102 24 12.52C24 15.779 23.986 16.1875 23.928 17.4675C23.839 19.4185 23.361 21.131 21.986 22.506C20.6105 23.8815 18.897 24.359 16.9475 24.448C15.6675 24.506 15.259 24.52 12 24.52C8.741 24.52 8.3325 24.506 7.0525 24.448C5.1015 24.359 3.389 23.881 2.014 22.506C0.6385 21.1305 0.161 19.4175 0.072 17.4675C0.014 16.1875 0 15.779 0 12.52C0 9.26102 0.014 8.85252 0.072 7.57252C0.161 5.62152 0.639 3.90902 2.014 2.53402C3.3895 1.15852 5.1025 0.68102 7.0525 0.59202ZM16.8489 2.75148C15.5834 2.69348 15.2039 2.68148 11.9999 2.68148C8.79595 2.68148 8.41645 2.69398 7.15095 2.75148C5.78545 2.81398 4.51795 3.08748 3.54295 4.06248C2.56795 5.03748 2.29445 6.30498 2.23195 7.67048C2.17395 8.93598 2.16195 9.31548 2.16195 12.5195C2.16195 15.7235 2.17445 16.103 2.23195 17.3685C2.29445 18.734 2.56795 20.0015 3.54295 20.9765C4.51795 21.9515 5.78545 22.225 7.15095 22.2875C8.41595 22.3455 8.79545 22.3575 11.9999 22.3575C15.2044 22.3575 15.5839 22.345 16.8489 22.2875C18.2144 22.225 19.4819 21.9515 20.4569 20.9765C21.4319 20.0015 21.7054 18.734 21.7679 17.3685C21.8259 16.103 21.8379 15.7235 21.8379 12.5195C21.8379 9.31548 21.8254 8.93598 21.7679 7.67048C21.7054 6.30498 21.4319 5.03748 20.4569 4.06248C19.4819 3.08748 18.2144 2.81398 16.8489 2.75148Z" fill="#306CB5"/>
<path fill-rule="evenodd" clip-rule="evenodd" d="M6.54541 13.0637C6.54541 9.75019 9.23139 7.06372 12.5454 7.06372C15.8594 7.06372 18.5454 9.7497 18.5454 13.0637C18.5454 16.3777 15.8594 19.0637 12.5454 19.0637C9.23139 19.0637 6.54541 16.3773 6.54541 13.0637ZM8.65055 13.0627C8.65055 15.2137 10.3945 16.9576 12.5454 16.9576C14.6963 16.9576 16.4402 15.2137 16.4402 13.0627C16.4402 10.9118 14.6963 9.16789 12.5454 9.16789C10.3945 9.16789 8.65055 10.9118 8.65055 13.0627Z" fill="#306CB5"/>
<circle cx="18.0001" cy="6.52088" r="1.63636" fill="#306CB5"/>
</svg>
