<svg width="20" height="20" viewBox="0 0 20 20" fill="currentColor" xmlns="http://www.w3.org/2000/svg">
<path d="M14.6667 4.42474L9.9584 1.89141C9.4584 1.62474 8.86673 1.62474 8.36673 1.89141L3.66673 4.42474C3.32507 4.61641 3.1084 4.98307 3.1084 5.38307C3.1084 5.79141 3.31673 6.15807 3.66673 6.34141L8.37507 8.87474C8.62507 9.00807 8.90006 9.07474 9.16673 9.07474C9.4334 9.07474 9.71673 9.00807 9.9584 8.87474L14.6667 6.34141C15.0084 6.15807 15.2251 5.79141 15.2251 5.38307C15.2251 4.98307 15.0084 4.61641 14.6667 4.42474Z" fill="currentColor"/>
<path d="M7.59984 9.75816L3.22484 7.57483C2.88317 7.39983 2.49984 7.42483 2.17484 7.6165C1.85817 7.8165 1.6665 8.15816 1.6665 8.53316V12.6665C1.6665 13.3832 2.0665 14.0248 2.70817 14.3498L7.08317 16.5332C7.23317 16.6082 7.39984 16.6498 7.5665 16.6498C7.75817 16.6498 7.95817 16.5915 8.13317 16.4915C8.44984 16.2915 8.6415 15.9498 8.6415 15.5748V11.4415C8.63317 10.7248 8.23317 10.0832 7.59984 9.75816Z" fill="currentColor"/>
<path d="M16.6664 8.53316V10.5832C16.2664 10.4665 15.8414 10.4165 15.4164 10.4165C14.283 10.4165 13.1747 10.8082 12.2997 11.5082C11.0997 12.4498 10.4164 13.8748 10.4164 15.4165C10.4164 15.8248 10.4664 16.2332 10.5747 16.6248C10.4497 16.6082 10.3247 16.5582 10.208 16.4832C9.89137 16.2915 9.69971 15.9498 9.69971 15.5748V11.4415C9.69971 10.7248 10.0997 10.0832 10.733 9.75816L15.108 7.57483C15.4497 7.39983 15.833 7.42483 16.158 7.6165C16.4747 7.8165 16.6664 8.15816 16.6664 8.53316Z" fill="currentColor"/>
<path d="M18.3332 13.0837C18.3332 13.0753 18.3248 13.067 18.3165 13.0587C18.2832 13.0087 18.2415 12.9587 18.1998 12.917C18.1915 12.9087 18.1832 12.892 18.1748 12.8837C17.4998 12.1337 16.5082 11.667 15.4165 11.667C14.3665 11.667 13.4082 12.1003 12.7248 12.8003C12.0665 13.4753 11.6665 14.4003 11.6665 15.417C11.6665 16.117 11.8665 16.7837 12.2082 17.3503C12.3915 17.6587 12.6248 17.942 12.8915 18.1753C12.9082 18.1837 12.9165 18.192 12.9248 18.2003C12.9665 18.242 13.0082 18.2753 13.0582 18.317C13.0582 18.317 13.0582 18.317 13.0665 18.317C13.0748 18.3253 13.0832 18.3337 13.0915 18.3337C13.7165 18.8587 14.5248 19.167 15.4165 19.167C16.7832 19.167 17.9748 18.4337 18.6248 17.3503C18.8165 17.0253 18.9665 16.667 19.0582 16.292C19.1332 16.0087 19.1665 15.717 19.1665 15.417C19.1665 14.5337 18.8582 13.717 18.3332 13.0837ZM16.8165 16.0253H16.0415V16.8337C16.0415 17.1753 15.7582 17.4587 15.4165 17.4587C15.0748 17.4587 14.7915 17.1753 14.7915 16.8337V16.0253H14.0165C13.6748 16.0253 13.3915 15.742 13.3915 15.4003C13.3915 15.0587 13.6748 14.7753 14.0165 14.7753H14.7915V14.0337C14.7915 13.692 15.0748 13.4087 15.4165 13.4087C15.7582 13.4087 16.0415 13.692 16.0415 14.0337V14.7753H16.8165C17.1582 14.7753 17.4415 15.0587 17.4415 15.4003C17.4415 15.742 17.1665 16.0253 16.8165 16.0253Z" fill="currentColor"/>
</svg>
