<svg width="32" height="32" viewBox="0 0 32 32" fill="none" xmlns="http://www.w3.org/2000/svg">
<path d="M18.6262 7.85673C18.9183 7.35081 19.3538 6.94287 19.8778 6.68449C20.4017 6.42611 20.9905 6.3289 21.5697 6.40515C22.1489 6.4814 22.6925 6.72769 23.1317 7.11287C23.5709 7.49806 23.886 8.00483 24.0372 8.56911C24.1884 9.13339 24.1689 9.72984 23.9811 10.283C23.7933 10.8362 23.4457 11.3213 22.9823 11.6769C22.5188 12.0325 21.9603 12.2428 21.3774 12.281C20.7944 12.3192 20.2132 12.1837 19.7073 11.8916" stroke="#9191DE" stroke-width="1.5"/>
<path d="M13.3738 7.85673C13.0817 7.35081 12.6462 6.94287 12.1222 6.68449C11.5983 6.42611 11.0095 6.3289 10.4303 6.40515C9.8511 6.4814 9.30753 6.72769 8.86831 7.11287C8.4291 7.49806 8.11397 8.00483 7.96277 8.56911C7.81157 9.13339 7.83109 9.72984 8.01888 10.283C8.20666 10.8362 8.55426 11.3213 9.01773 11.6769C9.48119 12.0325 10.0397 12.2428 10.6226 12.281C11.2056 12.3192 11.7868 12.1837 12.2927 11.8916" stroke="#9191DE" stroke-width="1.5"/>
<path d="M26.9281 21.5796L27.6618 21.4245L27.6618 21.4245L26.9281 21.5796ZM17.6094 16.8678L17.0555 16.3621L16.1247 17.3816L17.4865 17.6077L17.6094 16.8678ZM23.6759 22.6667L22.9554 22.8751L23.1121 23.4167H23.6759V22.6667ZM21.1839 16.0093C22.8262 16.0093 23.9473 16.8799 24.7455 18.0663C25.5569 19.2723 25.9847 20.7434 26.1943 21.7347L27.6618 21.4245C27.4363 20.3575 26.9586 18.6685 25.99 17.2289C25.0082 15.7696 23.4747 14.5093 21.1839 14.5093V16.0093ZM18.1632 17.3736C18.903 16.5633 19.8695 16.0093 21.1839 16.0093V14.5093C19.3777 14.5093 18.0284 15.2967 17.0555 16.3621L18.1632 17.3736ZM17.4865 17.6077C20.8903 18.1729 22.3305 20.7153 22.9554 22.8751L24.3963 22.4583C23.6978 20.044 21.9602 16.8301 17.7322 16.128L17.4865 17.6077ZM26.0048 21.9167H23.6759V23.4167H26.0048V21.9167ZM26.1943 21.7347C26.2047 21.7841 26.1929 21.8194 26.1665 21.8501C26.1368 21.8845 26.0826 21.9167 26.0048 21.9167V23.4167C27.0233 23.4167 27.8928 22.5171 27.6618 21.4245L26.1943 21.7347Z" fill="#9191DE"/>
<path d="M14.3899 16.8683L14.513 17.6081L15.8741 17.3816L14.9438 16.3626L14.3899 16.8683ZM5.07083 21.5796L5.80461 21.7347L5.07083 21.5796ZM8.32609 22.6667V23.4167H8.88986L9.04654 22.8751L8.32609 22.6667ZM10.815 16.0093C12.1296 16.0093 13.0962 16.5635 13.836 17.3739L14.9438 16.3626C13.971 15.297 12.6216 14.5093 10.815 14.5093V16.0093ZM5.80461 21.7347C6.01419 20.7434 6.44199 19.2723 7.25345 18.0663C8.05165 16.8799 9.17267 16.0093 10.815 16.0093V14.5093C8.52426 14.5093 6.99076 15.7696 6.00892 17.2289C5.04034 18.6685 4.56261 20.3575 4.33705 21.4245L5.80461 21.7347ZM5.9941 21.9167C5.91629 21.9167 5.86211 21.8845 5.83242 21.8501C5.80596 21.8194 5.79418 21.7841 5.80461 21.7347L4.33705 21.4245C4.10605 22.5171 4.9756 23.4167 5.9941 23.4167V21.9167ZM8.32609 21.9167H5.9941V23.4167H8.32609V21.9167ZM9.04654 22.8751C9.67127 20.7157 11.1111 18.1741 14.513 17.6081L14.2668 16.1284C10.0409 16.8316 8.30393 20.0445 7.60563 22.4583L9.04654 22.8751Z" fill="#9191DE"/>
<path d="M15.9997 16.7407C22.4534 16.7407 23.7955 22.3171 24.0746 24.6363C24.1406 25.1846 23.7001 25.6296 23.1479 25.6296H8.85156C8.29928 25.6296 7.85885 25.1846 7.92483 24.6363C8.20392 22.3171 9.54598 16.7407 15.9997 16.7407Z" stroke="#010510" stroke-width="1.5" stroke-linecap="round"/>
<circle cx="15.9991" cy="10.0738" r="3.69444" stroke="#010510" stroke-width="1.5" stroke-linecap="round"/>
</svg>
