<svg width="16" height="17" viewBox="0 0 16 17" fill="currentColor" xmlns="http://www.w3.org/2000/svg">
<path d="M7.99967 15.6667C4.04634 15.6667 0.833008 12.4534 0.833008 8.50004C0.833008 4.54671 4.04634 1.33337 7.99967 1.33337C11.953 1.33337 15.1663 4.54671 15.1663 8.50004C15.1663 12.4534 11.953 15.6667 7.99967 15.6667ZM7.99967 2.33337C4.59967 2.33337 1.83301 5.10004 1.83301 8.50004C1.83301 11.9 4.59967 14.6667 7.99967 14.6667C11.3997 14.6667 14.1663 11.9 14.1663 8.50004C14.1663 5.10004 11.3997 2.33337 7.99967 2.33337Z" fill="currentColor"/>
<path d="M7.05297 10.8867C6.91964 10.8867 6.79297 10.8334 6.69964 10.7401L4.81297 8.8534C4.61964 8.66007 4.61964 8.34007 4.81297 8.14673C5.0063 7.9534 5.3263 7.9534 5.51964 8.14673L7.05297 9.68007L10.4796 6.2534C10.673 6.06007 10.993 6.06007 11.1863 6.2534C11.3796 6.44673 11.3796 6.76673 11.1863 6.96006L7.4063 10.7401C7.31297 10.8334 7.1863 10.8867 7.05297 10.8867Z" fill="currentColor"/>
</svg>
