<svg width="77" height="77" viewBox="0 0 77 77" fill="none" xmlns="http://www.w3.org/2000/svg">
<rect x="0.724609" y="0.551758" width="75.5517" height="75.5517" rx="37.7759" fill="white" stroke="#306CB5"/>
<path d="M53.6519 43.9095C54.0984 43.9095 54.4493 44.2604 54.4493 44.7069V46.3018C54.4493 48.9492 52.3122 51.0862 49.6648 51.0862C49.6648 48.4548 47.5118 46.3018 44.8803 46.3018C42.2489 46.3018 40.0958 48.4548 40.0958 51.0862H36.9062C36.9062 48.4548 34.7532 46.3018 32.1217 46.3018C29.4902 46.3018 27.3372 48.4548 27.3372 51.0862C24.6898 51.0862 22.5527 48.9492 22.5527 46.3018V43.1121C22.5527 42.2349 23.2704 41.5173 24.1476 41.5173H39.2984C41.4993 41.5173 43.2855 39.7311 43.2855 37.5302V28.7586C43.2855 27.8815 44.0032 27.1638 44.8803 27.1638H46.22C47.3683 27.1638 48.4208 27.7858 48.995 28.7746L50.0157 30.5608C50.1592 30.816 49.9678 31.1509 49.6648 31.1509C47.4639 31.1509 45.6777 32.9371 45.6777 35.138V39.9224C45.6777 42.1233 47.4639 43.9095 49.6648 43.9095H53.6519Z" fill="#306CB5"/>
<path d="M32.1213 54.2758C33.8829 54.2758 35.311 52.8477 35.311 51.0861C35.311 49.3245 33.8829 47.8965 32.1213 47.8965C30.3597 47.8965 28.9316 49.3245 28.9316 51.0861C28.9316 52.8477 30.3597 54.2758 32.1213 54.2758Z" fill="#306CB5"/>
<path d="M44.8811 54.2758C46.6427 54.2758 48.0707 52.8477 48.0707 51.0861C48.0707 49.3245 46.6427 47.8965 44.8811 47.8965C43.1195 47.8965 41.6914 49.3245 41.6914 51.0861C41.6914 52.8477 43.1195 54.2758 44.8811 54.2758Z" fill="#306CB5"/>
<path d="M54.4496 39.173V41.5174H49.6651C48.788 41.5174 48.0703 40.7997 48.0703 39.9225V35.138C48.0703 34.2609 48.788 33.5432 49.6651 33.5432H51.7225L54.035 37.5941C54.3061 38.0725 54.4496 38.6148 54.4496 39.173Z" fill="#306CB5"/>
<path d="M40.2234 22.3794H28.4376C25.5829 22.3794 23.1907 24.4208 22.6644 27.132H29.6338C30.2398 27.132 30.7183 27.6264 30.7183 28.2324C30.7183 28.8384 30.2398 29.3169 29.6338 29.3169H22.5527V31.5178H26.6993C27.3053 31.5178 27.7997 32.0122 27.7997 32.6182C27.7997 33.2242 27.3053 33.7027 26.6993 33.7027H22.5527V35.9035H23.7808C24.3868 35.9035 24.8812 36.3979 24.8812 37.004C24.8812 37.61 24.3868 38.0884 23.7808 38.0884H22.5527V38.4553C22.5527 39.3324 23.2704 40.0501 24.1476 40.0501H38.7402C40.367 40.0501 41.6907 38.7264 41.6907 37.0997V23.8466C41.6907 23.0333 41.0368 22.3794 40.2234 22.3794Z" fill="#306CB5"/>
<path d="M22.6643 27.1321H22.4251H20.8621C20.2561 27.1321 19.7617 27.6265 19.7617 28.2325C19.7617 28.8385 20.2561 29.317 20.8621 29.317H22.3134H22.5527V28.2644C22.5527 27.8816 22.6005 27.4989 22.6643 27.1321Z" fill="#306CB5"/>
<path d="M22.3134 31.5178H20.8621C20.2561 31.5178 19.7617 32.0122 19.7617 32.6183C19.7617 33.2243 20.2561 33.7027 20.8621 33.7027H22.3134H22.5527V31.5178H22.3134Z" fill="#306CB5"/>
<path d="M22.3134 35.9036H20.8621C20.2561 35.9036 19.7617 36.398 19.7617 37.004C19.7617 37.61 20.2561 38.0885 20.8621 38.0885H22.3134H22.5527V35.9036H22.3134Z" fill="#306CB5"/>
</svg>
