<svg width="32" height="32" viewBox="0 0 32 32" fill="none" xmlns="http://www.w3.org/2000/svg">
<path d="M20.0013 6.66699H12.0013C8.25597 6.66699 6.38397 6.66699 5.03864 7.56566C4.45604 7.95487 3.95585 8.45507 3.56664 9.03766C2.66797 10.383 2.66797 12.2537 2.66797 16.0003C2.66797 19.747 2.66797 21.6177 3.56664 22.963C3.95585 23.5456 4.45604 24.0458 5.03864 24.435C5.5013 24.7443 6.0253 24.947 6.66797 25.0803M12.0013 25.3337H20.0013C23.7466 25.3337 25.6186 25.3337 26.964 24.435C27.5466 24.0458 28.0468 23.5456 28.436 22.963C29.3346 21.6177 29.3346 19.747 29.3346 16.0003C29.3346 12.2537 29.3346 10.383 28.436 9.03766C28.0468 8.45507 27.5466 7.95487 26.964 7.56566C26.5013 7.25633 25.9773 7.05366 25.3346 6.92033" stroke="#9191DE" stroke-width="1.5" stroke-linecap="round"/>
<path d="M12 12C10.9391 12 9.92172 12.4214 9.17157 13.1716C8.42143 13.9217 8 14.9391 8 16C8 17.0609 8.42143 18.0783 9.17157 18.8284C9.92172 19.5786 10.9391 20 12 20M20 12C21.0609 12 22.0783 12.4214 22.8284 13.1716C23.5786 13.9217 24 14.9391 24 16C24 17.0609 23.5786 18.0783 22.8284 18.8284C22.0783 19.5786 21.0609 20 20 20" stroke="#010510" stroke-width="1.5" stroke-linecap="round"/>
<path d="M12 6.66699V25.3337M20 6.66699V25.3337" stroke="#010510" stroke-width="1.5" stroke-linecap="round"/>
</svg>
