<svg width="198" height="51" viewBox="0 0 198 51" fill="none" xmlns="http://www.w3.org/2000/svg">
<path d="M104.709 29.1109C104.742 35.8938 104.861 42.0122 104.94 48.7951H116.16V45.6899V20.2162L134.869 48.7952H146.619V13.8544V1.67013H135.175V30.6899L116.259 1.65039H104.709C104.709 10.9464 104.669 20.032 104.709 29.1109Z" fill="#5C34FC"/>
<path fill-rule="evenodd" clip-rule="evenodd" d="M151.676 24.7647L151.676 24.7637C151.801 17.8093 154.308 11.0699 159.725 6.53454C165.254 1.90603 172.438 0.735215 179.368 2.41782L179.374 2.41936L179.38 2.4209C181.227 2.87172 183.001 3.5751 184.654 4.51094L184.659 4.51357C195.218 10.5006 197.92 24.0266 194.289 34.1676C192.573 39.1495 189.087 43.3354 184.488 45.935C179.882 48.539 174.478 49.3701 169.3 48.273C163.917 47.1825 159.193 44.3305 155.961 39.7941C152.798 35.3551 151.582 30.0455 151.676 24.7647ZM171.316 38.6112C174.14 39.2204 177.091 38.7717 179.605 37.3508C182.119 35.9298 184.019 33.6361 184.945 30.9072C187.427 24.0651 185.136 16.1375 179.764 13.0915C178.906 12.6054 177.984 12.2401 177.025 12.0059C168.3 9.8875 161.746 15.3743 161.574 24.9401C161.442 32.3415 165.013 37.3546 171.316 38.6112Z" fill="#5C34FC"/>
<path d="M0.969727 48.7949V46.2883C0.996127 32.4857 0.996127 18.6809 0.969727 4.87387V1.54492H31.772V10.716H12.7574V20.9594H27.4424V29.9133H12.4868V48.7949H1.97963H0.969727Z" fill="white"/>
<path d="M37.6201 48.7957V1.69043H49.5001V48.7957H37.6201Z" fill="white"/>
<path d="M55.0043 45.0655V38.3813L83.0675 10.6378H54.6875L61.5581 1.5918H98.6237L55.0043 45.0655Z" fill="white"/>
<path d="M92.9746 48.7492L55.4404 48.7952C56.14 47.9729 56.7604 47.1044 57.5458 46.3413C70.583 33.3281 83.6268 20.3237 96.6772 7.32812C97.4296 6.57812 98.2348 5.87418 99.3568 4.82812V11.9334L70.7788 40.0058H99.7792L92.9746 48.7492Z" fill="#5C34FC"/>
</svg>
