<svg width="32" height="32" viewBox="0 0 32 32" fill="none" xmlns="http://www.w3.org/2000/svg">
<path d="M25.7782 23.5559V10.667H6.22266V23.5559C6.22266 25.4415 6.22266 26.3843 6.80844 26.9701C7.39423 27.5559 8.33704 27.5559 10.2227 27.5559H21.7782C23.6638 27.5559 24.6066 27.5559 25.1924 26.9701C25.7782 26.3843 25.7782 25.4415 25.7782 23.5559Z" stroke="#010510" stroke-width="1.5"/>
<path d="M24.4436 5.3335H7.55469C5.66907 5.3335 4.72626 5.3335 4.14047 5.91928C3.55469 6.50507 3.55469 7.44788 3.55469 9.3335V10.2668C3.55469 10.4554 3.55469 10.5497 3.61327 10.6083C3.67184 10.6668 3.76613 10.6668 3.95469 10.6668H6.32012H25.6781H28.0436C28.2321 10.6668 28.3264 10.6668 28.385 10.6083C28.4436 10.5497 28.4436 10.4554 28.4436 10.2668V9.3335C28.4436 7.44788 28.4436 6.50507 27.8578 5.91928C27.272 5.3335 26.3292 5.3335 24.4436 5.3335Z" stroke="#010510" stroke-width="1.5"/>
<path d="M13.0371 21.926H18.963" stroke="#9191DE" stroke-width="1.5" stroke-linecap="round"/>
</svg>
