<svg width="32" height="32" viewBox="0 0 32 32" fill="none" xmlns="http://www.w3.org/2000/svg">
<path d="M9.33398 3.40747V7.85192" stroke="#010510" stroke-width="1.5" stroke-linecap="round"/>
<path d="M9.33398 19.7039V25.6298" stroke="#010510" stroke-width="1.5" stroke-linecap="round"/>
<path d="M7.11133 10.815C7.11133 9.5877 8.10625 8.59277 9.33355 8.59277V8.59277C10.5608 8.59277 11.5558 9.5877 11.5558 10.815V16.7409C11.5558 17.9682 10.5608 18.9631 9.33355 18.9631V18.9631C8.10625 18.9631 7.11133 17.9682 7.11133 16.7409V10.815Z" stroke="#9191DE" stroke-width="1.5" stroke-linecap="round"/>
<path d="M22.668 7.85181V15.2592" stroke="#010510" stroke-width="1.5" stroke-linecap="round"/>
<path d="M22.668 22.6667V28.5927" stroke="#010510" stroke-width="1.5" stroke-linecap="round"/>
<path d="M20.4453 18.2222C20.4453 16.9949 21.4402 16 22.6675 16V16C23.8948 16 24.8898 16.9949 24.8898 18.2222V19.7037C24.8898 20.931 23.8948 21.9259 22.6675 21.9259V21.9259C21.4402 21.9259 20.4453 20.931 20.4453 19.7037V18.2222Z" stroke="#9191DE" stroke-width="1.5" stroke-linecap="round"/>
</svg>
