<svg width="26" height="26" viewBox="0 0 26 26" fill="none" xmlns="http://www.w3.org/2000/svg">
<path d="M13.0816 9.94803C11.9782 9.8902 11.0492 10.5144 11.0059 11.3413C10.9625 12.1692 11.8211 12.8861 12.9246 12.9439C14.0281 13.0017 14.8867 13.7197 14.8434 14.5465C14.8 15.3744 13.8701 15.9976 12.7676 15.9398M13.0816 9.94803C13.9504 9.99356 14.6696 10.4488 14.9127 11.0454M13.0816 9.94803L13.134 8.9494M12.7676 15.9398C11.8988 15.8943 11.1797 15.439 10.9365 14.8425M12.7676 15.9398L12.7153 16.9384" stroke="#010510" stroke-width="1.5" stroke-linecap="round" stroke-linejoin="round"/>
<path d="M14.4192 3.50924L13.4206 3.45691C8.94871 3.22255 6.71178 3.10532 5.24989 4.42161C3.788 5.7379 3.67081 7.97384 3.43635 12.4477C3.20204 16.9186 3.08481 19.1555 4.4011 20.6174C5.7174 22.0793 7.95333 22.1965 12.4262 22.4309C16.8981 22.6652 19.135 22.7825 20.5969 21.4662C22.0588 20.1499 22.176 17.9139 22.4104 13.4411L22.4627 12.4425" stroke="#010510" stroke-width="1.5" stroke-linecap="round" stroke-linejoin="round"/>
<path d="M17.876 4.198L19.9907 6.5509M22.1055 8.9038L19.9907 6.5509M19.9907 6.5509L22.3398 4.43194M19.9907 6.5509L17.6416 8.66986" stroke="#010510" stroke-width="1.5" stroke-linecap="round" stroke-linejoin="round"/>
</svg>
