<svg width="18" height="18" viewBox="0 0 18 18" fill="currentColor" xmlns="http://www.w3.org/2000/svg">
<path d="M8.99984 0.666992C4.39984 0.666992 0.666504 4.40033 0.666504 9.00033C0.666504 13.6003 4.39984 17.3337 8.99984 17.3337C13.5998 17.3337 17.3332 13.6003 17.3332 9.00033C17.3332 4.40033 13.5998 0.666992 8.99984 0.666992ZM6.27484 5.38366C6.94984 5.38366 7.50817 5.93366 7.50817 6.61699C7.50817 7.29199 6.95817 7.85033 6.27484 7.85033C5.59984 7.85033 5.0415 7.30033 5.0415 6.61699C5.0415 5.93366 5.5915 5.38366 6.27484 5.38366ZM6.37484 12.167C6.24984 12.292 6.0915 12.3503 5.93317 12.3503C5.77484 12.3503 5.6165 12.292 5.4915 12.167C5.24984 11.9253 5.24984 11.5253 5.4915 11.2837L10.9498 5.82533C11.1915 5.58366 11.5915 5.58366 11.8332 5.82533C12.0748 6.06699 12.0748 6.46699 11.8332 6.70866L6.37484 12.167ZM11.7248 12.617C11.0498 12.617 10.4915 12.067 10.4915 11.3837C10.4915 10.7087 11.0415 10.1503 11.7248 10.1503C12.3998 10.1503 12.9582 10.7003 12.9582 11.3837C12.9582 12.067 12.4082 12.617 11.7248 12.617Z" fill="currentColor"/>
</svg>
