<svg width="32" height="32" viewBox="0 0 32 32" fill="none" xmlns="http://www.w3.org/2000/svg">
<path d="M24.1479 27.0976V4.90204C24.1479 4.26308 23.4357 3.88197 22.9041 4.2364L20.1901 6.0457C19.9003 6.23895 19.5187 6.22239 19.2466 6.00476L16.4995 3.80703C16.2073 3.57329 15.7921 3.57329 15.5 3.80703L12.7528 6.00476C12.4808 6.22239 12.0992 6.23895 11.8093 6.0457L9.09532 4.2364C8.56368 3.88197 7.85156 4.26308 7.85156 4.90204V27.0976C7.85156 27.7366 8.56368 28.1177 9.09532 27.7632L11.8093 25.9539C12.0992 25.7607 12.4808 25.7772 12.7528 25.9949L15.5 28.1926C15.7921 28.4263 16.2073 28.4263 16.4995 28.1926L19.2466 25.9949C19.5187 25.7772 19.9003 25.7607 20.1901 25.9539L22.9041 27.7632C23.4357 28.1177 24.1479 27.7366 24.1479 27.0976Z" stroke="#9191DE" stroke-width="1.5" stroke-linecap="round"/>
<path d="M12.2969 12.2964H19.7043" stroke="#010510" stroke-width="1.5" stroke-linecap="round"/>
<path d="M12.2969 16H19.7043" stroke="#010510" stroke-width="1.5" stroke-linecap="round"/>
<path d="M12.2969 19.7036H19.7043" stroke="#010510" stroke-width="1.5" stroke-linecap="round"/>
</svg>
