<svg width="61" height="61" viewBox="0 0 61 61" fill="none" xmlns="http://www.w3.org/2000/svg">
<rect x="0.5" y="0.101562" width="60" height="60" rx="30" fill="white"/>
<path d="M17 27.1016V39.1016C17 39.4994 17.158 39.8809 17.4393 40.1622C17.7206 40.4435 18.1022 40.6016 18.5 40.6016H42.5C42.8978 40.6016 43.2794 40.4435 43.5607 40.1622C43.842 39.8809 44 39.4994 44 39.1016V27.1016H17Z" fill="#222222"/>
<path d="M44 24.1016V21.1016C44 20.7037 43.842 20.3222 43.5607 20.0409C43.2794 19.7596 42.8978 19.6016 42.5 19.6016H18.5C18.1022 19.6016 17.7206 19.7596 17.4393 20.0409C17.158 20.3222 17 20.7037 17 21.1016V24.1016H44Z" fill="#222222"/>
</svg>
