<svg width="77" height="77" viewBox="0 0 77 77" fill="none" xmlns="http://www.w3.org/2000/svg">
<rect x="0.724609" y="0.551758" width="75.5517" height="75.5517" rx="37.7759" fill="white" stroke="#306CB5"/>
<path d="M39.6973 44.5794H40.7339C41.7705 44.5794 42.6317 43.6544 42.6317 42.5381C42.6317 41.1506 42.1374 40.8794 41.324 40.5924L39.7132 40.0342V44.5794H39.6973Z" fill="#306CB5"/>
<path d="M38.4533 22.2198C29.6498 22.2516 22.5209 29.4124 22.5528 38.2159C22.5847 47.0193 29.7455 54.1482 38.549 54.1163C47.3524 54.0844 54.4813 46.9236 54.4494 38.1202C54.4175 29.3167 47.2567 22.2038 38.4533 22.2198ZM42.1054 38.3275C43.3494 38.7581 45.024 39.6831 45.024 42.5379C45.024 44.9939 43.0942 46.9715 40.7339 46.9715H39.6972V47.8965C39.6972 48.5504 39.155 49.0926 38.5011 49.0926C37.8472 49.0926 37.305 48.5504 37.305 47.8965V46.9715H36.7309C34.1153 46.9715 31.9942 44.7706 31.9942 42.0594C31.9942 41.4055 32.5365 40.8633 33.1903 40.8633C33.8442 40.8633 34.3865 41.4055 34.3865 42.0594C34.3865 43.4469 35.439 44.5792 36.7309 44.5792H37.305V39.1887L34.8968 38.3275C33.6528 37.8969 31.9783 36.9719 31.9783 34.1172C31.9783 31.6611 33.908 29.6835 36.2684 29.6835H37.305V28.7585C37.305 28.1047 37.8472 27.5624 38.5011 27.5624C39.155 27.5624 39.6972 28.1047 39.6972 28.7585V29.6835H40.2714C42.8869 29.6835 45.008 31.8844 45.008 34.5956C45.008 35.2495 44.4658 35.7917 43.8119 35.7917C43.158 35.7917 42.6158 35.2495 42.6158 34.5956C42.6158 33.2081 41.5632 32.0758 40.2714 32.0758H39.6972V37.4663L42.1054 38.3275Z" fill="#306CB5"/>
<path d="M34.3867 34.1333C34.3867 35.5208 34.8811 35.7919 35.6945 36.0789L37.3053 36.6371V32.0759H36.2686C35.232 32.0759 34.3867 33.0009 34.3867 34.1333Z" fill="#306CB5"/>
</svg>
