<svg width="35" height="34" viewBox="0 0 35 34" fill="none" xmlns="http://www.w3.org/2000/svg">
<rect width="35" height="34" rx="17" fill="#306CB5"/>
<path d="M21.2954 8.71337L13.0179 11.4634C7.45369 13.3242 7.45369 16.3584 13.0179 18.21L15.4745 19.0259L16.2904 21.4825C18.142 27.0467 21.1854 27.0467 23.037 21.4825L25.7962 13.2142C27.0245 9.50171 25.0079 7.47587 21.2954 8.71337ZM21.5887 13.645L18.1054 17.1467C17.9679 17.2842 17.7937 17.3484 17.6195 17.3484C17.4454 17.3484 17.2712 17.2842 17.1337 17.1467C16.8679 16.8809 16.8679 16.4409 17.1337 16.175L20.617 12.6734C20.8829 12.4075 21.3229 12.4075 21.5887 12.6734C21.8545 12.9392 21.8545 13.3792 21.5887 13.645Z" fill="white"/>
</svg>
