<svg width="20" height="20" viewBox="0 0 20 20" fill="currentColor" xmlns="http://www.w3.org/2000/svg">
<path d="M16.7498 7.68287C15.2415 7.68287 14.6248 6.61621 15.3748 5.30787C15.8082 4.54954 15.5498 3.58287 14.7915 3.14954L13.3498 2.32454C12.6915 1.93287 11.8415 2.16621 11.4498 2.82454L11.3582 2.98287C10.6082 4.29121 9.37484 4.29121 8.6165 2.98287L8.52484 2.82454C8.14984 2.16621 7.29984 1.93287 6.6415 2.32454L5.19984 3.14954C4.4415 3.58287 4.18317 4.55787 4.6165 5.31621C5.37484 6.61621 4.75817 7.68287 3.24984 7.68287C2.38317 7.68287 1.6665 8.39121 1.6665 9.26621V10.7329C1.6665 11.5995 2.37484 12.3162 3.24984 12.3162C4.75817 12.3162 5.37484 13.3829 4.6165 14.6912C4.18317 15.4495 4.4415 16.4162 5.19984 16.8495L6.6415 17.6745C7.29984 18.0662 8.14984 17.8329 8.5415 17.1745L8.63317 17.0162C9.38317 15.7079 10.6165 15.7079 11.3748 17.0162L11.4665 17.1745C11.8582 17.8329 12.7082 18.0662 13.3665 17.6745L14.8082 16.8495C15.5665 16.4162 15.8248 15.4412 15.3915 14.6912C14.6332 13.3829 15.2498 12.3162 16.7582 12.3162C17.6248 12.3162 18.3415 11.6079 18.3415 10.7329V9.26621C18.3332 8.39954 17.6248 7.68287 16.7498 7.68287ZM9.99984 12.7079C8.50817 12.7079 7.2915 11.4912 7.2915 9.99954C7.2915 8.50787 8.50817 7.29121 9.99984 7.29121C11.4915 7.29121 12.7082 8.50787 12.7082 9.99954C12.7082 11.4912 11.4915 12.7079 9.99984 12.7079Z" fill="currentColor"/>
</svg>
