<svg width="32" height="32" viewBox="0 0 32 32" fill="none" xmlns="http://www.w3.org/2000/svg">
<path d="M5.474 6.87024C5 7.54558 5 9.553 5 13.5679V15.545C5 22.6241 10.3224 26.0595 13.6617 27.5182C14.5676 27.9139 15.0205 28.1118 16.3003 28.1118C17.5801 28.1118 18.033 27.9139 18.9388 27.5182C22.2782 26.0595 27.6006 22.6241 27.6006 15.545V13.5679C27.6006 9.553 27.6006 7.54558 27.1266 6.87024C26.6526 6.19489 24.7651 5.54879 20.99 4.25658L20.2708 4.01039C18.303 3.3368 17.3191 3 16.3003 3C15.2815 3 14.2976 3.3368 12.3298 4.01039L11.6106 4.25658L11.6105 4.25659C7.83552 5.54879 5.94801 6.19489 5.474 6.87024Z" stroke="#9191DE" stroke-width="1.88338"/>
<path d="M20.1418 13.6717C20.4882 13.2837 20.4545 12.6884 20.0665 12.342C19.6786 11.9957 19.0833 12.0294 18.7369 12.4173L14.9551 16.6529L13.8639 15.4307C13.5175 15.0428 12.9222 15.0091 12.5342 15.3555C12.1463 15.7018 12.1126 16.2971 12.459 16.6851L14.2527 18.694C14.4313 18.8941 14.6869 19.0085 14.9551 19.0085C15.2234 19.0085 15.4789 18.8941 15.6576 18.694L20.1418 13.6717Z" fill="black"/>
</svg>
