<svg width="32" height="32" viewBox="0 0 32 32" fill="none" xmlns="http://www.w3.org/2000/svg">
<circle cx="16.0013" cy="16.0003" r="13.3333" stroke="#010510" stroke-width="1.5"/>
<circle cx="16.0001" cy="16.0001" r="5.92593" stroke="#010510" stroke-width="1.5"/>
<path d="M16.0013 2.66699V9.33366M24.8902 24.8892L20.4457 20.4448M24.8902 7.11144L20.4457 11.5559M2.66797 16.0003H9.33464" stroke="#010510" stroke-width="1.5" stroke-linecap="round"/>
<path d="M24.8901 7.11098L20.4456 11.5554C20.3052 11.6958 20.3061 11.9228 20.4378 12.0714C21.3644 13.1171 21.927 14.4928 21.927 15.9999C21.927 17.507 21.3644 18.8826 20.4378 19.9284C20.3061 20.077 20.3052 20.3039 20.4456 20.4443L24.8901 24.8888C25.1879 25.1865 25.6725 25.188 25.9529 24.8737C28.0562 22.5166 29.3345 19.4075 29.3345 15.9999C29.3345 12.5922 28.0562 9.48313 25.9529 7.12601C25.6725 6.81178 25.1879 6.81319 24.8901 7.11098Z" stroke="#9191DE" stroke-width="1.5" stroke-linecap="round"/>
</svg>
