<svg width="32" height="32" viewBox="0 0 32 32" fill="none" xmlns="http://www.w3.org/2000/svg">
<path d="M6.37109 15.0688V24.254C6.37109 26.4632 8.16195 28.254 10.3711 28.254H21.6303C23.8395 28.254 25.6304 26.4632 25.6304 24.254V15.0688" stroke="#9191DE" stroke-width="1.5" stroke-linecap="round"/>
<path d="M19.7023 27.5134V20.6245C19.7023 19.5199 18.8069 18.6245 17.7023 18.6245H14.2949C13.1904 18.6245 12.2949 19.5199 12.2949 20.6245V27.5134" stroke="#010510" stroke-width="1.5" stroke-linejoin="round"/>
<path d="M5.33123 6.97462C5.83514 5.79882 6.0871 5.21093 6.58804 4.88061C7.08898 4.55029 7.72859 4.55029 9.00781 4.55029H22.9919C24.2711 4.55029 24.9107 4.55029 25.4117 4.88061C25.9126 5.21093 26.1646 5.79882 26.6685 6.97462L28.2817 10.7389C29.0912 12.6277 29.496 13.5721 29.0514 14.2464C28.6068 14.9207 27.5793 14.9207 25.5243 14.9207H25.4478C24.8169 14.9207 24.5015 14.9207 24.253 14.7592C24.0044 14.5976 23.8763 14.3094 23.6201 13.7329L21.9964 10.0796C21.7015 9.41595 21.554 9.08411 21.468 9.11245C21.3821 9.14078 21.4609 9.49526 21.6184 10.2042L22.1257 12.4868C22.3753 13.6103 22.5002 14.1721 22.1999 14.5464C21.8997 14.9207 21.3242 14.9207 20.1733 14.9207H18.5307C17.6792 14.9207 17.2535 14.9207 16.9687 14.6658C16.684 14.4109 16.6369 13.9878 16.5429 13.1415L16.1986 10.043C16.1258 9.38735 16.0894 9.05954 15.9999 9.05954C15.9104 9.05954 15.8739 9.38735 15.8011 10.043L15.4568 13.1415C15.3628 13.9878 15.3158 14.4109 15.031 14.6658C14.7462 14.9207 14.3205 14.9207 13.469 14.9207H11.8264C10.6755 14.9207 10.1 14.9207 9.79976 14.5464C9.49953 14.1721 9.62437 13.6103 9.87405 12.4868L10.3813 10.2042C10.5388 9.49526 10.6176 9.14078 10.5317 9.11245C10.4457 9.08411 10.2982 9.41595 10.0033 10.0796L8.37958 13.7329C8.12337 14.3094 7.99527 14.5976 7.74675 14.7592C7.49823 14.9207 7.1828 14.9207 6.55196 14.9207H6.4754C4.42042 14.9207 3.39293 14.9207 2.94833 14.2464C2.50372 13.5721 2.90847 12.6277 3.71796 10.7389L5.33123 6.97462Z" stroke="#010510" stroke-width="1.5"/>
</svg>
