<svg width="21" height="24" viewBox="0 0 21 24" fill="none" xmlns="http://www.w3.org/2000/svg">
<path d="M10.7812 17C10.3897 17.0002 10.0068 16.8854 9.67989 16.67C9.35298 16.4545 9.09651 16.1479 8.94225 15.788C8.61959 15.7118 8.30198 15.6156 7.99125 15.5L7.97425 15.494C7.06183 15.1515 6.21967 14.6452 5.48925 14C4.51064 13.1367 3.75807 12.0472 3.29716 10.8263C2.83625 9.60545 2.68099 8.29037 2.84493 6.99574C3.00886 5.70111 3.48701 4.46623 4.23769 3.39879C4.98836 2.33135 5.98876 1.46375 7.15167 0.871641C8.31457 0.279531 9.60467 -0.0191109 10.9095 0.00175536C12.2143 0.0226216 13.4942 0.362362 14.6375 0.991354C15.7809 1.62035 16.7531 2.51949 17.4692 3.61039C18.1854 4.70129 18.6238 5.95082 18.7462 7.25003C18.7852 7.66303 18.4462 8.00003 18.0312 8.00003C17.6172 8.00003 17.2863 7.66303 17.2382 7.25103C17.1061 6.11432 16.6761 5.03266 15.9918 4.11539C15.3076 3.19812 14.3933 2.47775 13.3414 2.02711C12.2895 1.57647 11.1373 1.41153 10.0012 1.54896C8.86508 1.68638 7.78541 2.12132 6.8713 2.80978C5.95719 3.49825 5.24104 4.41584 4.79524 5.46981C4.34945 6.52378 4.18981 7.67676 4.33247 8.81221C4.47513 9.94765 4.91502 11.0253 5.60769 11.9362C6.30036 12.8472 7.22124 13.5591 8.27725 14L8.31725 14.017C8.51725 14.099 8.72258 14.1714 8.93325 14.234C9.12589 13.7647 9.48972 13.386 9.95105 13.1749C10.4124 12.9637 10.9367 12.9357 11.4179 13.0967C11.8991 13.2576 12.3011 13.5954 12.5425 14.0417C12.784 14.4879 12.8468 15.0092 12.7182 15.5C12.6074 15.9294 12.3569 16.3098 12.0063 16.5813C11.6557 16.8529 11.2247 17.0001 10.7812 17ZM3.78125 15.5L4.95025 15.5C4.39116 15.0643 3.88206 14.5679 3.43225 14.02C2.70196 14.1056 2.02852 14.4563 1.53981 15.0057C1.0511 15.555 0.78116 16.2647 0.78125 17L0.78125 17.715C0.78125 21.433 4.99125 24 10.7812 24C16.5712 24 20.7812 21.292 20.7812 17.715L20.7812 17C20.7812 16.2044 20.4652 15.4413 19.9026 14.8787C19.34 14.3161 18.5769 14 17.7812 14L14.1362 14C14.2812 14.4861 14.3187 14.998 14.2462 15.5L17.7812 15.5L17.9262 15.507C18.2972 15.5431 18.6415 15.7159 18.892 15.9919C19.1425 16.2679 19.2813 16.6273 19.2812 17L19.2812 17.715L19.2762 17.876C19.1363 20.396 15.7072 22.5 10.7812 22.5C5.67025 22.5 2.28125 20.389 2.28125 17.715L2.28125 17L2.28825 16.855C2.32428 16.484 2.49714 16.1398 2.77314 15.8893C3.04915 15.6388 3.40852 15.5 3.78125 15.5ZM15.7812 8.00003C15.7814 8.90581 15.5355 9.79462 15.0698 10.5715C14.6041 11.3484 13.9362 11.9842 13.1373 12.411C12.4927 11.8247 11.6526 11.4998 10.7812 11.5C11.2409 11.5 11.696 11.4095 12.1206 11.2336C12.5453 11.0577 12.9311 10.7999 13.2561 10.4749C13.5811 10.1499 13.8389 9.76406 14.0148 9.33942C14.1907 8.91478 14.2812 8.45966 14.2812 8.00003C14.2812 7.5404 14.1907 7.08528 14.0148 6.66064C13.8389 6.236 13.5811 5.85016 13.2561 5.52516C12.9311 5.20015 12.5453 4.94234 12.1206 4.76645C11.696 4.59056 11.2409 4.50003 10.7812 4.50003C9.85299 4.50003 8.96275 4.86878 8.30638 5.52516C7.65 6.18153 7.28125 7.07177 7.28125 8.00003C7.28125 8.92829 7.65 9.81852 8.30638 10.4749C8.96275 11.1313 9.85299 11.5 10.7812 11.5C9.87325 11.5 9.04725 11.846 8.42625 12.412C7.62774 11.9856 6.95999 11.3503 6.49425 10.574C6.09771 9.91341 5.85922 9.17008 5.79738 8.40207C5.73554 7.63406 5.85203 6.86215 6.13776 6.14659C6.42349 5.43103 6.87072 4.79119 7.44455 4.27701C8.01838 3.76282 8.70328 3.38822 9.44579 3.18242C10.1883 2.97663 10.9683 2.94522 11.725 3.09064C12.4816 3.23607 13.1944 3.55439 13.8077 4.02077C14.421 4.48715 14.9183 5.08896 15.2606 5.77922C15.603 6.46949 15.7811 7.22953 15.7812 8.00003Z" fill="#010510"/>
</svg>
