<svg width="77" height="77" viewBox="0 0 77 77" fill="none" xmlns="http://www.w3.org/2000/svg">
<rect x="0.724609" y="0.551758" width="75.5517" height="75.5517" rx="37.7759" fill="white" stroke="#306CB5"/>
<path d="M36.9859 43.0324L34.0355 45.9828C33.4135 46.6048 32.4247 46.6048 31.7868 45.9988C31.6114 45.8234 31.4359 45.6639 31.2605 45.4884C29.6178 43.8298 28.1346 42.0915 26.8109 40.2734C25.5032 38.4553 24.4506 36.6372 23.6851 34.835C22.9355 33.0169 22.5527 31.2785 22.5527 29.6199C22.5527 28.5354 22.7441 27.4988 23.1269 26.5419C23.5096 25.5691 24.1157 24.6759 24.9609 23.8785C25.9816 22.8738 27.098 22.3794 28.2782 22.3794C28.7247 22.3794 29.1713 22.4751 29.57 22.6665C29.9846 22.8578 30.3514 23.1449 30.6385 23.5596L34.3385 28.7747C34.6256 29.1734 34.8329 29.5402 34.9764 29.891C35.12 30.2259 35.1997 30.5609 35.1997 30.8639C35.1997 31.2466 35.0881 31.6294 34.8648 31.9962C34.6575 32.363 34.3545 32.7458 33.9717 33.1285L32.7596 34.3884C32.5842 34.5639 32.5045 34.7712 32.5045 35.0264C32.5045 35.154 32.5204 35.2656 32.5523 35.3932C32.6002 35.5208 32.648 35.6165 32.6799 35.7122C32.967 36.2384 33.4614 36.9242 34.1631 37.7535C34.8808 38.5828 35.6463 39.4281 36.4756 40.2734C36.6351 40.4328 36.8105 40.5923 36.97 40.7518C37.6079 41.3738 37.6239 42.3945 36.9859 43.0324Z" fill="#306CB5"/>
<path d="M54.4018 48.4229C54.4018 48.8694 54.3221 49.3319 54.1626 49.7785C54.1148 49.9061 54.0669 50.0336 54.0031 50.1612C53.732 50.7354 53.3812 51.2776 52.9187 51.788C52.1372 52.6492 51.276 53.2711 50.3031 53.6698C50.2872 53.6698 50.2712 53.6858 50.2553 53.6858C49.3143 54.0686 48.2937 54.2759 47.1932 54.2759C45.5665 54.2759 43.8281 53.8931 41.9941 53.1117C40.16 52.3302 38.326 51.2776 36.5079 49.9539C35.8859 49.4914 35.2639 49.0289 34.6738 48.5345L39.8889 43.3194C40.3355 43.6543 40.7342 43.9095 41.0691 44.0849C41.1488 44.1168 41.2445 44.1647 41.3562 44.2125C41.4837 44.2604 41.6113 44.2763 41.7549 44.2763C42.026 44.2763 42.2333 44.1806 42.4087 44.0052L43.6208 42.8091C44.0195 42.4104 44.4023 42.1073 44.7691 41.916C45.1359 41.6927 45.5027 41.5811 45.9014 41.5811C46.2044 41.5811 46.5234 41.6448 46.8743 41.7884C47.2251 41.9319 47.5919 42.1392 47.9906 42.4104L53.2695 46.1582C53.6842 46.4453 53.9712 46.7802 54.1467 47.1789C54.3062 47.5776 54.4018 47.9763 54.4018 48.4229Z" fill="#306CB5"/>
</svg>
