<svg width="27" height="26" viewBox="0 0 27 26" fill="none" xmlns="http://www.w3.org/2000/svg">
<path d="M15.2438 8.13035L17.6405 8.00475M17.6405 8.00475L20.0372 7.87914M17.6405 8.00475L17.7661 10.4015M17.6405 8.00475L17.5149 5.60804" stroke="black" stroke-width="1.2" stroke-linecap="round"/>
<path d="M5.65673 8.63263C5.57778 7.1262 5.53831 6.37299 5.98177 5.88047C6.42523 5.38796 7.17845 5.34849 8.68487 5.26954C10.1913 5.19059 10.9445 5.15111 11.437 5.59457C11.9295 6.03804 11.969 6.79125 12.048 8.29768C12.1269 9.8041 12.1664 10.5573 11.7229 11.0498C11.2795 11.5423 10.5262 11.5818 9.01982 11.6608C7.5134 11.7397 6.76018 11.7792 6.26767 11.3357C5.77516 10.8923 5.73568 10.1391 5.65673 8.63263Z" stroke="black" stroke-width="1.2"/>
<path d="M14.9058 16.96C14.8268 15.4536 14.7873 14.7004 15.2308 14.2079C15.6743 13.7154 16.4275 13.6759 17.9339 13.5969C19.4403 13.518 20.1935 13.4785 20.686 13.922C21.1786 14.3654 21.218 15.1186 21.297 16.6251C21.3759 18.1315 21.4154 18.8847 20.9719 19.3772C20.5285 19.8697 19.7753 19.9092 18.2688 19.9882C16.7624 20.0671 16.0092 20.1066 15.5167 19.6631C15.0242 19.2197 14.9847 18.4664 14.9058 16.96Z" stroke="black" stroke-width="1.2"/>
<path d="M6.11767 17.4207C6.03872 15.9143 5.99925 15.1611 6.44271 14.6686C6.88617 14.176 7.63938 14.1366 9.14581 14.0576C10.6522 13.9787 11.4055 13.9392 11.898 14.3827C12.3905 14.8261 12.43 15.5793 12.5089 17.0858C12.5878 18.5922 12.6273 19.3454 12.1839 19.8379C11.7404 20.3304 10.9872 20.3699 9.48076 20.4489C7.97433 20.5278 7.22112 20.5673 6.72861 20.1238C6.23609 19.6804 6.19662 18.9271 6.11767 17.4207Z" stroke="black" stroke-width="1.2"/>
</svg>
