<svg width="32" height="32" viewBox="0 0 32 32" fill="none" xmlns="http://www.w3.org/2000/svg">
<path d="M23.9966 28.8766C22.4459 30.3542 20.7527 30.1209 19.1229 29.421C17.3981 28.7055 15.8157 28.6744 13.996 29.421C11.7174 30.3853 10.5148 30.1053 9.15392 28.8766C1.43193 21.0532 2.57124 9.1391 11.3376 8.7036C13.4738 8.81247 14.9612 9.85456 16.2113 9.94789C18.0785 9.5746 19.8666 8.5014 21.8604 8.64138C24.2498 8.82803 26.0537 9.76124 27.2405 11.441C22.3035 14.3496 23.4744 20.7421 28 22.5307C27.098 24.8638 25.9271 27.1813 23.9808 28.8922L23.9966 28.8766ZM16.0531 8.61028C15.8157 5.14183 18.6798 2.27996 21.9712 2C22.43 6.01283 18.2684 8.99912 16.0531 8.61028Z" fill="black"/>
</svg>
