<svg width="184" height="57" viewBox="0 0 184 57" fill="none" xmlns="http://www.w3.org/2000/svg">
<rect x="0.5" y="0.5" width="183" height="56" rx="7.5" fill="#306CB5"/>
<rect x="0.5" y="0.5" width="183" height="56" rx="7.5" stroke="#D9D9D9"/>
<rect x="8" y="6" width="45" height="45" rx="4" fill="#DFEDFF"/>
<path d="M31.0131 14.2122L43.5131 19.2122C43.9992 19.4066 44.3881 19.99 44.3881 20.5039V25.115C44.3881 25.8789 43.7631 26.5039 42.9992 26.5039H17.9992C17.2354 26.5039 16.6104 25.8789 16.6104 25.115V20.5039C16.6104 19.99 16.9992 19.4066 17.4854 19.2122L29.9854 14.2122C30.2631 14.1011 30.7353 14.1011 31.0131 14.2122Z" stroke="#306CB5" stroke-width="1.5" stroke-miterlimit="10" stroke-linecap="round" stroke-linejoin="round"/>
<path d="M44.3881 41.7821H16.6104V37.6155C16.6104 36.8516 17.2354 36.2266 17.9992 36.2266H42.9992C43.7631 36.2266 44.3881 36.8516 44.3881 37.6155V41.7821Z" stroke="#306CB5" stroke-width="1.5" stroke-miterlimit="10" stroke-linecap="round" stroke-linejoin="round"/>
<path d="M19.3887 36.2261V26.5039" stroke="#306CB5" stroke-width="1.5" stroke-miterlimit="10" stroke-linecap="round" stroke-linejoin="round"/>
<path d="M24.9443 36.2261V26.5039" stroke="#306CB5" stroke-width="1.5" stroke-miterlimit="10" stroke-linecap="round" stroke-linejoin="round"/>
<path d="M30.5 36.2261V26.5039" stroke="#306CB5" stroke-width="1.5" stroke-miterlimit="10" stroke-linecap="round" stroke-linejoin="round"/>
<path d="M36.0557 36.2261V26.5039" stroke="#306CB5" stroke-width="1.5" stroke-miterlimit="10" stroke-linecap="round" stroke-linejoin="round"/>
<path d="M41.6104 36.2261V26.5039" stroke="#306CB5" stroke-width="1.5" stroke-miterlimit="10" stroke-linecap="round" stroke-linejoin="round"/>
<path d="M15.2217 41.7812H45.7772" stroke="#306CB5" stroke-width="1.5" stroke-miterlimit="10" stroke-linecap="round" stroke-linejoin="round"/>
<path d="M30.4993 23.0339C31.6499 23.0339 32.5827 22.1011 32.5827 20.9505C32.5827 19.7999 31.6499 18.8672 30.4993 18.8672C29.3488 18.8672 28.416 19.7999 28.416 20.9505C28.416 22.1011 29.3488 23.0339 30.4993 23.0339Z" stroke="#306CB5" stroke-width="1.5" stroke-miterlimit="10" stroke-linecap="round" stroke-linejoin="round"/>
<path d="M66.358 28.904C66.918 29.0813 67.3567 29.38 67.674 29.8C67.9913 30.2107 68.15 30.7193 68.15 31.326C68.15 32.1847 67.814 32.8473 67.142 33.314C66.4793 33.7713 65.5087 34 64.23 34H59.162V24.2H63.95C65.1447 24.2 66.0593 24.4287 66.694 24.886C67.338 25.3433 67.66 25.964 67.66 26.748C67.66 27.224 67.5433 27.6487 67.31 28.022C67.086 28.3953 66.7687 28.6893 66.358 28.904ZM61.416 25.908V28.218H63.67C64.23 28.218 64.6547 28.12 64.944 27.924C65.2333 27.728 65.378 27.4387 65.378 27.056C65.378 26.6733 65.2333 26.3887 64.944 26.202C64.6547 26.006 64.23 25.908 63.67 25.908H61.416ZM64.062 32.292C64.6593 32.292 65.1073 32.194 65.406 31.998C65.714 31.802 65.868 31.4987 65.868 31.088C65.868 30.276 65.266 29.87 64.062 29.87H61.416V32.292H64.062ZM72.7511 26.356C73.9177 26.356 74.8137 26.636 75.4391 27.196C76.0644 27.7467 76.3771 28.582 76.3771 29.702V34H74.3331V33.062C73.9224 33.762 73.1571 34.112 72.0371 34.112C71.4584 34.112 70.9544 34.014 70.5251 33.818C70.1051 33.622 69.7831 33.3513 69.5591 33.006C69.3351 32.6607 69.2231 32.2687 69.2231 31.83C69.2231 31.13 69.4844 30.5793 70.0071 30.178C70.5391 29.7767 71.3557 29.576 72.4571 29.576H74.1931C74.1931 29.1 74.0484 28.736 73.7591 28.484C73.4697 28.2227 73.0357 28.092 72.4571 28.092C72.0557 28.092 71.6591 28.1573 71.2671 28.288C70.8844 28.4093 70.5577 28.5773 70.2871 28.792L69.5031 27.266C69.9137 26.9767 70.4037 26.7527 70.9731 26.594C71.5517 26.4353 72.1444 26.356 72.7511 26.356ZM72.5831 32.642C72.9564 32.642 73.2877 32.558 73.5771 32.39C73.8664 32.2127 74.0717 31.956 74.1931 31.62V30.85H72.6951C71.7991 30.85 71.3511 31.144 71.3511 31.732C71.3511 32.012 71.4584 32.236 71.6731 32.404C71.8971 32.5627 72.2004 32.642 72.5831 32.642ZM82.9317 26.356C83.865 26.356 84.6164 26.636 85.1857 27.196C85.7644 27.756 86.0537 28.5867 86.0537 29.688V34H83.8697V30.024C83.8697 29.4267 83.739 28.9833 83.4777 28.694C83.2164 28.3953 82.8384 28.246 82.3437 28.246C81.793 28.246 81.3544 28.4187 81.0277 28.764C80.701 29.1 80.5377 29.604 80.5377 30.276V34H78.3537V26.468H80.4397V27.35C80.729 27.0327 81.0884 26.79 81.5177 26.622C81.947 26.4447 82.4184 26.356 82.9317 26.356ZM91.2674 31.046L90.2174 32.082V34H88.0334V23.612H90.2174V29.492L93.4094 26.468H96.0134L92.8774 29.66L96.2934 34H93.6474L91.2674 31.046ZM101.394 24.2H105.846C106.91 24.2 107.848 24.4053 108.66 24.816C109.482 25.2173 110.116 25.7867 110.564 26.524C111.022 27.2613 111.25 28.12 111.25 29.1C111.25 30.08 111.022 30.9387 110.564 31.676C110.116 32.4133 109.482 32.9873 108.66 33.398C107.848 33.7993 106.91 34 105.846 34H101.394V24.2ZM105.734 32.138C106.714 32.138 107.494 31.8673 108.072 31.326C108.66 30.7753 108.954 30.0333 108.954 29.1C108.954 28.1667 108.66 27.4293 108.072 26.888C107.494 26.3373 106.714 26.062 105.734 26.062H103.662V32.138H105.734ZM120.185 30.262C120.185 30.29 120.171 30.486 120.143 30.85H114.445C114.547 31.3167 114.79 31.6853 115.173 31.956C115.555 32.2267 116.031 32.362 116.601 32.362C116.993 32.362 117.338 32.306 117.637 32.194C117.945 32.0727 118.229 31.886 118.491 31.634L119.653 32.894C118.943 33.706 117.907 34.112 116.545 34.112C115.695 34.112 114.944 33.9487 114.291 33.622C113.637 33.286 113.133 32.824 112.779 32.236C112.424 31.648 112.247 30.9807 112.247 30.234C112.247 29.4967 112.419 28.834 112.765 28.246C113.119 27.6487 113.6 27.1867 114.207 26.86C114.823 26.524 115.509 26.356 116.265 26.356C117.002 26.356 117.669 26.5147 118.267 26.832C118.864 27.1493 119.331 27.6067 119.667 28.204C120.012 28.792 120.185 29.478 120.185 30.262ZM116.279 28.008C115.784 28.008 115.369 28.148 115.033 28.428C114.697 28.708 114.491 29.0907 114.417 29.576H118.127C118.052 29.1 117.847 28.722 117.511 28.442C117.175 28.1527 116.764 28.008 116.279 28.008ZM126.497 33.636C126.282 33.7947 126.016 33.916 125.699 34C125.391 34.0747 125.064 34.112 124.719 34.112C123.823 34.112 123.128 33.8833 122.633 33.426C122.148 32.9687 121.905 32.2967 121.905 31.41V28.316H120.743V26.636H121.905V24.802H124.089V26.636H125.965V28.316H124.089V31.382C124.089 31.6993 124.168 31.9467 124.327 32.124C124.495 32.292 124.728 32.376 125.027 32.376C125.372 32.376 125.666 32.2827 125.909 32.096L126.497 33.636ZM130.761 26.356C131.928 26.356 132.824 26.636 133.449 27.196C134.074 27.7467 134.387 28.582 134.387 29.702V34H132.343V33.062C131.932 33.762 131.167 34.112 130.047 34.112C129.468 34.112 128.964 34.014 128.535 33.818C128.115 33.622 127.793 33.3513 127.569 33.006C127.345 32.6607 127.233 32.2687 127.233 31.83C127.233 31.13 127.494 30.5793 128.017 30.178C128.549 29.7767 129.366 29.576 130.467 29.576H132.203C132.203 29.1 132.058 28.736 131.769 28.484C131.48 28.2227 131.046 28.092 130.467 28.092C130.066 28.092 129.669 28.1573 129.277 28.288C128.894 28.4093 128.568 28.5773 128.297 28.792L127.513 27.266C127.924 26.9767 128.414 26.7527 128.983 26.594C129.562 26.4353 130.154 26.356 130.761 26.356ZM130.593 32.642C130.966 32.642 131.298 32.558 131.587 32.39C131.876 32.2127 132.082 31.956 132.203 31.62V30.85H130.705C129.809 30.85 129.361 31.144 129.361 31.732C129.361 32.012 129.468 32.236 129.683 32.404C129.907 32.5627 130.21 32.642 130.593 32.642ZM136.363 26.468H138.547V34H136.363V26.468ZM137.455 25.418C137.054 25.418 136.727 25.3013 136.475 25.068C136.223 24.8347 136.097 24.5453 136.097 24.2C136.097 23.8547 136.223 23.5653 136.475 23.332C136.727 23.0987 137.054 22.982 137.455 22.982C137.857 22.982 138.183 23.094 138.435 23.318C138.687 23.542 138.813 23.822 138.813 24.158C138.813 24.522 138.687 24.8253 138.435 25.068C138.183 25.3013 137.857 25.418 137.455 25.418ZM140.574 23.612H142.758V34H140.574V23.612ZM147.319 34.112C146.694 34.112 146.083 34.0373 145.485 33.888C144.888 33.7293 144.412 33.5333 144.057 33.3L144.785 31.732C145.121 31.9467 145.527 32.124 146.003 32.264C146.479 32.3947 146.946 32.46 147.403 32.46C148.327 32.46 148.789 32.2313 148.789 31.774C148.789 31.5593 148.663 31.4053 148.411 31.312C148.159 31.2187 147.772 31.1393 147.249 31.074C146.633 30.9807 146.125 30.8733 145.723 30.752C145.322 30.6307 144.972 30.416 144.673 30.108C144.384 29.8 144.239 29.3613 144.239 28.792C144.239 28.316 144.375 27.896 144.645 27.532C144.925 27.1587 145.327 26.8693 145.849 26.664C146.381 26.4587 147.007 26.356 147.725 26.356C148.257 26.356 148.785 26.4167 149.307 26.538C149.839 26.65 150.278 26.8087 150.623 27.014L149.895 28.568C149.233 28.1947 148.509 28.008 147.725 28.008C147.259 28.008 146.909 28.0733 146.675 28.204C146.442 28.3347 146.325 28.5027 146.325 28.708C146.325 28.9413 146.451 29.1047 146.703 29.198C146.955 29.2913 147.357 29.38 147.907 29.464C148.523 29.5667 149.027 29.6787 149.419 29.8C149.811 29.912 150.152 30.122 150.441 30.43C150.731 30.738 150.875 31.1673 150.875 31.718C150.875 32.1847 150.735 32.6 150.455 32.964C150.175 33.328 149.765 33.6127 149.223 33.818C148.691 34.014 148.057 34.112 147.319 34.112Z" fill="white"/>
</svg>
