<svg width="24" height="27" viewBox="0 0 24 27" fill="none" xmlns="http://www.w3.org/2000/svg">
<path d="M16.6875 11.25V5.625C16.6875 4.3818 16.1937 3.18951 15.3146 2.31044C14.4355 1.43136 13.2432 0.9375 12 0.9375C10.7568 0.9375 9.56456 1.43136 8.68548 2.31044C7.8064 3.18951 7.31254 4.3818 7.31254 5.625V11.25M21.5075 8.75875L23.0863 23.7587C23.1738 24.59 22.5238 25.3125 21.6875 25.3125H2.31254C2.1153 25.3127 1.92022 25.2714 1.73998 25.1913C1.55973 25.1112 1.39835 24.9941 1.26632 24.8476C1.13429 24.7011 1.03456 24.5284 0.97361 24.3408C0.91266 24.1532 0.891854 23.9549 0.912542 23.7587L2.49254 8.75875C2.52899 8.4132 2.69207 8.09338 2.95036 7.86095C3.20864 7.62852 3.54383 7.49994 3.89129 7.5H20.1088C20.8288 7.5 21.4325 8.04375 21.5075 8.75875ZM7.78129 11.25C7.78129 11.3743 7.73191 11.4935 7.644 11.5815C7.55609 11.6694 7.43686 11.7188 7.31254 11.7188C7.18822 11.7188 7.06899 11.6694 6.98109 11.5815C6.89318 11.4935 6.84379 11.3743 6.84379 11.25C6.84379 11.1257 6.89318 11.0065 6.98109 10.9185C7.06899 10.8306 7.18822 10.7812 7.31254 10.7812C7.43686 10.7812 7.55609 10.8306 7.644 10.9185C7.73191 11.0065 7.78129 11.1257 7.78129 11.25ZM17.1563 11.25C17.1563 11.3743 17.1069 11.4935 17.019 11.5815C16.9311 11.6694 16.8119 11.7188 16.6875 11.7188C16.5632 11.7188 16.444 11.6694 16.3561 11.5815C16.2682 11.4935 16.2188 11.3743 16.2188 11.25C16.2188 11.1257 16.2682 11.0065 16.3561 10.9185C16.444 10.8306 16.5632 10.7812 16.6875 10.7812C16.8119 10.7812 16.9311 10.8306 17.019 10.9185C17.1069 11.0065 17.1563 11.1257 17.1563 11.25Z" stroke="black" stroke-width="1.5" stroke-linecap="round" stroke-linejoin="round"/>
</svg>
