<svg width="83" height="83" viewBox="0 0 83 83" fill="none" xmlns="http://www.w3.org/2000/svg">
<rect x="1" y="1" width="81" height="81" rx="40.5" fill="#306CB5" stroke="#616161" stroke-width="2"/>
<path d="M27.2463 43.691H48.6628C49.1559 43.691 49.5552 43.2916 49.5552 42.7986C49.5552 42.3056 49.1559 41.9062 48.6628 41.9062H27.2463C26.7533 41.9062 26.3539 42.3056 26.3539 42.7986C26.3539 43.2916 26.7533 43.691 27.2463 43.691Z" fill="white"/>
<path d="M27.2463 38.3368H48.6628C49.1559 38.3368 49.5552 37.9374 49.5552 37.4444C49.5552 36.9514 49.1559 36.5521 48.6628 36.5521H27.2463C26.7533 36.5521 26.3539 36.9514 26.3539 37.4444C26.3539 37.9374 26.7533 38.3368 27.2463 38.3368Z" fill="white"/>
<path d="M27.2463 32.9826H48.6628C49.1559 32.9826 49.5552 32.5833 49.5552 32.0903C49.5552 31.5973 49.1559 31.1979 48.6628 31.1979H27.2463C26.7533 31.1979 26.3539 31.5973 26.3539 32.0903C26.3539 32.5833 26.7533 32.9826 27.2463 32.9826Z" fill="white"/>
<path d="M58.5236 36.7125L54.9095 40.3287V24.059C54.9095 22.5822 53.7093 21.3819 52.2325 21.3819H49.5554V18.7049C49.5554 18.2118 49.1561 17.8125 48.663 17.8125C48.17 17.8125 47.7707 18.2118 47.7707 18.7049V21.3819H42.4165V18.7049C42.4165 18.2118 42.0172 17.8125 41.5242 17.8125C41.0312 17.8125 40.6318 18.2118 40.6318 18.7049V21.3819H35.2777V18.7049C35.2777 18.2118 34.8784 17.8125 34.3853 17.8125C33.8923 17.8125 33.493 18.2118 33.493 18.7049V21.3819H28.1388V18.7049C28.1388 18.2118 27.7395 17.8125 27.2465 17.8125C26.7535 17.8125 26.3541 18.2118 26.3541 18.7049V21.3819H23.6771C22.2002 21.3819 21 22.5822 21 24.059V56.1838C21 57.6606 22.2002 58.8609 23.6771 58.8609H38.0707V65.1076C38.0707 65.6007 38.47 66 38.9631 66H46.5348C46.7713 66 46.9988 65.9063 47.1662 65.739L67.3577 45.5475C68.5378 44.3673 69.187 42.799 69.187 41.1303C69.187 39.4616 68.5378 37.8933 67.3577 36.7131C64.9996 34.3528 60.8813 34.3528 58.5232 36.7131L58.5236 36.7125ZM38.332 56.904C38.283 56.953 38.254 57.0155 38.2183 57.0757H23.6773C23.1843 57.0757 22.7849 56.6764 22.7849 56.1834V24.0586C22.7849 23.5656 23.1843 23.1662 23.6773 23.1662H26.3544V25.8433C26.3544 26.3363 26.7537 26.7356 27.2467 26.7356C27.7397 26.7356 28.1391 26.3363 28.1391 25.8433V23.1662H33.4932V25.8433C33.4932 26.3363 33.8925 26.7356 34.3856 26.7356C34.8786 26.7356 35.2779 26.3363 35.2779 25.8433V23.1662H40.632V25.8433C40.632 26.3363 41.0314 26.7356 41.5244 26.7356C42.0174 26.7356 42.4168 26.3363 42.4168 25.8433V23.1662H47.7709V25.8433C47.7709 26.3363 48.1702 26.7356 48.6632 26.7356C49.1563 26.7356 49.5556 26.3363 49.5556 25.8433V23.1662H52.2327C52.7235 23.1662 53.125 23.5656 53.125 24.0586V42.113L47.9761 47.2597H27.2467C26.7536 47.2597 26.3543 47.659 26.3543 48.152C26.3543 48.645 26.7536 49.0444 27.2467 49.0444H46.1914L38.332 56.904ZM46.1671 64.2147H39.8557V57.9034L55.3693 42.3898L57.8925 44.913L43.3783 59.4248C43.0303 59.7729 43.0303 60.3395 43.3783 60.6875C43.5524 60.8615 43.7821 60.9485 44.0097 60.9485C44.2373 60.9485 44.467 60.8615 44.6411 60.6875L59.1552 46.1756L61.6784 48.6988L46.1671 64.2147ZM66.0959 44.2842L62.9414 47.4409L56.6324 41.1296L59.7868 37.9751C61.4689 36.2908 64.4137 36.2908 66.0959 37.9751C66.9392 38.8184 67.4032 39.9383 67.4032 41.1296C67.4032 42.3208 66.9392 43.4432 66.0959 44.2842Z" fill="white"/>
</svg>
