<svg width="114" height="114" viewBox="0 0 114 114" fill="none" xmlns="http://www.w3.org/2000/svg">
<rect x="0.5" y="0.5" width="113" height="113" rx="4" fill="#DFEDFF"/>
<path d="M77.9252 79.4075H75.2745C72.4844 79.4075 69.8338 80.4887 67.8807 82.4418L61.9167 88.3359C59.1964 91.0214 54.7672 91.0214 52.0468 88.3359L46.0829 82.4418C44.1298 80.4887 41.4443 79.4075 38.6891 79.4075H36.0733C30.2838 79.4075 25.6104 74.769 25.6104 69.0493V30.9989C25.6104 25.2791 30.2838 20.6406 36.0733 20.6406H77.9252C83.7147 20.6406 88.3881 25.2791 88.3881 30.9989V69.0493C88.3881 74.7342 83.7147 79.4075 77.9252 79.4075Z" stroke="#306CB5" stroke-width="1.5" stroke-miterlimit="10" stroke-linecap="round" stroke-linejoin="round"/>
<path d="M56.9993 48.5063C61.4873 48.5063 65.1256 44.868 65.1256 40.38C65.1256 35.892 61.4873 32.2539 56.9993 32.2539C52.5113 32.2539 48.873 35.892 48.873 40.38C48.873 44.868 52.5113 48.5063 56.9993 48.5063Z" stroke="#306CB5" stroke-width="1.5" stroke-linecap="round" stroke-linejoin="round"/>
<path d="M70.9501 68.2446C70.9501 61.9668 64.7072 56.875 56.9994 56.875C49.2917 56.875 43.0488 61.9668 43.0488 68.2446" stroke="#306CB5" stroke-width="1.5" stroke-linecap="round" stroke-linejoin="round"/>
</svg>
